<svg width="28" height="32" viewBox="0 0 28 32" xmlns="http://www.w3.org/2000/svg">
<path d="M26.25 32H1.75C0.780208 32 0 31.2357 0 30.2857V28.5714C0 27.6214 0.780208 26.8571 1.75 26.8571H26.25C27.2198 26.8571 28 27.6214 28 28.5714V30.2857C28 31.2357 27.2198 32 26.25 32Z" />
<path d="M9.33326 1.71429V11.4286H2.93847C1.64055 11.4286 0.991593 12.9643 1.91034 13.8643L13.0083 24.7357C13.5551 25.2714 14.452 25.2714 14.9989 24.7357L26.0968 13.8643C27.0156 12.9643 26.3666 11.4286 25.0687 11.4286H18.6666V1.71429C18.6666 0.764286 17.8864 0 16.9166 0H11.0833C10.1135 0 9.33326 0.764286 9.33326 1.71429Z" />
</svg>
