<svg width="32" height="32" viewBox="0 0 32 32" xmlns="http://www.w3.org/2000/svg">
<path fill-rule="evenodd" clip-rule="evenodd" d="M19.9705 32C18.8027 32 17.9852 31.077 17.9852 29.7143L18 22H14.0294L14.0146 29.7143C14.0054 31.0663 13.1948 32 12.0293 32H6.07344C4.91028 32 4.09733 31.0663 4.08815 29.7143V19.5569L2.23568 19.4743C1.36159 19.4743 0.431878 19.2297 0.117573 18.2857C-0.201321 17.3364 0.161725 15.8795 0.806395 15.1941L14.5097 0.644354C15.3172 -0.21434 16.5538 -0.21434 17.3636 0.641687L31.1885 15.2768C31.84 15.9622 32.2011 17.3364 31.8822 18.2857C31.5633 19.2297 30.7687 19.5569 29.8969 19.5569H27.9116V29.7143C27.9116 31.077 27.0964 32 25.9264 32" />
</svg>
