<?xml version="1.0" encoding="utf-8"?>
<!-- Generator: Adobe Illustrator 26.2.1, SVG Export Plug-In . SVG Version: 6.00 Build 0)  -->
<svg version="1.1" id="Layer_1" xmlns="http://www.w3.org/2000/svg" xmlns:xlink="http://www.w3.org/1999/xlink" x="0px" y="0px"
	 viewBox="0 0 24 24" style="enable-background:new 0 0 24 24;" xml:space="preserve">
<style type="text/css">
	.st0{fill-rule:evenodd;clip-rule:evenodd;fill:#0052C2;}
	.st1{fill:none;}
</style>
<path class="st0" d="M21.4,0H2.6C1.2,0,0,1.2,0,2.6v18.9C0,22.8,1.2,24,2.6,24h18.9c1.4,0,2.6-1.2,2.6-2.6V2.6C24,1.2,22.8,0,21.4,0
	z M20.6,10.7c0,1.1-1.4,1.7-2.2,0.9l-1.7-1.7L6.2,20.4c-0.3,0.3-0.7,0.3-0.9,0l-1.7-1.7c-0.3-0.3-0.3-0.7,0-0.9L14.1,7.3l-1.7-1.7
	c-0.8-0.8-0.2-2.2,0.9-2.2h6c0.7,0,1.3,0.6,1.3,1.3V10.7z"/>
<rect class="st1" width="24" height="24"/>
</svg>
