<svg viewBox="0 0 24 24" xmlns="http://www.w3.org/2000/svg">
  <path
    d="M4.69999 21.6L13.1 21.6L13.1 24L3.49999 24C2.83639 24 2.29999 23.4636 2.29999 22.8L2.29999 1.2C2.29999 0.5364 2.83639 0 3.49999 0L14.3036 0L20.3 5.9964L20.3 11.4H17.9L17.9 8.4L13.1 8.4C12.4364 8.4 11.9 7.8636 11.9 7.2L11.9 2.4L4.69999 2.4L4.69999 21.6ZM14.3 3.3888L16.9112 6L14.3 6L14.3 3.3888ZM15.5327 23.595C15.7945 23.865 16.0564 24 16.4491 24H21.6854C22.0782 24 22.34 23.865 22.6018 23.595C22.8636 23.325 22.9945 23.055 22.9945 22.65L22.9945 18.6C22.9945 18.195 22.8636 17.925 22.6018 17.655C22.34 17.385 22.0782 17.25 21.6854 17.25V15.9C21.6854 15.09 21.4236 14.55 20.9 14.01C20.3764 13.47 19.8527 13.2 19.0673 13.2C18.4127 13.2 17.7582 13.47 17.2345 14.01C16.7109 14.55 16.4491 15.09 16.4491 15.9L16.4491 17.25C16.0564 17.25 15.7945 17.385 15.5327 17.655C15.2709 17.925 15.14 18.195 15.14 18.6V22.65C15.14 23.055 15.2709 23.325 15.5327 23.595ZM20.3764 15.9V17.25H17.7582V15.9C17.7582 15.495 17.8891 15.225 18.1509 14.955C18.4127 14.685 18.6745 14.55 19.0673 14.55C19.46 14.55 19.7218 14.685 19.9836 14.955C20.2454 15.225 20.3764 15.495 20.3764 15.9Z" />
</svg>
