<?xml version="1.0" encoding="utf-8"?>
<!-- Generator: Adobe Illustrator 26.2.1, SVG Export Plug-In . SVG Version: 6.00 Build 0)  -->
<svg version="1.1" id="Layer_1" xmlns="http://www.w3.org/2000/svg" xmlns:xlink="http://www.w3.org/1999/xlink" x="0px" y="0px"
	 viewBox="0 0 24 24" style="enable-background:new 0 0 24 24;" xml:space="preserve">
<style type="text/css">
	.st0{fill-rule:evenodd;clip-rule:evenodd;fill:#0052C2;}
	.st1{fill:none;}
</style>
<path class="st0" d="M12,0C5.4,0,0,5.4,0,12c0,6.6,5.4,12,12,12c6.6,0,12-5.4,12-12S18.6,0,12,0z M14.2,17.5c0,1.2-1,2.2-2.2,2.2
	c-1.2,0-2.2-1-2.2-2.2v-6.5c0-1.2,1-2.2,2.2-2.2c1.2,0,2.2,1,2.2,2.2V17.5z M12,7.6c-1.2,0-2.2-1-2.2-2.2c0-1.2,1-2.2,2.2-2.2
	c1.2,0,2.2,1,2.2,2.2C14.2,6.7,13.2,7.6,12,7.6z"/>
<rect class="st1" width="24" height="24"/>
</svg>
