<?xml version="1.0" encoding="utf-8"?>
<!-- Generator: Adobe Illustrator 26.2.1, SVG Export Plug-In . SVG Version: 6.00 Build 0)  -->
<svg version="1.1" id="Layer_1" xmlns="http://www.w3.org/2000/svg" xmlns:xlink="http://www.w3.org/1999/xlink" x="0px" y="0px"
	 viewBox="0 0 24 24" style="enable-background:new 0 0 24 24;" xml:space="preserve">
<style type="text/css">
	.st0{fill-rule:evenodd;clip-rule:evenodd;fill:#0052C2;}
	.st1{fill:none;}
</style>
<path class="st0" d="M21.4,0H2.6C1.2,0,0,1.2,0,2.6v18.9C0,22.8,1.2,24,2.6,24h18.9c1.4,0,2.6-1.2,2.6-2.6V2.6C24,1.2,22.8,0,21.4,0
	z M11.4,20.1L4.7,20c-0.3,0-0.6-0.3-0.6-0.6L4,12.6C4,12.3,4.2,12,4.6,12l0.8,0c0.3,0,0.6,0.3,0.6,0.6l0,4.1l3.5-3.5
	c0.2-0.2,0.6-0.2,0.8,0l0.6,0.6c0.2,0.2,0.2,0.6,0,0.8l-3.5,3.5l4.1,0c0.3,0,0.6,0.3,0.6,0.6l0,0.8C12,19.8,11.8,20.1,11.4,20.1z
	 M19.5,12.1l-0.8,0c-0.3,0-0.6-0.3-0.6-0.6l0-4.1l-3.5,3.5c-0.2,0.2-0.6,0.2-0.8,0l-0.6-0.6C13,10,13,9.7,13.2,9.4l3.5-3.5l-4.1,0
	C12.3,6,12,5.7,12,5.4l0-0.8C12,4.3,12.3,4,12.6,4l6.8,0.1c0.3,0,0.6,0.3,0.6,0.6l0.1,6.8C20.1,11.8,19.8,12.1,19.5,12.1z"/>
<rect class="st1" width="24" height="24"/>
</svg>
