<?xml version="1.0" encoding="utf-8"?>
<!-- Generator: Adobe Illustrator 26.2.1, SVG Export Plug-In . SVG Version: 6.00 Build 0)  -->
<svg version="1.1" id="Layer_1" xmlns="http://www.w3.org/2000/svg" xmlns:xlink="http://www.w3.org/1999/xlink" x="0px" y="0px"
	 viewBox="0 0 24 24" style="enable-background:new 0 0 24 24;" xml:space="preserve">
<style type="text/css">
	.st0{fill:#0052C2;}
	.st1{fill:none;}
</style>
<g>
	<path class="st0" d="M21.2,20.1H2.8c-0.7,0-1.3,0.6-1.3,1.3v1.3c0,0.7,0.6,1.3,1.3,1.3h18.4c0.7,0,1.3-0.6,1.3-1.3v-1.3
		C22.5,20.7,21.9,20.1,21.2,20.1z"/>
	<path class="st0" d="M11.3,18.6c0.4,0.4,1.1,0.4,1.5,0l8.3-8.2c0.7-0.7,0.2-1.8-0.8-1.8h-4.8V1.3c0-0.7-0.6-1.3-1.3-1.3H9.8
		C9.1,0,8.5,0.6,8.5,1.3v7.3H3.7c-1,0-1.5,1.2-0.8,1.8L11.3,18.6z"/>
</g>
<rect class="st1" width="24" height="24"/>
</svg>
