<?xml version="1.0" encoding="utf-8"?>
<!-- Generator: Adobe Illustrator 26.2.1, SVG Export Plug-In . SVG Version: 6.00 Build 0)  -->
<svg version="1.1" id="Layer_1" xmlns="http://www.w3.org/2000/svg" xmlns:xlink="http://www.w3.org/1999/xlink" x="0px" y="0px"
	 viewBox="0 0 24 24" style="enable-background:new 0 0 24 24;" xml:space="preserve">
<path class="st0" d="M14.1,12l9.4-9.4c0.6-0.6,0.6-1.5,0-2.1s-1.5-0.6-2.1,0L12,9.9L2.6,0.4C2-0.1,1-0.1,0.4,0.4s-0.6,1.5,0,2.1
	L9.9,12l-9.4,9.4c-0.6,0.6-0.6,1.5,0,2.1C0.7,23.9,1.1,24,1.5,24c0.4,0,0.8-0.1,1.1-0.4l9.4-9.4l9.4,9.4c0.3,0.3,0.7,0.4,1.1,0.4
	s0.8-0.1,1.1-0.4c0.6-0.6,0.6-1.5,0-2.1L14.1,12z"/>
<rect class="st1" width="24" height="24"/>
</svg>
