<?xml version="1.0" encoding="utf-8"?>
<!-- Generator: Adobe Illustrator 26.2.1, SVG Export Plug-In . SVG Version: 6.00 Build 0)  -->
<svg version="1.1" id="Layer_1" xmlns="http://www.w3.org/2000/svg" xmlns:xlink="http://www.w3.org/1999/xlink" x="0px" y="0px"
	 viewBox="0 0 24 24" style="enable-background:new 0 0 24 24;" xml:space="preserve">
<style type="text/css">
	.st0{fill-rule:evenodd;clip-rule:evenodd;fill:#0052C2;}
	.st1{fill:none;}
</style>
<path class="st0" d="M23.4,11.5L13,0.5c-0.6-0.6-1.5-0.6-2.1,0L0.6,11.4c-0.5,0.5-0.8,1.6-0.5,2.3c0.2,0.7,0.9,0.9,1.6,0.9l1.4,0.1
	v7.6c0,1,0.6,1.7,1.5,1.7H9c0.9,0,1.5-0.7,1.5-1.7l0-5.8h3l0,5.8c0,1,0.6,1.7,1.5,1.7h4.5c0.9,0,1.5-0.7,1.5-1.7v-7.6h1.5
	c0.7,0,1.2-0.2,1.5-1C24.2,13,23.9,12,23.4,11.5z"/>
<rect class="st1" width="24" height="24"/>
</svg>
