<?xml version="1.0" encoding="utf-8"?>
<!-- Generator: Adobe Illustrator 26.2.1, SVG Export Plug-In . SVG Version: 6.00 Build 0)  -->
<svg version="1.1" id="Layer_1" xmlns="http://www.w3.org/2000/svg" xmlns:xlink="http://www.w3.org/1999/xlink" x="0px" y="0px"
	 viewBox="0 0 24 24" style="enable-background:new 0 0 24 24;" xml:space="preserve">
<style type="text/css">
	.st0{fill:#0052C2;}
	.st1{fill:none;}
</style>
<g>
	<path class="st0" d="M20.2,4.5c0-0.3-0.3-0.6-0.6-0.6l-7-0.1C12.3,3.7,12,4,12,4.3l0,0.8c0,0.3,0.3,0.6,0.6,0.6l4.2,0l-3.6,3.6
		c-0.2,0.2-0.2,0.6,0,0.9l0.6,0.6c0.2,0.2,0.6,0.2,0.9,0l3.6-3.6l0,4.2c0,0.3,0.3,0.6,0.6,0.6l0.8,0c0.3,0,0.6-0.3,0.6-0.6L20.2,4.5
		z"/>
	<path class="st0" d="M11.4,18.2l-4.2,0l3.6-3.6c0.2-0.2,0.2-0.6,0-0.9l-0.6-0.6C10,13,9.6,13,9.3,13.2l-3.6,3.6l0-4.2
		c0-0.3-0.3-0.6-0.6-0.6l-0.8,0c-0.3,0-0.6,0.3-0.6,0.6l0.1,7c0,0.3,0.3,0.6,0.6,0.6l7,0.1c0.3,0,0.6-0.3,0.6-0.6l0-0.8
		C12,18.5,11.7,18.2,11.4,18.2z"/>
</g>
<rect class="st1" width="24" height="24"/>
</svg>
