<svg width="32" height="32" viewBox="0 0 32 32" fill="none" xmlns="http://www.w3.org/2000/svg">
  <path fill-rule="evenodd" clip-rule="evenodd" d="M16 17.4545C14.3942 17.4545 13.0909 18.7578 13.0909 20.3636C13.0909 21.9695 14.3942 23.2727 16 23.2727C17.6073 23.2727 18.9091 21.9695 18.9091 20.3636C18.9091 18.7578 17.6073 17.4545 16 17.4545ZM16 27.6364C11.984 27.6364 8.72727 24.3811 8.72727 20.3636C8.72727 17.3644 10.544 14.7942 13.1345 13.6815C13.1142 13.5433 13.0909 13.4051 13.0909 13.2611V5.18691C13.0909 3.58109 14.3942 2.27782 16 2.27782C17.6073 2.27782 18.9091 3.58109 18.9091 5.18691V13.2611C18.9091 13.4051 18.8873 13.5433 18.8669 13.6815C21.4575 14.7942 23.2727 17.3658 23.2727 20.3636C23.2727 24.3811 20.0175 27.6364 16 27.6364ZM16 0C7.16364 0 0 7.16364 0 16C0 24.8364 7.16364 32 16 32C24.8378 32 32 24.8364 32 16C32 7.16364 24.8378 0 16 0Z" fill="#0052C2"/>
</svg>
