<?xml version="1.0" standalone="no"?>
<!DOCTYPE svg PUBLIC "-//W3C//DTD SVG 20010904//EN"
 "http://www.w3.org/TR/2001/REC-SVG-20010904/DTD/svg10.dtd">
<svg version="1.0" xmlns="http://www.w3.org/2000/svg"
 width="512.000000pt" height="512.000000pt" viewBox="0 0 512.000000 512.000000"
 preserveAspectRatio="xMidYMid meet">
<metadata>
Created by potrace 1.14, written by Peter Selinger 2001-2017
</metadata>
<g transform="translate(0.000000,512.000000) scale(0.100000,-0.100000)"
fill="#000000" stroke="none">
<path d="M240 4640 l240 -480 241 0 240 0 66 -137 c36 -76 101 -211 144 -301
43 -89 106 -221 140 -292 35 -72 66 -127 69 -123 4 5 17 33 29 63 13 30 34 78
46 105 13 28 41 91 63 140 22 50 49 110 60 135 11 25 55 124 97 220 42 96 80
178 84 183 4 4 113 6 243 5 l236 -3 -94 -215 c-52 -118 -100 -228 -108 -245
-8 -16 -21 -46 -29 -65 -8 -19 -61 -137 -116 -263 -56 -125 -101 -229 -101
-231 0 -3 -15 -37 -34 -78 -48 -104 -74 -163 -151 -340 l-69 -158 -128 0 -128
0 637 -1275 c351 -701 640 -1275 643 -1275 3 0 92 172 199 383 389 769 584
1152 830 1640 l252 497 -88 0 c-109 1 -148 6 -243 32 -290 78 -536 316 -605
583 -22 87 -27 243 -10 333 59 306 290 551 612 648 78 24 105 27 238 27 153 1
219 -8 335 -45 152 -49 284 -140 368 -257 l32 -44 126 259 c70 143 163 336
209 429 159 327 287 590 296 608 9 16 -115 17 -2551 17 l-2560 0 240 -480z
m2545 -1278 l0 -797 -225 0 -225 0 0 798 0 797 225 0 225 0 0 -798z"/>
<path d="M4409 3752 c-26 -18 -157 -102 -255 -162 l-62 -38 -10 23 c-17 37
-72 94 -116 120 -55 32 -125 47 -215 46 -328 -2 -529 -357 -356 -631 117 -186
368 -250 573 -146 93 47 111 74 298 448 96 193 173 352 171 354 -2 2 -14 -4
-28 -14z"/>
</g>
</svg>
