<svg xmlns="http://www.w3.org/2000/svg" viewBox="0 0 4756.53 2397.5"><g style="isolation: isolate;"><path d="M3848.71-957.73H1130.15L2489.43,1917Z" style="fill: rgb(195, 195, 195);"></path><path d="M-1588.41,2875.23H1130.15L-229.13.51Z" style="fill: rgb(117, 117, 117);"></path><path d="M2036.32,2875.23H4754.88L3395.6.51Z" style="fill: rgb(90, 90, 90);"></path><path d="M224,2875.23H2942.53L1583.24.51Z" style="fill: silver;"></path><path d="M3848.71,2875.23H6567.28L5208,.51Z" style="fill: rgb(72, 72, 72);"></path><path d="M5661.09-957.73H2942.53L4301.81,1917Z" style="fill: rgb(72, 72, 72);"></path><path d="M2036.34-957.73H-682.22L677.06,1917Z" style="fill: rgb(186, 186, 186);"></path><path d="M7473.44-957.73H4754.88L6114.16,1917Z" style="fill: rgb(130, 130, 130);"></path><path d="M2489.43,2875.23H4301.81L3395.62,958.75Z" style="fill: rgb(61, 61, 61); mix-blend-mode: screen;"></path><path d="M1130.11,958.75H2942.48L2036.29-957.73Z" style="fill: rgb(176, 176, 176);"></path><path d="M223.91-957.73H-1588.47L-682.28,958.75Z" style="fill: rgb(69, 69, 69); mix-blend-mode: overlay;"></path><path d="M2489.43,958.75H1583.24L2036.34,1917Z" style="fill: rgb(195, 195, 195);"></path><path d="M1583.24-957.73H677.06L1130.15.51Z" style="fill: rgb(186, 186, 186); mix-blend-mode: screen;"></path><path d="M1130.15-957.73,677.06.51h906.18Z" style="mix-blend-mode: screen; fill: rgb(173, 173, 173);"></path><path d="M2489.43-957.73H1583.24L2036.34.51Z" style="fill: rgb(195, 195, 195); mix-blend-mode: lighten;"></path><path d="M3395.62-957.73H2489.43L2942.53.51Z" style="fill: rgb(124, 124, 124);"></path><path d="M4301.81-957.73H3395.62L3848.71.51Z" style="mix-blend-mode: screen; fill: rgb(124, 124, 124);"></path><path d="M5208-957.73H4301.81L4754.9.51Z" style="fill: rgb(72, 72, 72); mix-blend-mode: screen;"></path><path d="M677.06.51H-229.13L224,958.75Z" style="fill: rgb(69, 69, 69);"></path><path d="M1583.24.51H677.06l453.09,958.24Z" style="fill: rgb(186, 186, 186); mix-blend-mode: screen;"></path><path d="M2489.43.51H1583.24l453.1,958.24Z" style="fill: rgb(176, 176, 176);"></path><path d="M3395.62.51H2489.43l453.1,958.24Z" style="mix-blend-mode: overlay; fill: rgb(110, 110, 110);"></path><path d="M4301.81.51H3395.62l453.09,958.24Z" style="fill: rgb(72, 72, 72); mix-blend-mode: screen;"></path><path d="M5208,.51H4301.81L4754.9,958.75Z" style="fill: rgb(41, 41, 41);"></path><path d="M677.06,958.75H-229.13L224,1917Z" style="fill: rgb(117, 117, 117); mix-blend-mode: screen;"></path><path d="M1583.24,958.75H677.06L1130.15,1917Z" style="fill: rgb(186, 186, 186); mix-blend-mode: screen;"></path><path d="M3395.62,958.75H2489.43L2942.53,1917Z" style="fill: rgb(195, 195, 195); mix-blend-mode: screen;"></path><path d="M4301.81,958.75H3395.62L3848.71,1917Z" style="fill: rgb(130, 130, 130); mix-blend-mode: screen;"></path><path d="M5208,958.75H4301.81L4754.9,1917Z" style="fill: rgb(72, 72, 72); mix-blend-mode: screen;"></path><path d="M677.06,1917H-229.13L224,2875.23Z" style="mix-blend-mode: overlay; fill: rgb(71, 71, 71);"></path><path d="M1583.24,1917H677.06l453.09,958.24Z" style="fill: rgb(186, 186, 186); mix-blend-mode: screen;"></path><path d="M2489.43,1917H1583.24l453.1,958.24Z" style="fill: rgb(152, 152, 152);"></path><path d="M3395.62,1917H2489.43l453.1,958.24Z" style="mix-blend-mode: overlay; fill: rgb(110, 110, 110);"></path><path d="M4301.81,1917H3395.62l453.09,958.24Z" style="fill: rgb(61, 61, 61); mix-blend-mode: screen;"></path><path d="M5208,1917H4301.81l453.09,958.24Z" style="fill: rgb(72, 72, 72); mix-blend-mode: screen;"></path><path d="M223.91.51H-682.28l453.09,958.24Z" style="mix-blend-mode: screen; fill: rgb(102, 102, 102);"></path><path d="M5208-957.73,4754.9.51h906.19Z" style="fill: rgb(72, 72, 72);"></path><path d="M4301.81,958.75,3848.71,1917H4754.9Z" style="fill: rgb(72, 72, 72); mix-blend-mode: screen;"></path><path d="M5661.09,958.75H4754.9L5208,1917Z" style="mix-blend-mode: screen; fill: rgb(69, 69, 69);"></path><path d="M4754.89,958.75H3848.7L4301.8,1917Z" style="mix-blend-mode: screen; fill: rgb(69, 69, 69);"></path><path d="M3395.62,2875.23h906.19L3848.71,1917Z" style="fill: rgb(195, 195, 195); mix-blend-mode: screen;"></path><path d="M-682.22,2875.23H224L-229.13,1917Z" style="mix-blend-mode: overlay; fill: rgb(173, 173, 173);"></path><path d="M2942.53-957.73H2036.34L2489.43.51Z" style="fill: rgb(90, 90, 90);"></path><path d="M2036.34.51H1130.15l453.1,958.24Z" style="mix-blend-mode: overlay; fill: rgb(152, 152, 152);"></path><path d="M2489.43.51,2036.34,958.75h906.19Z" style="fill: rgb(195, 195, 195);"></path><path d="M2036.34,1917H1130.15l453.1,958.24Z" style="mix-blend-mode: overlay; fill: rgb(152, 152, 152);"></path><path d="M450.45-478.61H-2.64L223.91.51Z" style="fill: rgb(69, 69, 69);"></path><path d="M677.06.51H224L450.51,479.63Z" style="fill: rgb(117, 117, 117); mix-blend-mode: overlay;"></path><path d="M1130.15.51H677.06L903.6,479.63Z" style="fill: rgb(186, 186, 186); mix-blend-mode: screen;"></path><path d="M903.6,480.42H450.51L677.06,959.54Z" style="fill: rgb(186, 186, 186); mix-blend-mode: screen;"></path><path d="M1130.15,958.75H677.06L903.6,1437.87Z" style="fill: silver;"></path><path d="M677.06,958.75,450.51,1437.87H903.6Z" style="fill: rgb(208, 208, 208);"></path><path d="M2036.37,958.75l-226.55,479.12h453.1Z" style="fill: rgb(208, 208, 208);"></path><path d="M2263.23,479.52,2036.68,958.64h453.09Z" style="fill: rgb(124, 124, 124);"></path><path d="M677.06,1917H224l226.55,479.12Z" style="fill: rgb(186, 186, 186); mix-blend-mode: screen;"></path><path d="M2716,479.63,2489.43,958.75h453.1Z" style="mix-blend-mode: screen; fill: rgb(176, 176, 176);"></path><path d="M2942.53.51h-453.1L2716,479.63Z" style="fill: rgb(195, 195, 195); mix-blend-mode: screen;"></path><path d="M2942.53,958.75h-453.1L2716,1437.87Z" style="fill: rgb(195, 195, 195); mix-blend-mode: multiply;"></path><path d="M3169,1437.87H2715.94L2942.48,1917Z" style="fill: rgb(176, 176, 176);"></path><path d="M2942.53,1917h-453.1L2716,2396.11Z" style="fill: rgb(61, 61, 61);"></path><path d="M3622.17-478.61h-453.1L3395.62.51Z" style="fill: rgb(41, 41, 41);"></path><path d="M3848.71.51H3395.62l226.55,479.12Z" style="fill: rgb(72, 72, 72);"></path><path d="M3622.17,479.63h-453.1l226.55,479.12Z" style="mix-blend-mode: screen; fill: rgb(176, 176, 176);"></path><path d="M3848.71,958.75H3395.62l226.55,479.12Z" style="fill: rgb(72, 72, 72);"></path><path d="M3622.17,1437.87h-453.1L3395.62,1917Z" style="fill: rgb(109, 109, 109);"></path><path d="M3848.71,1917H3395.62l226.55,479.12Z" style="fill: rgb(61, 61, 61); mix-blend-mode: screen;"></path><path d="M3622.15,2396.11h-453.1l226.55,479.12Z" style="fill: rgb(61, 61, 61); mix-blend-mode: screen;"></path><path d="M2036.29.51H1583.2l226.55,479.12Z" style="fill: rgb(195, 195, 195); mix-blend-mode: screen;"></path><path d="M2262.89,479.63h-453.1l226.55,479.12Z" style="fill: rgb(109, 109, 109);"></path><path d="M1809.75,479.63,1583.2,958.75h453.09Z" style="fill: rgb(111, 111, 111);"></path><path d="M1356.65,479.63,1130.11,958.75H1583.2Z" style="fill: silver;"></path><path d="M1809.75,1437.87h-453.1L1583.2,1917Z" style="mix-blend-mode: screen; fill: rgb(152, 152, 152);"></path><path d="M2036.29,1917H1583.2l226.55,479.12Z" style="fill: rgb(186, 186, 186); mix-blend-mode: screen;"></path><path d="M3622.17,479.63h453.09L3848.71.51Z" style="fill: rgb(90, 90, 90); mix-blend-mode: overlay;"></path><path d="M4754.9.51H4301.81l226.54,479.12Z" style="fill: rgb(72, 72, 72); mix-blend-mode: screen;"></path><path d="M5208,1917H4754.86l226.54,479.12Z" style="mix-blend-mode: overlay; fill: rgb(81, 81, 81);"></path><path d="M4528.34-478.61H4075.25L4301.8.51Z" style="fill: rgb(176, 176, 176); mix-blend-mode: overlay;"></path><path d="M4754.9.51H4301.81l226.54,479.12Z" style="mix-blend-mode: overlay; fill: rgb(102, 102, 102);"></path><path d="M4754.9,1917H4301.81l226.54,479.12Z" style="mix-blend-mode: overlay; fill: rgb(81, 81, 81);"></path><path d="M-3.45,2394.84-230,2874H223.1Z" style="fill: rgb(69, 69, 69); mix-blend-mode: overlay;"></path><path d="M4528.35,479.63,4301.81,958.75H4754.9Z" style="fill: rgb(130, 130, 130); mix-blend-mode: screen;"></path><path d="M4075.26,2396.11H3622.17l226.54,479.12Z" style="fill: rgb(72, 72, 72);"></path><path d="M1583.2,958.75H1130.11l226.54,479.12Z" style="fill: rgb(152, 152, 152);"></path><path d="M903.6,2396.11H450.51l226.55,479.12Z" style="mix-blend-mode: screen; fill: rgb(152, 152, 152);"></path><path d="M4754.89,958.75H4528.34l113.28,239.56Z" style="fill: rgb(72, 72, 72); mix-blend-mode: multiply;"></path><path d="M2489.43,0H2262.89l113.27,239.56Z" style="mix-blend-mode: overlay; fill: rgb(124, 124, 124);"></path><path d="M2489.43,1440.84H2262.89l113.27,239.56Z" style="fill: rgb(124, 124, 124); mix-blend-mode: multiply;"></path><path d="M2942.48,958.75l-113.27,239.56h226.55Z" style="mix-blend-mode: overlay; fill: rgb(124, 124, 124);"></path><path d="M3962,719.08,3848.71,958.64h226.55Z" style="fill: rgb(72, 72, 72); mix-blend-mode: overlay;"></path><path d="M1016.88,1201.28,903.6,1440.84h226.55Z" style="mix-blend-mode: overlay; fill: rgb(81, 81, 81);"></path></g></svg>
