<svg
  height="220"
  viewBox="0 0 300 220"
  width="300"
  xmlns="http://www.w3.org/2000/svg"
>
  <g stroke-linejoin="bevel">
    <path d="m171.4 110h-42.8l42.8 36.7z" fill="#a1a1a1" stroke="#a1a1a1" />
    <path d="m128.6 110v36.7h42.8z" fill="#666" stroke="#666" />
    <path d="m171.4 110v-36.7l-42.8 36.7z" fill="#acacac" stroke="#acacac" />
    <path d="m171.4 73.3h-42.8v36.7z" fill="#797979" stroke="#797979" />
    <path d="m128.6 146.7 42.8 36.6v-36.6z" fill="#acacac" stroke="#acacac" />
    <path d="m128.6 146.7v36.6h42.8z" fill="#666" stroke="#666" />
    <path d="m171.4 146.7 42.9-36.7h-42.9z" fill="#8d8d8d" stroke="#8d8d8d" />
    <path d="m171.4 110h42.9l-42.9-36.7z" fill="#c1c1c1" stroke="#c1c1c1" />
    <path
      d="m214.3 146.7v-36.7l-42.9 36.7z"
      fill="#a1a1a1"
      stroke="#a1a1a1"
    />
    <path d="m171.4 183.3 42.9-36.6h-42.9z" fill="#8d8d8d" stroke="#8d8d8d" />
    <path d="m128.6 73.3-42.9 36.7h42.9z" fill="#8d8d8d" stroke="#8d8d8d" />
    <path d="m128.6 110h-42.9l42.9 36.7z" fill="#acacac" stroke="#acacac" />
    <path d="m128.6 146.7h-42.9l42.9 36.6z" fill="#8d8d8d" stroke="#8d8d8d" />
    <path d="m85.7 110v36.7h42.9z" fill="#a1a1a1" stroke="#a1a1a1" />
    <path d="m214.3 110v-36.7h-42.9z" fill="#a1a1a1" stroke="#a1a1a1" />
    <path d="m171.4 183.3h42.9v-36.6z" fill="#c1c1c1" stroke="#c1c1c1" />
    <path d="m128.6 73.3h-42.9v36.7z" fill="#979797" stroke="#979797" />
    <path d="m85.7 146.7v36.6h42.9z" fill="#707070" stroke="#707070" />
    <path d="m171.4 73.3-42.8-36.6v36.6z" fill="#ccc" stroke="#ccc" />
    <path d="m128.6 73.3v-36.6l-42.9 36.6z" fill="#ccc" stroke="#ccc" />
    <path d="m171.4 36.7h-42.8l42.8 36.6z" fill="#c1c1c1" stroke="#c1c1c1" />
    <path d="m214.3 73.3-42.9-36.6v36.6z" fill="#666" stroke="#666" />
    <path d="m128.6 183.3 42.8 36.7v-36.7z" fill="#838383" stroke="#838383" />
    <path d="m171.4 183.3v36.7l42.9-36.7z" fill="#707070" stroke="#707070" />
    <path d="m128.6 220h42.8l-42.8-36.7z" fill="#ccc" stroke="#ccc" />
    <path d="m85.7 183.3 42.9 36.7v-36.7z" fill="#a1a1a1" stroke="#a1a1a1" />
    <path d="m214.3 110h42.8l-42.8-36.7z" fill="#a1a1a1" stroke="#a1a1a1" />
    <path d="m257.1 146.7v-36.7h-42.8z" fill="#838383" stroke="#838383" />
    <path d="m257.1 146.7-42.8-36.7v36.7z" fill="#b6b6b6" stroke="#b6b6b6" />
    <path d="m257.1 183.3v-36.6h-42.8z" fill="#666" stroke="#666" />
    <path d="m42.9 73.3v36.7h42.8z" fill="#b6b6b6" stroke="#b6b6b6" />
    <path d="m85.7 110h-42.8l42.8 36.7z" fill="#8d8d8d" stroke="#8d8d8d" />
    <path d="m85.7 146.7h-42.8l42.8 36.6z" fill="#666" stroke="#666" />
    <path d="m42.9 110v36.7h42.8z" fill="#797979" stroke="#797979" />
    <path d="m85.7 183.3v36.7h42.9z" fill="#a1a1a1" stroke="#a1a1a1" />
    <path d="m214.3 73.3v-36.6h-42.9z" fill="#808080" stroke="#808080" />
    <path d="m257.1 36.7h-42.8v36.6z" fill="#ccc" stroke="#ccc" />
    <path d="m128.6 36.7h-42.9v36.6z" fill="#a1a1a1" stroke="#a1a1a1" />
    <path d="m85.7 73.3h-42.8l42.8 36.7z" fill="#838383" stroke="#838383" />
    <path d="m42.9 183.3 42.8 36.7v-36.7z" fill="#acacac" stroke="#acacac" />
    <path d="m171.4 220h42.9v-36.7z" fill="#acacac" stroke="#acacac" />
    <path d="m214.3 183.3h42.8l-42.8-36.6z" fill="#b6b6b6" stroke="#b6b6b6" />
    <path d="m257.1 110v-36.7h-42.8z" fill="#838383" stroke="#838383" />
    <path d="m214.3 220 42.8-36.7h-42.8z" fill="#8d8d8d" stroke="#8d8d8d" />
    <path d="m85.7 36.7-42.8 36.6h42.8z" fill="#a1a1a1" stroke="#a1a1a1" />
    <path d="m42.9 146.7v36.6h42.8z" fill="#666" stroke="#666" />
    <path d="m214.3 36.7-42.9-36.7v36.7z" fill="#c1c1c1" stroke="#c1c1c1" />
    <path d="m171.4 36.7v-36.7l-42.8 36.7z" fill="#ccc" stroke="#ccc" />
    <path d="m128.6 36.7v-36.7l-42.9 36.7z" fill="#666" stroke="#666" />
    <path d="m171.4 0h-42.8v36.7z" fill="#a1a1a1" stroke="#a1a1a1" />
    <path d="m257.1 73.3v-36.6l-42.8 36.6z" fill="#838383" stroke="#838383" />
    <path d="m214.3 36.7v-36.7h-42.9z" fill="#979797" stroke="#979797" />
    <path d="m85.7 36.7h-42.8v36.6z" fill="#838383" stroke="#838383" />
    <path d="m85.7 0-42.8 36.7h42.8z" fill="#acacac" stroke="#acacac" />
    <path d="m214.3 220h42.8v-36.7z" fill="#c1c1c1" stroke="#c1c1c1" />
    <path d="m42.9 183.3v36.7h42.8z" fill="#a1a1a1" stroke="#a1a1a1" />
    <path d="m257.1 0h-42.8v36.7z" fill="#c1c1c1" stroke="#c1c1c1" />
    <path d="m128.6 0h-42.9v36.7z" fill="#c1c1c1" stroke="#c1c1c1" />
    <path d="m257.1 73.3 42.9-36.6h-42.9z" fill="#8d8d8d" stroke="#8d8d8d" />
    <path d="m257.1 110h42.9l-42.9-36.7z" fill="#ccc" stroke="#ccc" />
    <path d="m257.1 146.7 42.9-36.7h-42.9z" fill="#c1c1c1" stroke="#c1c1c1" />
    <path d="m300 146.7v-36.7l-42.9 36.7z" fill="#8d8d8d" stroke="#8d8d8d" />
    <path d="m300 146.7h-42.9v36.6z" fill="#ccc" stroke="#ccc" />
    <path d="m0 73.3 42.9 36.7v-36.7z" fill="#979797" stroke="#979797" />
    <path d="m0 73.3v36.7h42.9z" fill="#555555" stroke="#555555" />
    <path d="m42.9 110h-42.9l42.9 36.7z" fill="#666" stroke="#666" />
    <path d="m42.9 146.7h-42.9l42.9 36.6z" fill="#797979" stroke="#797979" />
    <path d="m42.9 183.3h-42.9l42.9 36.7z" fill="#c1c1c1" stroke="#c1c1c1" />
    <path d="m0 110v36.7h42.9z" fill="#303030" stroke="#303030" />
    <path d="m300 183.3v-36.6l-42.9 36.6z" fill="#ccc" stroke="#ccc" />
    <path d="m42.9 36.7-42.9 36.6h42.9z" fill="#8d8d8d" stroke="#8d8d8d" />
    <path d="m0 146.7v36.6h42.9z" fill="#838383" stroke="#838383" />
    <path d="m257.1 220 42.9-36.7h-42.9z" fill="#838383" stroke="#838383" />
    <path d="m300 110v-36.7h-42.9z" fill="#c1c1c1" stroke="#c1c1c1" />
    <path d="m257.1 36.7v-36.7l-42.8 36.7z" fill="#666" stroke="#666" />
    <path d="m300 0h-42.9v36.7z" fill="#ccc" stroke="#ccc" />
    <path d="m85.7 0h-42.8v36.7z" fill="#666" stroke="#666" />
    <path d="m42.9 36.7h-42.9v36.6z" fill="#505050" stroke="#505050" />
    <path d="m300 73.3v-36.6l-42.9 36.6z" fill="#acacac" stroke="#acacac" />
    <path d="m42.9 0-42.9 36.7h42.9z" fill="#666" stroke="#666" />
    <path d="m257.1 220h42.9v-36.7z" fill="#979797" stroke="#979797" />
    <path d="m0 183.3v36.7h42.9z" fill="#797979" stroke="#797979" />
    <path d="m300 36.7v-36.7l-42.9 36.7z" fill="#838383" stroke="#838383" />
    <path d="m42.9 0h-42.9v36.7z" fill="#c1c1c1" stroke="#c1c1c1" />
  </g>
</svg>
