<svg height="300" viewBox="0 0 400 300" width="400" xmlns="http://www.w3.org/2000/svg">
  <g stroke-linejoin="bevel">
    <path d="m200 150v-50h-50z" fill="#b3b3b3" stroke="#b3b3b3"/>
    <path d="m150 100v50h50z" fill="#bfbfbf" stroke="#bfbfbf"/>
    <path d="m150 150v50l50-50z" fill="#a6a6a6" stroke="#a6a6a6"/>
    <path d="m200 150 50-50h-50z" fill="#9a9a9a" stroke="#9a9a9a"/>
    <path d="m150 100h-50l50 50z" fill="#b3b3b3" stroke="#b3b3b3"/>
    <path d="m150 150h-50l50 50z" fill="#777" stroke="#777"/>
    <path d="m200 200 50-50h-50z" fill="#828282" stroke="#828282"/>
    <path d="m200 150h50v-50z" fill="#6b6b6b" stroke="#6b6b6b"/>
    <path d="m200 100-50-50v50z" fill="#777" stroke="#777"/>
    <path d="m150 100v-50l-50 50z" fill="#ccc" stroke="#ccc"/>
    <path d="m200 50h-50l50 50z" fill="#828282" stroke="#828282"/>
    <path d="m250 100-50-50v50z" fill="#777" stroke="#777"/>
    <path d="m150 200h50v-50z" fill="#606060" stroke="#606060"/>
    <path d="m100 100v50h50z" fill="#828282" stroke="#828282"/>
    <path d="m150 50h-50v50z" fill="#606060" stroke="#606060"/>
    <path d="m200 200h50v-50z" fill="#9a9a9a" stroke="#9a9a9a"/>
    <path d="m250 100v-50h-50z" fill="#bfbfbf" stroke="#bfbfbf"/>
    <path d="m100 150v50h50z" fill="#a6a6a6" stroke="#a6a6a6"/>
    <path d="m100 100-50 50h50z" fill="#8e8e8e" stroke="#8e8e8e"/>
    <path d="m100 150h-50l50 50z" fill="#b3b3b3" stroke="#b3b3b3"/>
    <path d="m50 100v50l50-50z" fill="#606060" stroke="#606060"/>
    <path d="m250 200 50-50h-50z" fill="#b3b3b3" stroke="#b3b3b3"/>
    <path d="m250 150h50l-50-50z" fill="#6b6b6b" stroke="#6b6b6b"/>
    <path d="m250 100h50l-50-50z" fill="#bfbfbf" stroke="#bfbfbf"/>
    <path d="m100 50-50 50h50z" fill="#555" stroke="#555"/>
    <path d="m100 200 50 50v-50z" fill="#b3b3b3" stroke="#b3b3b3"/>
    <path d="m150 200v50l50-50z" fill="#b3b3b3" stroke="#b3b3b3"/>
    <path d="m200 200v50l50-50z" fill="#828282" stroke="#828282"/>
    <path d="m250 50-50-50v50z" fill="#bfbfbf" stroke="#bfbfbf"/>
    <path d="m200 50v-50l-50 50z" fill="#8e8e8e" stroke="#8e8e8e"/>
    <path d="m150 50v-50l-50 50z" fill="#555" stroke="#555"/>
    <path d="m200 0h-50v50z" fill="#6b6b6b" stroke="#6b6b6b"/>
    <path d="m300 150v-50h-50z" fill="#9a9a9a" stroke="#9a9a9a"/>
    <path d="m150 250h50v-50z" fill="#606060" stroke="#606060"/>
    <path d="m50 150v50h50z" fill="#ccc" stroke="#ccc"/>
    <path d="m100 200v50h50z" fill="#bfbfbf" stroke="#bfbfbf"/>
    <path d="m250 200h50v-50z" fill="#b3b3b3" stroke="#b3b3b3"/>
    <path d="m250 250 50-50h-50z" fill="#8e8e8e" stroke="#8e8e8e"/>
    <path d="m50 200 50 50v-50z" fill="#ccc" stroke="#ccc"/>
    <path d="m200 250h50v-50z" fill="#8e8e8e" stroke="#8e8e8e"/>
    <path d="m100 50h-50v50z" fill="#8e8e8e" stroke="#8e8e8e"/>
    <path d="m100 0-50 50h50z" fill="#555" stroke="#555"/>
    <path d="m300 100v-50h-50z" fill="#ccc" stroke="#ccc"/>
    <path d="m250 50v-50h-50z" fill="#b3b3b3" stroke="#b3b3b3"/>
    <path d="m150 0h-50v50z" fill="#ccc" stroke="#ccc"/>
    <path d="m300 50-50-50v50z" fill="#bfbfbf" stroke="#bfbfbf"/>
    <path d="m300 50v-50h-50z" fill="#777" stroke="#777"/>
    <path d="m50 200v50h50z" fill="#606060" stroke="#606060"/>
    <path d="m100 300h50l-50-50z" fill="#606060" stroke="#606060"/>
    <path d="m100 250 50 50v-50z" fill="#8e8e8e" stroke="#8e8e8e"/>
    <path d="m150 250v50l50-50z" fill="#777" stroke="#777"/>
    <path d="m200 250v50l50-50z" fill="#777" stroke="#777"/>
    <path d="m50 200h-50l50 50z" fill="#6b6b6b" stroke="#6b6b6b"/>
    <path d="m50 150h-50l50 50z" fill="#555" stroke="#555"/>
    <path d="m50 100-50 50h50z" fill="#9a9a9a" stroke="#9a9a9a"/>
    <path d="m0 100v50l50-50z" fill="#a6a6a6" stroke="#a6a6a6"/>
    <path d="m300 200 50-50h-50z" fill="#828282" stroke="#828282"/>
    <path d="m300 150h50l-50-50z" fill="#777" stroke="#777"/>
    <path d="m300 100h50l-50-50z" fill="#bfbfbf" stroke="#bfbfbf"/>
    <path d="m300 50h50l-50-50z" fill="#a6a6a6" stroke="#a6a6a6"/>
    <path d="m150 300h50v-50z" fill="#b3b3b3" stroke="#b3b3b3"/>
    <path d="m50 50-50 50h50z" fill="#8e8e8e" stroke="#8e8e8e"/>
    <path d="m100 0h-50v50z" fill="#9a9a9a" stroke="#9a9a9a"/>
    <path d="m50 50h-50v50z" fill="#606060" stroke="#606060"/>
    <path d="m250 300 50-50h-50z" fill="#777" stroke="#777"/>
    <path d="m250 250h50v-50z" fill="#9a9a9a" stroke="#9a9a9a"/>
    <path d="m300 200h50v-50z" fill="#a6a6a6" stroke="#a6a6a6"/>
    <path d="m350 150v-50h-50z" fill="#828282" stroke="#828282"/>
    <path d="m0 150v50h50z" fill="#bfbfbf" stroke="#bfbfbf"/>
    <path d="m350 100v-50h-50z" fill="#777" stroke="#777"/>
    <path d="m50 250 50 50v-50z" fill="#777" stroke="#777"/>
    <path d="m50 0-50 50h50z" fill="#6b6b6b" stroke="#6b6b6b"/>
    <path d="m200 300h50v-50z" fill="#555" stroke="#555"/>
    <path d="m300 250 50-50h-50z" fill="#ccc" stroke="#ccc"/>
    <path d="m250 300h50v-50z" fill="#a6a6a6" stroke="#a6a6a6"/>
    <path d="m300 250h50v-50z" fill="#555" stroke="#555"/>
    <path d="m50 250v50h50z" fill="#bfbfbf" stroke="#bfbfbf"/>
    <path d="m0 250 50 50v-50z" fill="#606060" stroke="#606060"/>
    <path d="m300 300 50-50h-50z" fill="#828282" stroke="#828282"/>
    <path d="m50 0h-50v50z" fill="#555" stroke="#555"/>
    <path d="m0 200v50h50z" fill="#828282" stroke="#828282"/>
    <path d="m350 50v-50h-50z" fill="#606060" stroke="#606060"/>
    <path d="m400 200v-50l-50 50z" fill="#ccc" stroke="#ccc"/>
    <path d="m350 200 50-50h-50z" fill="#606060" stroke="#606060"/>
    <path d="m350 150h50l-50-50z" fill="#b3b3b3" stroke="#b3b3b3"/>
    <path d="m350 100h50l-50-50z" fill="#8e8e8e" stroke="#8e8e8e"/>
    <path d="m350 50h50l-50-50z" fill="#a6a6a6" stroke="#a6a6a6"/>
    <path d="m400 150v-50h-50z" fill="#ccc" stroke="#ccc"/>
    <path d="m350 250 50-50h-50z" fill="#6b6b6b" stroke="#6b6b6b"/>
    <path d="m400 100v-50h-50z" fill="#6b6b6b" stroke="#6b6b6b"/>
    <path d="m0 250v50h50z" fill="#ccc" stroke="#ccc"/>
    <path d="m300 300h50v-50z" fill="#9a9a9a" stroke="#9a9a9a"/>
    <path d="m350 250h50v-50z" fill="#8e8e8e" stroke="#8e8e8e"/>
    <path d="m350 300 50-50h-50z" fill="#777" stroke="#777"/>
    <g fill="#a6a6a6" stroke="#a6a6a6">
      <path d="m400 50v-50h-50z"/>
      <path d="m350 300h50v-50z"/>
    </g>
  </g>
</svg>
