<svg viewBox="0 0 24 24" xmlns="http://www.w3.org/2000/svg">
<path d="M17,9.4c-0.7,0-1.3,0.6-1.3,1.3v2.6c0,2.2-1.8,4-4,4c-2.2,0-4-1.8-4-4v-2.6c0-0.7-0.6-1.3-1.3-1.3
  C5.6,9.4,5,10,5,10.7v2.8c0,0,0,0.1,0,0.1c0.1,3.6,3.1,6.5,6.7,6.5c3.6,0,6.6-2.9,6.7-6.5c0,0,0-0.1,0-0.1v-2.8
  C18.3,10,17.8,9.4,17,9.4z"/>
<path d="M11.7,16c1.5,0,2.7-1.2,2.7-2.7V2.7c0-1.5-1.2-2.7-2.7-2.7C10.2,0,9,1.2,9,2.7v10.7C9,14.8,10.2,16,11.7,16z"
  />
<path d="M11.7,21.3c-0.7,0-1.3,0.6-1.3,1.3c0,0.7,0.6,1.3,1.3,1.3c0.7,0,1.3-0.6,1.3-1.3C13,21.9,12.4,21.3,11.7,21.3z
  "/>
</svg>
