<svg viewBox="0 0 24 24" fill="none" xmlns="http://www.w3.org/2000/svg">
  <path fill-rule="evenodd" clip-rule="evenodd" d="M12 24C18.6274 24 24 18.6274 24 12C24 5.37258 18.6274 0 12 0C5.37258 0 0 5.37258 0 12C0 18.6274 5.37258 24 12 24ZM13.4632 12.2454V6.77073C13.4632 6.31452 13.3076 6.01037 12.9962 5.70623C12.6849 5.40207 12.3736 5.25 11.9066 5.25C11.4396 5.25 11.1283 5.40207 10.817 5.70623C10.5057 6.01037 10.35 6.31452 10.35 6.77073V12.8537C10.35 13.0058 10.4021 13.2397 10.5057 13.462C10.5967 13.6575 10.6613 13.7661 10.817 13.9182L15.0171 18C15.3285 18.3042 15.6397 18.4562 16.1067 18.4562C16.5738 18.4562 16.885 18.3042 17.1964 18C17.5077 17.6958 17.6634 17.3918 17.6634 16.9355C17.6634 16.4793 17.5077 16.1751 17.1964 15.8709L13.4632 12.2454Z" fill="currentColor" />
</svg>
