<svg viewBox="0 0 24 24" xmlns="http://www.w3.org/2000/svg">
<path d="M21.8,1.5H2.2C1,1.5,0,2.5,0,3.8v16.5c0,1.2,1,2.2,2.2,2.2h19.5c1.2,0,2.2-1,2.2-2.2V3.8
	C24,2.5,23,1.5,21.8,1.5z M6,6.9c0,0.3-0.3,0.6-0.6,0.6H3.6C3.3,7.5,3,7.2,3,6.9V5.1c0-0.3,0.3-0.6,0.6-0.6h1.9C5.7,4.5,6,4.8,6,5.1
	V6.9z M8.2,6.9V5.1c0-0.3,0.3-0.6,0.6-0.6h11.6c0.3,0,0.6,0.3,0.6,0.6v1.9c0,0.3-0.3,0.6-0.6,0.6H8.8C8.5,7.5,8.2,7.2,8.2,6.9z
	 M21.4,17.1h-3.2l1.3,3c0,0.1,0,0.2-0.1,0.2l-1,0.4c-0.1,0-0.2,0-0.2-0.1l-1.3-3L14.7,20c-0.1,0.1-0.3,0-0.3-0.1v-9.8
	c0-0.1,0.2-0.2,0.3-0.1l6.9,6.8C21.7,16.9,21.6,17.1,21.4,17.1z"/>
</svg>
