<svg viewBox="0 0 24 24" xmlns="http://www.w3.org/2000/svg">
<path d="M23.3,2.2c-0.4-0.4-1-0.7-1.6-0.7H2.2c-0.6,0-1.2,0.2-1.6,0.7S0,3.1,0,3.8v16.5c0,0.6,0.2,1.2,0.7,1.6
	c0.4,0.4,1,0.7,1.6,0.7h19.5c0.6,0,1.2-0.2,1.6-0.7c0.4-0.4,0.7-1,0.7-1.6V3.8C24,3.1,23.8,2.6,23.3,2.2z M7.4,20.6H2.4
	c-0.2,0-0.3-0.1-0.4-0.2c-0.1-0.1-0.2-0.2-0.2-0.4v-3.9h5.5V20.6z M7.4,14.2H1.9V9.8h5.5V14.2z M7.4,7.9H1.9V3.9
	c0-0.2,0.1-0.3,0.2-0.4s0.2-0.2,0.4-0.2h4.9V7.9z M22.1,20.1c0,0.2-0.1,0.3-0.2,0.4c-0.1,0.1-0.2,0.2-0.4,0.2H9.2v-4.5h12.9V20.1z
	 M22.1,14.2H9.2V9.8h12.9V14.2z M22.1,7.9H9.2V3.4h12.3c0.2,0,0.3,0.1,0.4,0.2c0.1,0.1,0.2,0.2,0.2,0.4V7.9z"/>
</svg>
