<svg viewBox="0 0 24 24" xmlns="http://www.w3.org/2000/svg">
<path d="M16.9,9.5l-5.8-5.4c0,0-1.8,2.1-4.3,5.1C6.4,9.8,6.5,10.5,7,11l1.1,1l-4.5,7.5c-0.1,0.4,0,0.8,0.4,0.9L5.1,21
  c0.4,0.1,0.8,0,0.9-0.4l4-6.6l1.3,1.3l-4.1,7.1c-0.1,0.4,0,0.8,0.4,0.9l1.2,0.6c0.4,0.1,0.8,0,0.9-0.4l4.5-8.2
  c0.2-0.5,0.1-1.1-0.3-1.5l-4.2-4L11.2,8l3.8,3.4c0.3,0.3,0.7,0.3,1,0l1-1C17.2,10.2,17.2,9.8,16.9,9.5z"/>
<path d="M17.3,4.6c1.1-1.1,1.1-2.8,0-3.8c-1.1-1.1-2.8-1.1-3.8,0c-1.1,1.1-1.1,2.8,0,3.8C14.5,5.7,16.3,5.7,17.3,4.6z"
  />
<path d="M19.6,16.8l-0.5-3.1c-0.1-0.4-0.4-0.6-0.8-0.6L17,13.3c-0.4,0.1-0.6,0.4-0.6,0.8l1.4,9.4
  c0.1,0.4,0.4,0.6,0.8,0.6l1.4-0.2c0.4-0.1,0.6-0.4,0.6-0.8L19.6,16.8z"/>
</svg>
