<svg viewBox="0 0 24 24" xmlns="http://www.w3.org/2000/svg">
<path d="M16.6,8.3c-4.4,0-7.9,2.9-7.9,6.5c0,0.6,0.1,1.1,0.2,1.6c-0.1,0-0.2,0-0.3,0c-1,0-1.9-0.1-2.8-0.4
  c-2.5,1.5-3,1.3-3,1.3c0.3-0.6,0.4-1.7,0.4-2.5C1.3,13.6,0,11.6,0,9.4c0-3.9,3.9-7,8.6-7c4.3,0,7.9,2.6,8.5,5.9
  C17,8.3,16.8,8.3,16.6,8.3z M12.7,7.2c0-0.7-0.6-1.3-1.3-1.3s-1.3,0.6-1.3,1.3c0,0.7,0.6,1.3,1.3,1.3S12.7,7.9,12.7,7.2z M4.5,7.2
  c0,0.7,0.6,1.3,1.3,1.3S7,7.9,7,7.2S6.4,6,5.7,6S4.5,6.5,4.5,7.2z"/>
<path d="M16.7,8.9c4,0,7.3,2.6,7.3,5.9c0,1.9-1.1,3.5-2.7,4.6c0,0.6,0.1,1.6,0.4,2.1c0,0-0.4,0.2-2.5-1.1
  c-0.7,0.2-1.5,0.3-2.4,0.3c-4,0-7.3-2.6-7.3-5.9C9.5,11.5,12.7,8.9,16.7,8.9z M13.2,13c0,0.6,0.5,1,1,1c0.6,0,1-0.5,1-1
  c0-0.6-0.5-1-1-1C13.6,11.9,13.2,12.4,13.2,13z M17.9,13c0,0.6,0.5,1,1,1c0.6,0,1-0.5,1-1c0-0.6-0.5-1-1-1S17.9,12.4,17.9,13z"/>
</svg>
