<?xml version="1.0" encoding="UTF-8"?>
<svg width="14px" height="11px" viewBox="0 0 14 11" version="1.1" xmlns="http://www.w3.org/2000/svg" xmlns:xlink="http://www.w3.org/1999/xlink">
    <!-- Generator: Sketch 55.2 (78181) - https://sketchapp.com -->
    <title>Envelope</title>
    <desc>Created with Sketch.</desc>
    <g id="Page-1" stroke="none" stroke-width="1" fill="none" fill-rule="evenodd">
        <g id="Envelope" fill="#AF272F" fill-rule="nonzero">
            <path d="M13.7347656,3.4671875 C13.8414063,3.38242187 14,3.46171875 14,3.59570312 L14,9.1875 C14,9.91210937 13.4121094,10.5 12.6875,10.5 L1.3125,10.5 C0.587890625,10.5 0,9.91210937 0,9.1875 L0,3.5984375 C0,3.46171875 0.155859375,3.38515625 0.265234375,3.46992187 C0.877734375,3.94570312 1.68984375,4.55 4.47890625,6.57617187 C5.05585937,6.99726562 6.02929688,7.88320312 7,7.87773437 C7.97617187,7.8859375 8.96875,6.98085937 9.52382812,6.57617187 C12.3128906,4.55 13.1222656,3.94296875 13.7347656,3.4671875 Z" id="Path"></path>
            <path d="M7,7 C7.634375,7.0109375 8.54765625,6.2015625 9.00703125,5.86796875 C12.6355469,3.23476562 12.9117188,3.00507812 13.7484375,2.34882812 C13.9070313,2.22578125 14,2.034375 14,1.83203125 L14,1.3125 C14,0.587890625 13.4121094,-5.06261699e-14 12.6875,-5.06261699e-14 L1.3125,-5.06261699e-14 C0.587890625,-5.06261699e-14 0,0.587890625 0,1.3125 L0,1.83203125 C0,2.034375 0.09296875,2.22304687 0.2515625,2.34882812 C1.08828125,3.00234375 1.36445313,3.23476562 4.99296875,5.86796875 C5.45234375,6.2015625 6.365625,7.0109375 7,7 Z" id="Path"></path>
        </g>
    </g>
</svg>