<svg width="45" height="48" viewBox="0 0 45 48" xmlns="http://www.w3.org/2000/svg">
  <path fill-rule="evenodd" clip-rule="evenodd"
    d="M29.9984 17.8347C28.5236 17.8347 27.331 19.04 27.331 20.5007C27.331 21.9614 28.5236 23.1668 29.9984 23.1668C30.9635 23.1668 31.8147 22.6416 32.2821 21.8622L33.9179 22.8424L44.5091 0H0L7.04343 15.1928H10.3272L13.0225 21.0054L15.7166 15.1928H19.0077L14.0772 25.828H11.9739L22.2539 48L32.7713 25.3161C31.9552 25.7881 31.0083 26.0591 29.9984 26.0591C26.82 26.0591 24.2954 23.663 24.2954 20.5007C24.2954 17.3385 26.82 14.9423 29.9984 14.9423C32.0278 14.9423 33.8005 16.0339 34.7655 17.6507L32.2821 19.1392C31.8147 18.3744 30.9635 17.8347 29.9984 17.8347ZM19.9025 25.828H22.9417V15.1928H19.9025V25.828Z"
    fill="inherit" />
</svg>
