<svg width="22" height="9" viewBox="0 0 22 9"  xmlns="http://www.w3.org/2000/svg">
  <path fill-rule="evenodd" clip-rule="evenodd" d="M16.4096 7.11111H14.9146C14.3616 7.11111 13.9146 6.71378 13.9146 6.22222C13.9146 5.73067 14.3616 5.33333 14.9146 5.33333H16.3506C17.2606 5.33333 18.0006 4.536 18.0006 3.55556C18.0006 2.57511 17.2606 1.77778 16.3506 1.77778H10.6496C9.74061 1.77778 9.00061 2.57511 9.00061 3.55556C9.00061 4.04711 8.55361 4.44444 8.00061 4.44444C7.44761 4.44444 7.00061 4.04711 7.00061 3.55556C7.00061 1.59467 8.63761 0 10.6496 0H16.4096C16.4336 0 16.4576 0.000888889 16.4806 0.00266667C18.4326 0.0693333 20.0006 1.63733 20.0006 3.55556C20.0006 5.47378 18.4326 7.04178 16.4806 7.10844C16.4576 7.11022 16.4336 7.11111 16.4096 7.11111Z"
    transform="translate(0.999603)" fill="inherit" />
  <path fill-rule="evenodd" clip-rule="evenodd" d="M9.351 8.00003H3.591C3.567 8.00003 3.543 7.99914 3.52 7.99736C1.568 7.93069 0 6.36269 0 4.44447C0 2.52625 1.568 0.958249 3.52 0.891583C3.543 0.889805 3.567 0.888916 3.591 0.888916H5.086C5.639 0.888916 6.086 1.28625 6.086 1.7778C6.086 2.26936 5.639 2.66669 5.086 2.66669H3.65C2.741 2.66669 2 3.46403 2 4.44447C2 5.42492 2.741 6.22225 3.65 6.22225H9.351C10.26 6.22225 11 5.42492 11 4.44447C11 3.95292 11.448 3.55558 12 3.55558C12.553 3.55558 13 3.95292 13 4.44447C13 6.40536 11.364 8.00003 9.351 8.00003Z"
    transform="translate(0.999603)" fill="inherit" />
</svg>
