<svg width="20" height="20" viewBox="0 0 20 20" xmlns="http://www.w3.org/2000/svg">
  <path d="M10 20C4.477 20 0 15.523 0 10C0 4.477 4.477 0 10 0C15.523 0 20 4.477 20 10C20 15.523 15.523 20 10 20ZM12.583 5.615L8.839 11.605L7.232 9.998C6.98522 9.75995 6.65483 9.62833 6.31196 9.63146C5.96909 9.6346 5.64116 9.77224 5.39877 10.0148C5.15638 10.2573 5.01892 10.5853 5.01597 10.9282C5.01302 11.271 5.14482 11.6013 5.383 11.848L8.153 14.617C8.29216 14.7559 8.46084 14.8617 8.64651 14.9264C8.83217 14.9911 9.03004 15.0132 9.2254 14.9909C9.42076 14.9686 9.60858 14.9025 9.77489 14.7976C9.9412 14.6927 10.0817 14.5517 10.186 14.385L14.8 7.001C14.8953 6.85534 14.9605 6.69213 14.9919 6.52094C15.0233 6.34974 15.0202 6.17401 14.9828 6.00402C14.9454 5.83404 14.8745 5.67322 14.7741 5.531C14.6738 5.38878 14.5461 5.26802 14.3985 5.17579C14.2509 5.08355 14.0864 5.0217 13.9146 4.99387C13.7428 4.96603 13.5671 4.97276 13.398 5.01366C13.2288 5.05457 13.0695 5.12882 12.9294 5.23208C12.7893 5.33534 12.6712 5.46552 12.582 5.615H12.583Z"
    fill="inherit" />
</svg>
