<svg width="16" height="16" viewBox="0 0 16 16" xmlns="http://www.w3.org/2000/svg">
  <path id="Vector" fill-rule="evenodd" clip-rule="evenodd" d="M14.9956 0.292893C14.6051 -0.0976311 13.9719 -0.0976311 13.5814 0.292893L7.64424 6.23003L1.70711 0.292893C1.31658 -0.0976311 0.683418 -0.0976311 0.292894 0.292893C-0.0976312 0.683418 -0.0976312 1.31658 0.292894 1.70711L6.23003 7.64424L0.651418 13.2228C0.260893 13.6134 0.260893 14.2465 0.651418 14.6371C1.04194 15.0276 1.67511 15.0276 2.06563 14.6371L7.64424 9.05845L13.2228 14.6371C13.6134 15.0276 14.2465 15.0276 14.6371 14.6371C15.0276 14.2465 15.0276 13.6134 14.6371 13.2228L9.05845 7.64424L14.9956 1.70711C15.3861 1.31658 15.3861 0.683418 14.9956 0.292893Z"
    fill="inherit" />
</svg>
