<svg width="21" height="20" viewBox="0 0 21 20"  xmlns="http://www.w3.org/2000/svg">
  <path fill-rule="evenodd" clip-rule="evenodd" d="M10 5V2.824L12.176 5H10ZM13 2.997L12.003 2L10.003 0H10H8H7.176H1C0.447 0 0 0.447 0 1V19C0 19.553 0.447 20 1 20H14C14.553 20 15 19.553 15 19V16H13V18H2V2H8V6C8 6.553 8.447 7 9 7H13V9H15V7.824V7V5V4.997L13 2.997Z"
    fill="inherit" />
  <path fill-rule="evenodd" clip-rule="evenodd" d="M2.353 1.372C2.242 1.204 2.073 1.092 1.765 1.092H1.226V3.893H1.765C2.073 3.893 2.242 3.781 2.353 3.613C2.452 3.474 2.487 3.341 2.487 2.493C2.487 1.652 2.452 1.513 2.353 1.372ZM3.194 4.496C2.851 4.839 2.368 4.986 1.849 4.986H-1.9455e-08V-2.5177e-07H1.849C2.368 -2.5177e-07 2.851 0.146 3.194 0.49C3.775 1.071 3.712 1.709 3.712 2.493C3.712 3.277 3.775 3.915 3.194 4.496Z"
    transform="translate(2.77789 10.0264)" fill="inherit" />
  <path fill-rule="evenodd" clip-rule="evenodd" d="M2.38811 1.31C2.29711 1.191 2.12212 1.092 1.89812 1.092C1.67412 1.092 1.49812 1.191 1.40812 1.31C1.29512 1.456 1.22612 1.624 1.22612 2.536C1.22612 3.446 1.29512 3.607 1.40812 3.754C1.49812 3.873 1.67412 3.978 1.89812 3.978C2.12212 3.978 2.29711 3.873 2.38811 3.754C2.50011 3.607 2.57112 3.446 2.57112 2.536C2.57112 1.624 2.50011 1.456 2.38811 1.31ZM3.29111 4.51C2.92811 4.874 2.50712 5.071 1.89812 5.071C1.28812 5.071 0.868115 4.874 0.504115 4.51C-0.0208848 3.985 0.00011501 3.285 0.00011501 2.536C0.00011501 1.786 -0.0208848 1.085 0.504115 0.56C0.868115 0.196 1.28812 2.05994e-07 1.89812 2.05994e-07C2.50712 2.05994e-07 2.92811 0.196 3.29111 0.56C3.81711 1.085 3.79611 1.786 3.79611 2.536C3.79611 3.285 3.81711 3.985 3.29111 4.51Z"
    transform="translate(7.03378 9.9839)" fill="inherit" />
  <path fill-rule="evenodd" clip-rule="evenodd" d="M2.451 1.092V4.987H1.225V1.092H-4.39453e-07V2.94495e-07H3.677V1.092H2.451Z"
    transform="translate(11.1008 10.0261)" fill="inherit" />
  <path fill-rule="evenodd" clip-rule="evenodd" d="M3.425 4.986V2.597L2.718 3.831H1.934L1.226 2.597V4.986H-4.3335e-07V1.5564e-07H1.205L2.325 2.199L3.446 1.5564e-07H4.651V4.986H3.425Z"
    transform="translate(15.3494 10.0267)" fill="inherit" />
</svg>
