<svg width="21" height="20" viewBox="0 0 21 20"  xmlns="http://www.w3.org/2000/svg">
  <path fill-rule="evenodd" clip-rule="evenodd" d="M10 5V2.824L12.176 5H10ZM10.003 0H1C0.447 0 0 0.447 0 1V19C0 19.553 0.447 20 1 20H14C14.553 20 15 19.553 15 19V16H13V18H2V2H8V6C8 6.553 8.447 7 9 7H13V9H15V4.997L10.003 0Z"
    fill="inherit" />
  <path fill-rule="evenodd" clip-rule="evenodd" d="M10.3818 11.1181V15.0131H9.15479V11.1181H7.92979V10.0261H11.6078V11.1181H10.3818Z"
    fill="inherit" />
  <path fill-rule="evenodd" clip-rule="evenodd" d="M14.8545 15.0127L14.0355 13.4787L13.2155 15.0127H11.8145L13.3695 12.4557L11.9135 10.0267H13.3065L14.0355 11.4337L14.7635 10.0267H16.1575L14.7005 12.4557L16.2545 15.0127H14.8545Z"
    fill="inherit" />
  <path fill-rule="evenodd" clip-rule="evenodd" d="M18.7744 11.1181V15.0131H17.5484V11.1181H16.3234V10.0261H20.0004V11.1181H18.7744Z"
    fill="inherit" />
</svg>
