<svg width="16" height="16" viewBox="0 0 16 16"  xmlns="http://www.w3.org/2000/svg">
  <path fill-rule="evenodd" clip-rule="evenodd" d="M9.98524 16C9.40137 16 8.99259 15.5385 8.99259 14.8571L9 11H7.01471L7.0073 14.8571C7.00272 15.5332 6.59739 16 6.01466 16H3.03672C2.45514 16 2.04867 15.5332 2.04408 14.8571V9.77847L1.11784 9.73714C0.680796 9.73714 0.215939 9.61487 0.0587864 9.14286C-0.100661 8.66818 0.0808625 7.93975 0.403198 7.59707L7.25483 0.322177C7.65861 -0.10717 8.27689 -0.10717 8.68182 0.320844L15.5942 7.63841C15.92 7.98108 16.1006 8.66818 15.9411 9.14286C15.7817 9.61487 15.3844 9.77847 14.9485 9.77847H13.9558V14.8571C13.9558 15.5385 13.5482 16 12.9632 16"
    fill="inherit" />
</svg>
