<svg width="28" height="28" viewBox="0 0 28 28"  xmlns="http://www.w3.org/2000/svg">
  <path fill-rule="evenodd" clip-rule="evenodd" d="M10 5V2.824L12.176 5H10ZM10.003 0H1C0.447 0 0 0.447 0 1V19C0 19.553 0.447 20 1 20H14C14.553 20 15 19.553 15 19V16H13V18H2V2H8V6C8 6.553 8.447 7 9 7H13V9H15V4.997L10.003 0Z"
    fill="#0052C2" />
  <path fill-rule="evenodd" clip-rule="evenodd" d="M9.89837 11.1259H9.20537V12.1339H9.89837C10.2344 12.1339 10.4304 11.8889 10.4304 11.6299C10.4304 11.3709 10.2344 11.1259 9.89837 11.1259ZM9.95437 13.2329H9.20537V15.0129H7.97937V10.0259H9.95437C11.0604 10.0259 11.6564 10.8109 11.6564 11.6299C11.6564 12.4489 11.0604 13.2329 9.95437 13.2329Z"
    fill="#0052C2" />
  <path fill-rule="evenodd" clip-rule="evenodd" d="M14.1475 11.1259H13.4545V12.1339H14.1475C14.4835 12.1339 14.6795 11.8889 14.6795 11.6299C14.6795 11.3709 14.4835 11.1259 14.1475 11.1259ZM14.2035 13.2329H13.4545V15.0129H12.2285V10.0259H14.2035C15.3095 10.0259 15.9055 10.8109 15.9055 11.6299C15.9055 12.4489 15.3095 13.2329 14.2035 13.2329Z"
    fill="#0052C2" />
  <path fill-rule="evenodd" clip-rule="evenodd" d="M18.7744 11.1181V15.0131H17.5484V11.1181H16.3234V10.0261H20.0004V11.1181H18.7744Z"
    fill="#0052C2" />
</svg>
