<?xml version="1.0" encoding="UTF-8"?>
<svg width="870px" height="300px" viewBox="0 0 870 300" version="1.1" xmlns="http://www.w3.org/2000/svg" xmlns:xlink="http://www.w3.org/1999/xlink">
    <!-- Generator: Sketch 50.2 (55047) - http://www.bohemiancoding.com/sketch -->
    <title>170505.02 SPD - Pattern Container</title>
    <desc>Created with Sketch.</desc>
    <defs>
        <path d="M837.594452,177.667969 C818.406032,177.667969 804.90307,192.242187 804.90307,209.304687 C804.90307,227.078906 818.406032,240.586719 837.594452,240.586719 C856.427531,240.586719 869.930494,227.078906 869.930494,209.304687 C869.930494,192.242187 856.427531,177.667969 837.594452,177.667969 Z M308.139318,195.796875 C285.042145,195.796875 264.07702,177.667969 264.07702,149.586719 C264.07702,121.859375 285.042145,103.375 308.139318,103.375 C330.170467,103.375 351.135592,121.859375 351.135592,149.586719 C351.135592,177.667969 330.170467,195.796875 308.139318,195.796875 Z M308.139318,55.7421875 C254.127469,55.7421875 209.353707,93.421875 209.353707,149.586719 C209.353707,206.105469 254.127469,243.785937 308.139318,243.785937 C361.085925,243.785937 405.858905,206.105469 405.858905,149.586719 C405.858905,93.421875 361.085925,55.7421875 308.139318,55.7421875 Z M98.8394973,195.796875 C75.742325,195.796875 54.7771993,177.667969 54.7771993,149.586719 C54.7771993,121.859375 75.742325,103.375 98.8394973,103.375 C120.870646,103.375 141.835772,121.859375 141.835772,149.586719 C141.835772,177.667969 120.870646,195.796875 98.8394973,195.796875 Z M98.8394973,55.7421875 C44.8276481,55.7421875 0.0538868941,93.421875 0.0538868941,149.586719 C0.0538868941,206.105469 44.8276481,243.785937 98.8394973,243.785937 C151.786104,243.785937 196.559084,206.105469 196.559084,149.586719 C196.559084,93.421875 151.786104,55.7421875 98.8394973,55.7421875 Z M739.165745,130.390625 L699.012199,121.859375 C687.640503,119.371094 685.509237,114.394531 685.509237,109.417969 C685.509237,103.019531 690.483232,95.5546875 705.762899,95.5546875 C720.332666,95.5546875 729.926876,102.664062 733.835628,111.195312 L784.294066,95.9101562 C773.278492,70.671875 745.916445,55.0304687 706.473582,55.0304687 C661.34526,55.0304687 629.719901,78.8476562 629.719901,115.460937 C629.719901,143.542969 648.55298,160.960937 681.599704,167.360156 L716.423914,174.46875 C729.926876,176.957812 733.835628,181.578906 733.835628,187.621094 C733.835628,195.442187 725.662783,201.839844 710.737675,201.839844 C696.524031,201.839844 684.443214,196.863281 680.534461,184.422656 L626.52105,203.2625 C637.537406,232.054687 670.228788,244.141406 707.540386,244.141406 C754.444632,244.141406 788.55816,223.523437 788.55816,184.066406 C788.55816,157.7625 772.92237,137.855469 739.165745,130.390625 Z M521.697765,195.796875 C498.600592,195.796875 477.990808,177.313281 477.990808,149.586719 C477.990808,122.215625 498.600592,103.375 521.697765,103.375 C546.571643,103.375 564.69482,122.215625 564.69482,149.586719 C564.69482,177.313281 546.571643,195.796875 521.697765,195.796875 Z M533.424022,55.0304687 C510.326849,55.0304687 491.849111,62.140625 477.990808,74.5820312 L477.990808,60.3632812 L421.135449,60.3632812 L421.135449,299.239062 L477.990808,299.239062 L477.990808,224.590625 C491.849111,237.03125 510.326849,244.141406 533.424022,244.141406 C580.68439,244.141406 620.483375,206.105469 620.483375,149.586719 C620.483375,93.421875 580.68439,55.0304687 533.424022,55.0304687 Z M864.955718,157.40625 L868.509129,11.6640625 L868.509129,0.64375 L805.258411,0.64375 L805.258411,11.6640625 L808.812603,157.40625 L864.955718,157.40625 Z" id="path-1"></path>
        <linearGradient x1="-8.46458546%" y1="45.5812484%" x2="81.3324639%" y2="45.5812484%" id="linearGradient-3">
            <stop stop-color="#0052C2" offset="0%"></stop>
            <stop stop-color="#825DFF" offset="14.5834652%"></stop>
            <stop stop-color="#EF4A81" offset="27.6879446%"></stop>
            <stop stop-color="#E57200" offset="45.5419454%"></stop>
            <stop stop-color="#FFC166" offset="62.5654615%"></stop>
            <stop stop-color="#F9E062" offset="100%"></stop>
        </linearGradient>
    </defs>
    <g id="&gt;-Error-404-Page" stroke="none" stroke-width="1" fill="none" fill-rule="evenodd">
        <g id="Basic-Page-/-XXL-/-Error-oops" transform="translate(-365.000000, -175.000000)">
            <g id="170505.02-SPD---Pattern-Container" transform="translate(365.000000, 175.000000)">
                <mask id="mask-2" fill="white">
                    <use xlink:href="#path-1"></use>
                </mask>
                <g id="Oops"></g>
                <rect id="Gradient-colour" fill="url(#linearGradient-3)" style="mix-blend-mode: overlay;" mask="url(#mask-2)" x="-97.6211849" y="-95.3125" width="1255.01795" height="400"></rect>
            </g>
        </g>
    </g>
</svg>