<?xml version="1.0" encoding="UTF-8"?>
<svg width="927px" height="295px" viewBox="0 0 927 295" version="1.1" xmlns="http://www.w3.org/2000/svg" xmlns:xlink="http://www.w3.org/1999/xlink">
    <!-- Generator: Sketch 50.2 (55047) - http://www.bohemiancoding.com/sketch -->
    <title>sorry!</title>
    <desc>Created with Sketch.</desc>
    <defs>
        <path d="M53.4,181.45 C57.25,193.7 69.15,198.6 83.15,198.6 C97.85,198.6 105.9,192.3 105.9,184.6 C105.9,178.65 102.05,174.1 88.75,171.65 L54.45,164.65 C21.9,158.35 3.35,141.2 3.35,113.55 C3.35,77.5 34.5,54.05 78.95,54.05 C117.8,54.05 144.75,69.45 155.6,94.3 L105.9,109.35 C102.05,100.95 92.6,93.95 78.25,93.95 C63.2,93.95 58.3,101.3 58.3,107.6 C58.3,112.5 60.4,117.4 71.6,119.85 L111.15,128.25 C144.4,135.6 159.8,155.2 159.8,181.1 C159.8,219.95 126.2,240.25 80,240.25 C43.25,240.25 11.05,228.35 0.2,200 L53.4,181.45 Z M264.000002,54.75 C316.150002,54.75 360.250002,91.85 360.250002,147.15 C360.250002,202.8 316.150002,239.9 264.000002,239.9 C210.800002,239.9 166.700002,202.8 166.700002,147.15 C166.700002,91.85 210.800002,54.75 264.000002,54.75 Z M264.000002,192.65 C285.700002,192.65 306.350002,174.8 306.350002,147.15 C306.350002,119.85 285.700002,101.65 264.000002,101.65 C241.250002,101.65 220.600002,119.85 220.600002,147.15 C220.600002,174.8 241.250002,192.65 264.000002,192.65 Z M491.550003,56.85 C496.450003,56.85 499.950003,57.2 504.150003,58.25 L501.700003,114.25 L491.550003,114.25 C452.350003,114.25 431.000003,134.55 431.000003,180.05 L431.000003,235 L375.000003,235 L375.000003,59.3 L431.000003,59.3 L431.000003,92.9 C443.600003,71.9 462.850003,56.85 491.550003,56.85 Z M633.200005,56.85 C638.100005,56.85 641.600005,57.2 645.800005,58.25 L643.350005,114.25 L633.200005,114.25 C594.000005,114.25 572.650005,134.55 572.650005,180.05 L572.650005,235 L516.650005,235 L516.650005,59.3 L572.650005,59.3 L572.650005,92.9 C585.250005,71.9 604.500005,56.85 633.200005,56.85 Z M798.750007,58.95 L858.950007,58.95 L743.450007,294.5 L682.900007,294.5 L724.900007,209.45 L652.450007,58.95 L712.650007,58.95 L755.700007,146.45 L798.750007,58.95 Z M863.100009,0.5 L925.400009,0.5 L925.400009,11.35 L921.900009,154.85 L866.600009,154.85 L863.100009,11.35 L863.100009,0.5 Z M894.950009,174.8 C913.500009,174.8 926.800009,189.15 926.800009,205.95 C926.800009,223.45 913.500009,236.75 894.950009,236.75 C876.050009,236.75 862.750009,223.45 862.750009,205.95 C862.750009,189.15 876.050009,174.8 894.950009,174.8 Z" id="path-1"></path>
        <linearGradient x1="-8.46458546%" y1="45.5812484%" x2="81.3324639%" y2="45.5812484%" id="linearGradient-3">
            <stop stop-color="#0052C2" offset="0%"></stop>
            <stop stop-color="#825DFF" offset="14.5834652%"></stop>
            <stop stop-color="#EF4A81" offset="27.6879446%"></stop>
            <stop stop-color="#E57200" offset="45.5419454%"></stop>
            <stop stop-color="#FFC166" offset="62.5654615%"></stop>
            <stop stop-color="#F9E062" offset="100%"></stop>
        </linearGradient>
    </defs>
    <g id="&gt;-Error-404-Page" stroke="none" stroke-width="1" fill="none" fill-rule="evenodd">
        <g id="Basic-Page-/-XXL-/-Error-sorry" transform="translate(-350.000000, -233.000000)">
            <g id="sorry!" transform="translate(350.000000, 233.000000)">
                <mask id="mask-2" fill="white">
                    <use xlink:href="#path-1"></use>
                </mask>
                <g id="Mask"></g>
                <rect id="Rectangle" fill="url(#linearGradient-3)" mask="url(#mask-2)" x="-77" y="-5" width="1075" height="318"></rect>
            </g>
        </g>
    </g>
</svg>