<?xml version="1.0" encoding="UTF-8"?>
<svg width="45px" height="49px" viewBox="0 0 45 49" version="1.1" xmlns="http://www.w3.org/2000/svg" xmlns:xlink="http://www.w3.org/1999/xlink">
    <!-- Generator: Sketch 50 (54983) - http://www.bohemiancoding.com/sketch -->
    <title>VIC GOV Logo</title>
    <desc>Created with Sketch.</desc>
    <defs>
        <polygon id="path-1" points="0 0 212.532936 0 212.532936 172 0 172"></polygon>
    </defs>
    <g id="Symbols" stroke="none" stroke-width="1" fill="none" fill-rule="evenodd">
        <g id="Footer-Navigation-/-XXL-" transform="translate(-1287.000000, -511.000000)">
            <g id="Your-services">
                <g transform="translate(0.000000, 50.000000)">
                    <g id="Bottom-strip" transform="translate(0.000000, 403.000000)">
                        <g id="VIC-GOV-Logo" transform="translate(1189.000000, 0.000000)">
                            <g id="VIC-GOV-LOGO">
                                <mask id="mask-2" fill="white">
                                    <use xlink:href="#path-1"></use>
                                </mask>
                                <g id="Clip-2"></g>
                                <path d="M128.335501,76.2513237 C126.860704,76.2513237 125.668031,77.4566788 125.668031,78.9173852 C125.668031,80.3780917 126.860704,81.5834468 128.335501,81.5834468 C129.300537,81.5834468 130.151754,81.0582218 130.619136,80.2788556 L132.254975,81.2591143 L142.84615,58.4166667 L98.3370591,58.4166667 L105.380487,73.609466 L108.664272,73.609466 L111.359592,79.4220369 L114.0537,73.609466 L117.34475,73.609466 L112.414229,84.2446676 L110.311008,84.2446676 L120.590999,106.416667 L131.108314,83.7327547 C130.292211,84.2047311 129.345338,84.475815 128.335501,84.475815 C125.157059,84.475815 122.632467,82.0796271 122.632467,78.9173852 C122.632467,75.7551433 125.157059,73.3589554 128.335501,73.3589554 C130.364861,73.3589554 132.137524,74.4505522 133.102559,76.0673739 L130.619136,77.5559148 C130.151754,76.791071 129.300537,76.2513237 128.335501,76.2513237 Z M118.239557,84.2446676 L121.278754,84.2446676 L121.278754,73.609466 L118.239557,73.609466 L118.239557,84.2446676 Z" id="Fill-1" fill="#FFFFFF" mask="url(#mask-2)"></path>
                            </g>
                        </g>
                    </g>
                </g>
            </g>
        </g>
    </g>
</svg>