<?xml version="1.0" encoding="UTF-8"?>
<svg width="76px" height="43px" viewBox="0 0 76 43" version="1.1" xmlns="http://www.w3.org/2000/svg" xmlns:xlink="http://www.w3.org/1999/xlink">
    <!-- Generator: Sketch 50.2 (55047) - http://www.bohemiancoding.com/sketch -->
    <title>VIC GOV FULL LOGO</title>
    <desc>Created with Sketch.</desc>
    <defs></defs>
    <g id="Symbols" stroke="none" stroke-width="1" fill="none" fill-rule="evenodd">
        <g id="VIC-GOV-Logo" transform="translate(0.000000, -6.000000)" fill="#FFFFFF">
            <g id="VIC-GOV-FULL-LOGO" transform="translate(0.000000, 6.000000)">
                <path d="M45.6357351,15.7575 C46.974543,15.7575 48.0798146,16.8445 48.0798146,18.161 C48.0798146,19.4775 46.974543,20.5645 45.6357351,20.5645 C44.2969272,20.5645 43.1916556,19.4775 43.1916556,18.161 C43.1916556,16.8445 44.2969272,15.7575 45.6357351,15.7575 Z M45.6357351,23.1725 C48.5348079,23.1725 50.8616159,21.012 50.8616159,18.161 C50.8616159,15.31 48.5348079,13.15 45.6357351,13.15 C42.7366623,13.15 40.4098543,15.31 40.4098543,18.161 C40.4098543,21.012 42.7366623,23.1725 45.6357351,23.1725 Z" id="Fill-1"></path>
                <path d="M56.603894,17.982 L54.8226755,17.982 L54.8226755,15.719 L56.603894,15.719 C57.2013245,15.719 57.591894,16.384 57.591894,16.857 C57.591894,17.33 57.2013245,17.982 56.603894,17.982 Z M58.6055629,19.7335 C59.5417219,19.0945 60.282596,18.1485 60.282596,16.857 C60.282596,14.85 58.6579073,13.367 56.603894,13.367 L52.1707285,13.367 L52.1707285,22.955 L54.8226755,22.955 L54.8226755,20.347 L56.0708874,20.347 L57.2798411,22.955 L60.2569272,22.955 L58.6055629,19.7335 Z" id="Fill-2"></path>
                <path d="M17.7311523,22.8705 L20.4389669,22.8705 L20.4389669,13.4535 L17.7311523,13.4535 L17.7311523,22.8705 Z M26.7258278,15.793 C25.4116821,15.793 24.3496954,16.8605 24.3496954,18.1535 C24.3496954,19.4465 25.4116821,20.5145 26.7258278,20.5145 C27.5854834,20.5145 28.3434702,20.0495 28.7607152,19.359 L30.2178013,20.2275 L32.3206358,15.7195 L34.520106,15.7195 L34.520106,22.955 L37.172053,22.955 L37.172053,15.7195 L39.8370861,15.7195 L39.8370861,13.367 L33.4178543,13.367 L39.6528742,0 L0,0 L6.27528477,13.4535 L9.20103311,13.4535 L11.6018278,18.6005 L14.0026225,13.4535 L16.9344106,13.4535 L12.5415099,22.8705 L10.6681854,22.8705 L19.8264371,42.5045 L29.1955762,22.418 C28.469298,22.8355 27.6257483,23.076 26.7258278,23.076 C23.894702,23.076 21.645404,20.954 21.645404,18.1535 C21.645404,15.3535 23.894702,13.2315 26.7258278,13.2315 C28.5332185,13.2315 30.1131126,14.1985 30.9722649,15.63 L28.7607152,16.9485 C28.3434702,16.271 27.5854834,15.793 26.7258278,15.793 Z" id="Fill-5"></path>
                <polygon id="Fill-3" points="61.8921854 22.955 64.5441325 22.955 64.5441325 13.367 61.8921854 13.367"></polygon>
                <path d="M69.7030728,19.592 L70.5254834,17.7255 L70.5803444,17.7255 L71.402755,19.592 L69.7030728,19.592 Z M70.055894,13.366 L65.5849801,22.9545 L68.4281854,22.9545 L68.8942517,21.8685 L72.2120795,21.8685 L72.6776424,22.9545 L75.521351,22.9545 L71.0504371,13.366 L70.055894,13.366 Z" id="Fill-4"></path>
            </g>
        </g>
    </g>
</svg>