<svg viewBox="0 0 24 24" width="24" height="24" fill="#fff" xmlns="http://www.w3.org/2000/svg">
<path d="M22.7143 8.79879H21.1513L20.1429 6.21323C19.6134 4.88943 18.1261 4 16.437 4H7.51261C5.82353 4 4.31092 4.88943 3.80672 6.21323L2.79832 8.79879H1.23529C0.554622 8.79879 0 9.25384 0 9.81232V10.3915C0 10.95 0.554622 11.405 1.23529 11.405H1.66387C1.41176 12.3358 1.28571 13.2873 1.28571 14.2388V19.0996C1.28571 19.6581 1.84034 20.1132 2.52101 20.1132H4.58824C5.26891 20.1132 5.82353 19.6581 5.82353 19.0996V17.5483H18.1765V19.0996C18.1765 19.6581 18.7311 20.1132 19.4118 20.1132H21.479C22.1597 20.1132 22.7143 19.6581 22.7143 19.0996V14.2181C22.7143 13.2666 22.5882 12.3151 22.3361 11.3843H22.7647C23.4454 11.3843 24 10.9293 24 10.3708V9.79164C23.9496 9.25384 23.395 8.79879 22.7143 8.79879ZM4.96639 9.83301L6.15126 6.81308C6.35294 6.31666 6.90756 5.9857 7.51261 5.9857H16.437C17.0672 5.9857 17.6218 6.31666 17.7983 6.81308L18.9832 9.83301C19.0336 9.9778 18.9076 10.1019 18.7311 10.1019H5.21849C5.04202 10.1226 4.91597 9.9778 4.96639 9.83301ZM7.53782 14.7766H5.04202C4.61345 14.7766 4.28571 14.5077 4.28571 14.1561V13.1839C4.28571 12.8116 4.71429 12.5013 5.16807 12.5634L7.4874 12.8736C7.78992 12.915 8.04202 13.1011 8.11765 13.3494L8.29412 14.0113C8.39496 14.4043 8.04202 14.7766 7.53782 14.7766ZM19.6387 14.1561C19.6387 14.5077 19.3109 14.7766 18.8824 14.7766H16.3866C15.9076 14.7766 15.5546 14.4043 15.6555 14.0319L15.8319 13.37C15.9076 13.1218 16.1345 12.9357 16.4622 12.8943L18.7815 12.584C19.2353 12.522 19.6639 12.8116 19.6639 13.2046V14.1561H19.6387Z" />
</svg>
