<svg xmlns="http://www.w3.org/2000/svg" width="72" height="88" fill="none"><g filter="url(#a)"><path fill="currentColor" d="M36 77.31a85.21 85.21 0 0 1-.81-.786 127.78 127.78 0 0 1-3.046-3.109c-2.523-2.66-5.886-6.41-9.248-10.778-3.363-4.369-6.717-9.345-9.229-14.454C11.154 43.069 9.5 37.855 9.5 33 9.5 18.644 21.353 6.5 36 6.5S62.5 18.644 62.5 33c0 4.855-1.653 10.069-4.167 15.183-2.512 5.109-5.866 10.085-9.23 14.454-3.361 4.367-6.724 8.119-9.247 10.778a127.78 127.78 0 0 1-3.047 3.109c-.341.336-.615.6-.809.787Zm0-54.935c-5.865 0-10.625 4.76-10.625 10.625S30.135 43.625 36 43.625 46.625 38.865 46.625 33 41.865 22.375 36 22.375Z"/></g><defs><filter id="a" width="88" height="88" x="-8" y="0" color-interpolation-filters="sRGB" filterUnits="userSpaceOnUse"><feFlood flood-opacity="0" result="BackgroundImageFix"/><feColorMatrix in="SourceAlpha" result="hardAlpha" values="0 0 0 0 0 0 0 0 0 0 0 0 0 0 0 0 0 0 127 0"/><feOffset dy="2"/><feGaussianBlur stdDeviation="4"/><feColorMatrix values="0 0 0 0 0.101961 0 0 0 0 0.101961 0 0 0 0 0.101961 0 0 0 0.16 0"/><feBlend in2="BackgroundImageFix" result="effect1_dropShadow_2899_85990"/><feBlend in="SourceGraphic" in2="effect1_dropShadow_2899_85990" result="shape"/></filter></defs></svg>
