<svg width="24" height="24" viewBox="0 0 24 24" fill="currentColor" xmlns="http://www.w3.org/2000/svg">
<path d="M11.9986 5.14577L11.9885 4.34993C11.9841 4.01296 12.2528 3.74401 12.5875 3.7501L19.546 3.83769C19.8826 3.84201 20.1582 4.11795 20.1607 4.45311L20.2499 11.422C20.2543 11.759 19.9856 12.0279 19.6509 12.0218L18.856 12.0116C18.5159 12.0073 18.2384 11.7223 18.2412 11.3819L18.2892 7.16563L14.663 10.7963C14.428 11.0316 14.0449 11.0267 13.8037 10.7852L13.2235 10.2043C12.9824 9.96287 12.9774 9.57929 13.2125 9.34396L16.8386 5.71331L12.6276 5.76137C12.2858 5.76594 12.0012 5.48809 11.9986 5.14577Z" />
<path d="M12.0014 18.8542L12.0115 19.6501C12.0159 19.987 11.7472 20.256 11.4125 20.2499L4.454 20.1623C4.11745 20.158 3.84185 19.882 3.83934 19.5469L3.75005 12.578C3.74573 12.241 4.01435 11.9721 4.34914 11.9782L5.14399 11.9884C5.48412 11.9927 5.76163 12.2777 5.75883 12.6181L5.71083 16.8344L9.33698 13.2037C9.57203 12.9684 9.95513 12.9733 10.1963 13.2148L10.7765 13.7957C11.0176 14.0371 11.0226 14.4207 10.7875 14.656L7.16135 18.2867L11.3724 18.2386C11.7142 18.2341 11.9988 18.5119 12.0014 18.8542Z"/>
</svg>
