<svg width="121" height="22" viewBox="0 0 121 22" fill="none" xmlns="http://www.w3.org/2000/svg">
<path d="M3.96 9.18C5.748 9.18 7.272 8.292 7.272 6.576C7.272 5.304 6.456 4.56 5.064 4.236L3.468 3.864C2.964 3.756 2.832 3.516 2.832 3.192C2.832 2.736 3.252 2.376 3.912 2.376C4.428 2.376 4.956 2.616 5.208 3.156L7.08 2.544C6.6 1.416 5.448 0.779999 3.936 0.779999C2.052 0.779999 0.744 1.752 0.744 3.312C0.744 4.776 1.752 5.388 2.904 5.64L4.512 6C5.088 6.12 5.256 6.348 5.256 6.708C5.256 7.2 4.812 7.536 4.068 7.536C3.324 7.536 2.772 7.224 2.532 6.504L0.552 7.212C0.972 8.484 2.34 9.18 3.96 9.18ZM10.4338 7.296V5.784H14.3338V4.176H10.4338V2.664H14.6818V0.96H8.45381V9H14.7178V7.296H10.4338ZM22.7458 0.96L20.3098 4.476L17.8978 0.96H15.9538V9H17.8738V4.224L19.8658 7.068H20.7778L22.7458 4.224V9H24.6658V0.96H22.7458ZM28.0471 0.96H26.0671V9H28.0471V0.96ZM33.4381 5.04H29.4661V6.66H33.4381V5.04ZM36.8362 0.96H34.8562V9H36.8362V0.96ZM43.9432 0.96V5.76L39.8752 0.96H38.2312V9H40.2112V4.344L44.2792 9H45.9112V0.96H43.9432ZM50.4932 0.96H47.3132V9H50.4932C53.1452 9 54.8972 7.368 54.8972 4.98C54.8972 2.592 53.1452 0.96 50.4932 0.96ZM50.4212 7.284H49.2932V2.676H50.4212C51.9212 2.676 52.9052 3.588 52.9052 4.98C52.9052 6.372 51.9212 7.284 50.4212 7.284ZM57.9885 7.296V5.784H61.8885V4.176H57.9885V2.664H62.2365V0.96H56.0085V9H62.2725V7.296H57.9885ZM67.4685 0.96H63.5085V9H65.4885V6.54H67.3845C69.2445 6.54 70.4205 5.424 70.4205 3.732C70.4205 2.076 69.2805 0.96 67.4685 0.96ZM67.2405 4.884H65.4885V2.652H67.2405C68.0085 2.652 68.4765 3.108 68.4765 3.756C68.4765 4.44 68.0085 4.884 67.2405 4.884ZM73.4573 7.296V5.784H77.3573V4.176H73.4573V2.664H77.7053V0.96H71.4773V9H77.7413V7.296H73.4573ZM84.6893 0.96V5.76L80.6213 0.96H78.9773V9H80.9573V4.344L85.0253 9H86.6573V0.96H84.6893ZM91.2393 0.96H88.0593V9H91.2393C93.8913 9 95.6433 7.368 95.6433 4.98C95.6433 2.592 93.8913 0.96 91.2393 0.96ZM91.1673 7.284H90.0393V2.676H91.1673C92.6673 2.676 93.6513 3.588 93.6513 4.98C93.6513 6.372 92.6673 7.284 91.1673 7.284ZM98.7346 7.296V5.784H102.635V4.176H98.7346V2.664H102.983V0.96H96.7546V9H103.019V7.296H98.7346ZM109.967 0.96V5.76L105.899 0.96H104.255V9H106.235V4.344L110.303 9H111.935V0.96H109.967ZM120.057 0.96H112.881V2.688H115.485V9H117.453V2.688H120.057V0.96ZM9.564 12.96L8.16 18.024L6.78 12.96H4.896L3.516 18.024L2.112 12.96H0.084L2.376 21H4.488L5.844 16.032L7.188 21H9.312L11.604 12.96H9.564ZM14.3479 19.296V17.784H18.2479V16.176H14.3479V14.664H18.5959V12.96H12.3679V21H18.6319V19.296H14.3479ZM25.1479 16.896V16.848C25.6879 16.788 26.4679 16.26 26.4679 15.156C26.4679 13.836 25.5079 12.96 24.0319 12.96H19.8679V21H24.0439C25.7959 21 26.6959 20.076 26.6959 18.744C26.6959 17.532 25.8919 16.956 25.1479 16.896ZM23.6479 14.556C24.1519 14.556 24.5479 14.88 24.5479 15.384C24.5479 15.924 24.1639 16.284 23.5759 16.284H21.8479V14.556H23.6479ZM23.6959 19.404H21.8479V17.64H23.7319C24.2959 17.64 24.6799 17.976 24.6799 18.504C24.6799 19.056 24.3319 19.404 23.6959 19.404ZM31.0772 21.18C32.8652 21.18 34.3892 20.292 34.3892 18.576C34.3892 17.304 33.5732 16.56 32.1812 16.236L30.5852 15.864C30.0812 15.756 29.9492 15.516 29.9492 15.192C29.9492 14.736 30.3692 14.376 31.0292 14.376C31.5452 14.376 32.0732 14.616 32.3252 15.156L34.1972 14.544C33.7172 13.416 32.5652 12.78 31.0532 12.78C29.1692 12.78 27.8612 13.752 27.8612 15.312C27.8612 16.776 28.8692 17.388 30.0212 17.64L31.6292 18C32.2052 18.12 32.3732 18.348 32.3732 18.708C32.3732 19.2 31.9292 19.536 31.1852 19.536C30.4412 19.536 29.8892 19.224 29.6492 18.504L27.6692 19.212C28.0892 20.484 29.4572 21.18 31.0772 21.18ZM37.551 12.96H35.571V21H37.551V12.96ZM45.666 12.96H38.49V14.688H41.094V21H43.062V14.688H45.666V12.96ZM48.5783 19.296V17.784H52.4783V16.176H48.5783V14.664H52.8263V12.96H46.5983V21H52.8623V19.296H48.5783Z" fill="white"/>
</svg>
