<svg width="17" height="22" viewBox="0 0 17 22"  xmlns="http://www.w3.org/2000/svg">
  <path fill-rule="evenodd" clip-rule="evenodd" d="M6.54773 16.3243L5.91592 14.9693C5.68221 14.4681 5.8534 13.8951 6.29891 13.6874C6.74441 13.4796 7.29342 13.7168 7.52713 14.218L8.13401 15.5195C8.51859 16.3442 9.55396 16.6779 10.4425 16.2636C11.3311 15.8492 11.741 14.8416 11.3564 14.0168L8.94709 8.84996C8.56293 8.02613 7.52756 7.69243 6.63898 8.10678C6.19348 8.31452 5.64446 8.07732 5.41075 7.57614C5.17705 7.07495 5.34824 6.50191 5.79374 6.29417C7.57091 5.46546 9.708 6.27515 10.5583 8.09864L12.9926 13.319C13.0027 13.3407 13.0121 13.3629 13.0202 13.3844C13.7847 15.1817 13.0263 17.2655 11.2878 18.0762C9.54928 18.8868 7.46553 18.1284 6.58015 16.3875C6.56882 16.3674 6.55787 16.346 6.54773 16.3243Z"
    transform="translate(2.19272 1.55334)" fill="inherit" />
  <path fill-rule="evenodd" clip-rule="evenodd" d="M2.75894 10.3026L0.324656 5.08224C0.314513 5.06049 0.305176 5.03837 0.297067 5.01677C-0.467463 3.21948 0.290962 1.13573 2.02946 0.325051C3.76796 -0.485625 5.85172 0.2728 6.73709 2.01374C6.74842 2.03383 6.75937 2.05521 6.76951 2.07696L7.40133 3.43189C7.63503 3.93308 7.46384 4.50612 7.01834 4.71386C6.57284 4.9216 6.02382 4.6844 5.79011 4.18321L5.18323 2.88175C4.79907 2.05792 3.76328 1.72331 2.8747 2.13767C1.98611 2.55202 1.57664 3.56056 1.9608 4.3844L4.37015 9.55126C4.75431 10.3751 5.78968 10.7088 6.67826 10.2944C7.12376 10.0867 7.6732 10.3248 7.90649 10.8251C8.1402 11.3263 7.969 11.8993 7.5235 12.1071C5.74633 12.9358 3.60967 12.127 2.75894 10.3026Z"
    transform="translate(2.19272 1.55334)" fill="inherit" />
</svg>
