<?xml version="1.0" encoding="UTF-8"?>
<svg width="14px" height="14px" viewBox="0 0 14 14" version="1.1" xmlns="http://www.w3.org/2000/svg" xmlns:xlink="http://www.w3.org/1999/xlink">
    <!-- Generator: Sketch 57.1 (83088) - https://sketch.com -->
    <title>Shape</title>
    <desc>Created with Sketch.</desc>
    <g id="Pages" stroke="none" stroke-width="1" fill="none" fill-rule="evenodd">
        <g id="The-Premier-(content)" transform="translate(-1296.000000, -2364.000000)" fill="#AF272F" fill-rule="nonzero">
            <g id="Back-to-top" transform="translate(1189.000000, 2347.000000)">
                <path d="M114,17 C117.866935,17 121,20.1330645 121,24 C121,27.8669355 117.866935,31 114,31 C110.133065,31 107,27.8669355 107,24 C107,20.1330645 110.133065,17 114,17 Z M110.815404,25.2130278 L113.864311,25.2130278 L113.864311,27.1676566 C113.864311,27.4626429 114.205998,27.6115145 114.403126,27.4019916 L117.40735,24.2343349 C117.530883,24.1047615 117.530883,23.8979954 117.40735,23.768422 L114.403126,20.5980084 C114.20337,20.3884855 113.864311,20.5373571 113.864311,20.8323434 L113.864311,22.7869722 L110.815404,22.7869722 C110.641932,22.7869722 110.5,22.9358438 110.5,23.117798 L110.5,24.882202 C110.5,25.0641562 110.641932,25.2130278 110.815404,25.2130278 Z" id="Shape" transform="translate(114.000000, 24.000000) rotate(-90.000000) translate(-114.000000, -24.000000) "></path>
            </g>
        </g>
    </g>
</svg>