<svg width="22" height="22" viewBox="0 0 22 22"  xmlns="http://www.w3.org/2000/svg">
  <path fill-rule="evenodd" clip-rule="evenodd" d="M15.5 13H13V15.5C13 16.604 12.104 17.5 11 17.5C9.896 17.5 9 16.604 9 15.5V13H6.5C5.396 13 4.5 12.104 4.5 11C4.5 9.896 5.396 9 6.5 9H9V6.5C9 5.396 9.896 4.5 11 4.5C12.104 4.5 13 5.396 13 6.5V9H15.5C16.604 9 17.5 9.896 17.5 11C17.5 12.104 16.604 13 15.5 13ZM11 0C4.925 0 0 4.925 0 11C0 17.075 4.925 22 11 22C17.075 22 22 17.075 22 11C22 4.925 17.075 0 11 0Z"
    fill="inherit" />
</svg>
