<svg width="22" height="22" viewBox="0 0 22 22"  xmlns="http://www.w3.org/2000/svg">
  <path fill-rule="evenodd" clip-rule="evenodd" d="M13.5602 17.8771C12.0932 18.814 9.9562 18.814 8.4902 17.8771C8.4662 17.8921 8.44121 17.9011 8.41721 17.9161C8.31521 17.9801 8.20621 18.0331 8.09821 18.0881C7.98321 18.1471 7.86619 18.2011 7.74619 18.2491C7.64419 18.2901 7.5432 18.329 7.4382 18.362C7.2652 18.418 7.08821 18.462 6.90921 18.498C6.84621 18.51 6.78721 18.527 6.72321 18.537C6.47121 18.578 6.21521 18.605 5.95621 18.605C5.95121 18.605 5.9472 18.6021 5.9422 18.6021C5.9302 18.6021 5.9192 18.605 5.9082 18.605C4.9922 18.605 4.10619 18.3461 3.37219 17.8771C3.16419 18.0091 2.9432 18.1171 2.7132 18.2121C4.7322 20.527 7.69421 22 10.9992 22C14.3032 22 17.2642 20.529 19.2822 18.216C19.0552 18.1181 18.8352 18.0081 18.6302 17.8771C17.1602 18.814 15.0252 18.814 13.5602 17.8771ZM0 10.9998C0 13.0018 0.545009 14.8738 1.48401 16.4938C1.93601 16.3958 2.358 16.2028 2.668 15.8958C3.056 15.5088 3.68699 15.5088 4.07599 15.8958C4.82999 16.6428 6.22301 16.7538 7.16501 16.3188C7.22301 16.2888 7.284 16.2628 7.34 16.2298C7.4 16.1958 7.454 16.1558 7.508 16.1158C7.605 16.0458 7.702 15.9778 7.785 15.8958C8.175 15.5068 8.80401 15.5068 9.19501 15.8958C10.101 16.7958 11.949 16.7958 12.855 15.8958C13.246 15.5068 13.875 15.5068 14.265 15.8958C15.17 16.7948 17.015 16.7958 17.926 15.8958C18.317 15.5088 18.946 15.5088 19.335 15.8958C19.644 16.2028 20.064 16.3958 20.513 16.4958C21.453 14.8758 22 13.0028 22 10.9998C22 4.93493 17.065 0 11 0C4.934 0 0 4.93493 0 10.9998ZM18.357 11.5788L17 10.4399V12.6988V13.8198V14.0928C16.138 14.2478 15.231 14.1778 14.419 13.8858C14.355 13.8638 14.29 13.8448 14.226 13.8188C13.995 13.7238 13.77 13.6148 13.562 13.4808C13.353 13.6148 13.129 13.7228 12.898 13.8188C12.802 13.8578 12.703 13.8888 12.603 13.9218C11.584 14.2618 10.425 14.2568 9.409 13.9078C9.324 13.8778 9.23702 13.8518 9.15302 13.8178C8.92202 13.7228 8.699 13.6138 8.492 13.4808C8.468 13.4958 8.44201 13.5058 8.41901 13.5198C8.31601 13.5828 8.209 13.6378 8.099 13.6928C8.01 13.7378 7.919 13.7778 7.827 13.8178C7.799 13.8288 7.77401 13.8428 7.74701 13.8538C7.64901 13.8928 7.55099 13.9298 7.45099 13.9618C7.26699 14.0228 7.09001 14.0658 6.91101 14.1018C6.84801 14.1148 6.78901 14.1318 6.72501 14.1418C6.47301 14.1818 6.21701 14.2078 5.95801 14.2078C5.60001 14.2078 5.297 14.1678 5 14.1118V13.8168V12.6988V10.4399L3.642 11.5788L2.35699 10.0469L5.95801 7.0002V5.00023H7.9993L10.357 3.33195C10.728 3.02096 11.271 3.02096 11.642 3.33195L19.642 10.0469L18.357 11.5788Z"
    fill="inherit" />
</svg>
