<svg width="22" height="21" viewBox="0 0 22 21"  xmlns="http://www.w3.org/2000/svg">
  <path fill-rule="evenodd" clip-rule="evenodd" d="M21.998 10.7437C21.998 4.82 17.064 0 10.999 0C4.93499 0 0 4.82 0 10.7437C0 15.2082 2.80501 19.0437 6.78201 20.663C6.12001 19.9813 5.61899 18.9665 5.61899 17.4204C5.61899 15.2004 6.51 13.6542 7.297 12.2908C7.981 11.1021 8.629 9.97893 8.629 8.53928C8.629 7.66611 7.69699 6.65718 7.33899 6.34366C7.18499 6.20887 7.13299 5.99693 7.20499 5.8094C7.27699 5.62188 7.45999 5.49588 7.66599 5.49393H7.70499C8.91799 5.49393 11.334 6.13366 12.074 8.58224C12.287 9.28254 12.267 10.2094 12.247 11.106C12.226 12.0349 12.2 13.1933 12.529 13.5214C12.572 13.5644 12.636 13.6083 12.782 13.6083C12.878 13.6083 13.109 13.4091 13.326 12.8758C13.83 11.6364 13.794 9.93694 13.398 9.57361C13.227 9.41441 13.192 9.15948 13.316 8.96317C13.44 8.76685 13.691 8.68187 13.913 8.76196C14.044 8.80982 17.143 9.97893 16.927 14.9113C16.798 17.8472 15.693 19.8739 14.275 21C18.745 19.6356 21.998 15.5539 21.998 10.7437Z"
    fill="inherit" />
</svg>
