<svg width="40" height="40" viewBox="0 0 40 40" version="1.1" xmlns="http://www.w3.org/2000/svg" xmlns:xlink="http://www.w3.org/1999/xlink">
  <g id="Canvas">
    <g id="hamburger" clip-path="url(#clip0)">
      <g id="icon">
        <path fill-rule="evenodd" clip-rule="evenodd" d="M 0 1C 0 0.447715 0.447715 0 1 0L 9 0C 9.55229 0 10 0.447715 10 1C 10 1.55228 9.55229 2 9 2L 1 2C 0.447715 2 0 1.55228 0 1Z"
          transform="translate(11 12)" fill="inherit" />
        <path fill-rule="evenodd" clip-rule="evenodd" d="M 0 5C 0 4.44772 0.447715 4 1 4L 17 4C 17.5523 4 18 4.44772 18 5C 18 5.55228 17.5523 6 17 6L 1 6C 0.447715 6 0 5.55228 0 5Z"
          transform="translate(11 12)" fill="inherit" />
        <path fill-rule="evenodd" clip-rule="evenodd" d="M 0 9C 0 8.44772 0.447715 8 1 8L 13 8C 13.5523 8 14 8.44772 14 9C 14 9.55228 13.5523 10 13 10L 1 10C 0.447715 10 0 9.55228 0 9Z"
          transform="translate(11 12)" fill="inherit" />
        <path fill-rule="evenodd" clip-rule="evenodd" d="M 0 13C 0 12.4477 0.447715 12 1 12L 17 12C 17.5523 12 18 12.4477 18 13C 18 13.5523 17.5523 14 17 14L 1 14C 0.447715 14 0 13.5523 0 13Z"
          transform="translate(11 12)" fill="inherit" />
      </g>
    </g>
  </g>
  <defs>
    <clipPath id="clip0">
      <rect width="40" height="40" fill="inherit" />
    </clipPath>
  </defs>
</svg>
