<svg width="16" height="17" viewBox="0 0 16 17"  xmlns="http://www.w3.org/2000/svg">
  <path fill-rule="evenodd" clip-rule="evenodd" d="M11.3315 15.1678C12.24 15.1678 13.0976 14.811 13.7462 14.1634C14.3948 13.5157 14.752 12.6594 14.752 11.7522V4.64213C14.752 3.73497 14.3948 2.87864 13.7462 2.23101C13.0976 1.58333 12.24 1.22665 11.3315 1.22665H4.64904C3.74051 1.22665 2.88295 1.58333 2.23431 2.23101C1.58568 2.87864 1.22847 3.73497 1.22847 4.64213V11.7522C1.22847 12.6594 1.58568 13.5157 2.23431 14.1634C2.88295 14.811 3.74051 15.1678 4.64904 15.1678H11.3315ZM11.3315 16.3944H4.64904C2.09206 16.3944 0 14.3054 0 11.7522V4.64213C0 2.08896 2.09206 0 4.64904 0H11.3315C13.8884 0 15.9805 2.08896 15.9805 4.64213V11.7522C15.9805 14.3054 13.8884 16.3944 11.3315 16.3944Z"
    fill="inherit" />
  <path fill-rule="evenodd" clip-rule="evenodd" d="M7.76817 5.29239C6.16932 5.29239 4.87323 6.58851 4.87323 8.18733C4.87323 9.78619 6.16932 11.0823 7.76817 11.0823C9.36699 11.0823 10.6631 9.78619 10.6631 8.18733C10.6631 6.58851 9.36699 5.29239 7.76817 5.29239ZM12.2105 8.18382C12.2105 10.6255 10.2311 12.6049 7.78944 12.6049C5.34775 12.6049 3.36841 10.6255 3.36841 8.18382C3.36841 5.74217 5.34775 3.76279 7.78944 3.76279C10.2311 3.76279 12.2105 5.74217 12.2105 8.18382Z"
    fill="inherit" />
  <path fill-rule="evenodd" clip-rule="evenodd" d="M13.4737 3.55227C13.4737 4.1336 13.0024 4.6049 12.4211 4.6049C11.8397 4.6049 11.3684 4.1336 11.3684 3.55227C11.3684 2.97094 11.8397 2.49963 12.4211 2.49963C13.0024 2.49963 13.4737 2.97094 13.4737 3.55227Z"
    fill="inherit" />
</svg>
