<?xml version="1.0" encoding="UTF-8"?>
<svg width="14px" height="14px" viewBox="0 0 14 14" version="1.1" xmlns="http://www.w3.org/2000/svg" xmlns:xlink="http://www.w3.org/1999/xlink">
    <!-- Generator: Sketch 50.2 (55047) - http://www.bohemiancoding.com/sketch -->
    <title>linkedin-in</title>
    <desc>Created with Sketch.</desc>
    <defs>
        <path d="M3.13367552,47.6111111 L0.231198393,47.6111111 L0.231198393,38.5238715 L3.13367552,38.5238715 L3.13367552,47.6111111 Z M1.6808748,37.2842882 C0.752956929,37.2842882 0,36.5368924 0,35.6345486 C0,34.7322049 0.752956929,34 1.6808748,34 C2.60879268,34 3.36174961,34.7322049 3.36174961,35.6345486 C3.36174961,36.5368924 2.60879268,37.2842882 1.6808748,37.2842882 Z M13.9968757,47.6111111 L11.1006472,47.6111111 L11.1006472,43.1875 C11.1006472,42.1332465 11.0787771,40.78125 9.59160902,40.78125 C8.08257085,40.78125 7.85137246,41.9266493 7.85137246,43.1115451 L7.85137246,47.6111111 L4.95201964,47.6111111 L4.95201964,38.5238715 L7.73577326,38.5238715 L7.73577326,39.7634549 L7.7763892,39.7634549 C8.16380272,39.0494792 9.11046641,38.2960069 10.5226512,38.2960069 C13.4594956,38.2960069 14,40.1766493 14,42.6193576 L14,47.6111111 L13.9968757,47.6111111 Z" id="path-1"></path>
    </defs>
    <g id="Symbols" stroke="none" stroke-width="1" fill="none" fill-rule="evenodd">
        <g id="Share-this-page" transform="translate(-2.000000, -130.000000)">
            <g transform="translate(-22.000000, -2.000000)" id="Facebook">
                <g transform="translate(24.000000, 98.000000)">
                    <mask id="mask-2" fill="white">
                        <use xlink:href="#path-1"></use>
                    </mask>
                    <use id="linkedin-in" fill="#0052C2" fill-rule="nonzero" xlink:href="#path-1"></use>
                </g>
            </g>
        </g>
    </g>
</svg>