<svg width="40" height="40" viewBox="0 0 40 40" version="1.1" xmlns="http://www.w3.org/2000/svg" xmlns:xlink="http://www.w3.org/1999/xlink">
  <g id="Canvas">
    <g id="search" clip-path="url(#clip0)">
      <g id="icon">
        <path fill-rule="evenodd" clip-rule="evenodd" d="M 10.9895 9.24258C 12.587 6.79233 12.2144 3.42261 9.85748 1.40991C 7.58966 -0.526184 4.13776 -0.45993 1.94049 1.55707C -0.581665 3.87222 -0.645325 7.81287 1.75031 10.2102C 3.79315 12.2547 6.95502 12.503 9.2771 10.967C 9.30811 10.9465 9.37885 10.8841 9.47473 10.7944L 13.8181 14.9887C 14.192 15.3498 14.7879 15.3394 15.1489 14.9655C 15.51 14.5916 15.4996 13.9958 15.1257 13.6347L 10.8018 9.45914C 10.8997 9.35345 10.9681 9.27545 10.9895 9.24258ZM 2.96704 8.99216C 1.3045 7.3284 1.3045 4.62128 2.96704 2.95752C 4.62952 1.29376 7.33447 1.29334 8.99695 2.95752C 10.6594 4.62128 10.6594 7.3284 8.99695 8.99216C 7.33447 10.6559 4.62952 10.6559 2.96704 8.99216Z"
          transform="translate(12 12)" fill="inherit" />
      </g>
    </g>
  </g>
  <defs>
    <clipPath id="clip0">
      <rect width="40" height="40" fill="inherit" />
    </clipPath>
  </defs>
</svg>
