<svg width="24" height="24" viewBox="0 0 24 24" xmlns="http://www.w3.org/2000/svg">
  <path fill-rule="evenodd" clip-rule="evenodd" fill="inherit" d="M12,24 C5.372583,24 0,18.627417 0,12 C0,5.372583 5.372583,0 12,0 C18.627417,0 24,5.372583 24,12 C24,18.627417 18.627417,24 12,24 Z M14.5998965,7.23766591 L10.107,14.4262363 L8.17880539,12.4980589 C7.5659916,11.8852506 6.57242413,11.8852506 5.95961034,12.4980589 C5.34679655,13.1108673 5.34679655,14.1044259 5.95961034,14.7172342 L9.28262568,18.04022 C9.99619126,18.7537792 11.1880688,18.6180398 11.7229088,17.7623034 L17.2612677,8.90100811 C17.7205911,8.16609728 17.497178,7.19798251 16.7622606,6.73866325 C16.0273432,6.27934398 15.0592198,6.50275509 14.5998965,7.23766591 Z" id="Combined-Shape"></path>
</svg>
