<svg width="12" height="12" viewBox="0 0 12 12" overflow="visible" xmlns="http://www.w3.org/2000/svg">
  <path d="M5.31333 8.94971C4.42875 8.78014 3.72365 8.2614 3.5 7.48831L4.90065 7.0557C5.0749 7.58912 5.47747 7.82879 6.01823 7.82879C6.55833 7.82879 6.86944 7.58044 6.86944 7.24864C6.86944 6.99094 6.75061 6.81602 6.33869 6.73324L5.19373 6.47487C4.3699 6.28193 3.64687 5.84865 3.64687 4.79917C3.64687 3.85984 4.3039 3.2216 5.31333 3.04134V2.434C5.31333 2.18783 5.47126 2 5.75719 2C5.85597 2 6.10584 2 6.23953 2C6.48691 2 6.64512 2.18563 6.64667 2.434V3.06538C7.40174 3.25164 7.97434 3.72231 8.19665 4.39392L6.86944 4.74442C6.68651 4.29245 6.28328 4.13623 5.90808 4.13623C5.44142 4.13623 5.13899 4.38525 5.13899 4.71638C5.13899 4.94671 5.2398 5.12162 5.58762 5.20441L6.74126 5.4621C7.72999 5.70178 8.30681 6.22652 8.30681 7.14716C8.30681 8.1399 7.59513 8.7521 6.64512 8.94103V9.5313C6.64512 9.7745 6.5417 10 6.23953 10C6.10378 10 5.88475 10 5.75719 10C5.38733 10 5.31333 9.70044 5.31333 9.5313V8.94971ZM6 0C2.69127 0 0 2.69182 0 6C0 9.30818 2.69127 12 6 12C9.30818 12 12 9.30818 12 6C12 2.69182 9.30818 0 6 0Z"
    fill="inherit" />
</svg>
