<svg width="10" height="19" viewBox="0 0 10 19" overflow="visible" xmlns="http://www.w3.org/2000/svg">
  <path fill-rule="evenodd" clip-rule="evenodd" d="M9 7.0108C8.447 7.0108 8 7.4578 8 8.0108V9.9898C8 11.6448 6.654 12.9898 5 12.9898C3.346 12.9898 2 11.6448 2 9.9898V8.0108C2 7.4578 1.553 7.0108 1 7.0108C0.447 7.0108 0 7.4578 0 8.0108V10.0788C0 10.1038 0.001 10.1268 0.003 10.1518C0.088 12.8338 2.297 14.9898 5 14.9898C7.703 14.9898 9.912 12.8338 9.997 10.1518C9.999 10.1268 10 10.1038 10 10.0788V8.0108C10 7.4578 9.553 7.0108 9 7.0108Z"
    transform="translate(0 0.999496)" fill="inherit" />
  <path fill-rule="evenodd" clip-rule="evenodd" d="M3 2.002V9.999C3 11.104 3.897 12 5.002 12C6.107 12 7.003 11.104 7.003 9.999V2.002C7.003 0.896 6.107 0 5.002 0C3.897 0 3 0.896 3 2.002Z"
    transform="translate(0 0.999496)" fill="inherit" />
  <path fill-rule="evenodd" clip-rule="evenodd" d="M6 16.9795C6 17.5325 5.553 17.9795 5 17.9795C4.447 17.9795 4 17.5325 4 16.9795C4 16.4265 4.447 15.9795 5 15.9795C5.553 15.9795 6 16.4265 6 16.9795Z"
    transform="translate(0 0.999496)" fill="inherit" />
</svg>
