<svg width="14" height="18" viewBox="0 0 14 18" overflow="visible" xmlns="http://www.w3.org/2000/svg">
  <path d="M8.98491 16L9.894 7H2.1062L3.01529 16H8.98491ZM9.88899 18H2.11121C1.59784 18 1.16787 17.6113 1.11627 17.1005L0.00516207 6.1005C-0.0543353 5.51148 0.408078 5 1.0001 5H11.0001C11.5921 5 12.0545 5.51148 11.995 6.1005L10.8839 17.1005C10.8323 17.6113 10.4024 18 9.88899 18Z"
    transform="translate(0.999893)" fill="inherit" />
  <path fill-rule="evenodd" clip-rule="evenodd" d="M11.0001 1.98944H7.00011V1.00528C7.00011 0.449359 6.55311 0 6.00011 0C5.44711 0 5.00011 0.449359 5.00011 1.00528V1.98944H1.00011C0.447107 1.98944 0.000106811 2.4388 0.000106811 2.99472C0.000106811 3.55064 0.447107 4 1.00011 4H11.0001C11.5531 4 12.0001 3.55064 12.0001 2.99472C12.0001 2.4388 11.5531 1.98944 11.0001 1.98944Z"
    transform="translate(0.999893)" fill="inherit" />
</svg>
