<svg overflow="visible" xmlns="http://www.w3.org/2000/svg" width="20" height="20" viewBox="0 0 20 20">
    <g fill-rule="evenodd">
        <path d="M10 5.002V2.826l2.176 2.176H10zM13 3l-.997-.997-2-2H1a1 1 0 0 0-1 1v18a1 1 0 0 0 1 1h13a1 1 0 0 0 1-1v-3h-2v2H2v-16h6v4a1 1 0 0 0 1 1h4v2h2V5l-2-2z"/>
        <path d="M9.3 15.015v-.952l1.913-2.943H9.385v-1.09h3.299v.951l-1.92 2.941h1.92v1.093zM13.396 15.015h1.226v-4.986h-1.226zM17.548 11.128h-.693v1.008h.693c.336 0 .532-.245.532-.504s-.196-.504-.532-.504m.056 2.107h-.75v1.78H15.63v-4.987h1.975c1.106 0 1.702.785 1.702 1.604 0 .82-.596 1.603-1.702 1.603"/>
    </g>
</svg>
