<svg width="12" height="9" viewBox="0 0 12 9" overflow="visible" xmlns="http://www.w3.org/2000/svg">
  <path d="M10.1373 5L11.843 6.70574C12.0523 6.91523 12.0523 7.2546 11.843 7.46392L11.4639 7.84301C11.2546 8.05233 10.9151 8.05233 10.7057 7.84301L9 6.13727L7.29426 7.84301C7.08494 8.05233 6.7454 8.05233 6.53608 7.84301L6.15699 7.46392C5.94767 7.25443 5.94767 6.91506 6.15699 6.70574L7.86273 5L6.15699 3.29426C5.94767 3.08477 5.94767 2.7454 6.15699 2.53608L6.53608 2.15699C6.74557 1.94767 7.08494 1.94767 7.29426 2.15699L9 3.86273L10.7057 2.15699C10.9152 1.94767 11.2546 1.94767 11.4639 2.15699L11.843 2.53608C12.0523 2.74557 12.0523 3.08494 11.843 3.29426L10.1373 5ZM2.04 7.81843C1.04484 7.62766 0.251606 7.04408 0 6.17435L1.57573 5.68766C1.77176 6.28776 2.22465 6.55739 2.83301 6.55739C3.44062 6.55739 3.79062 6.27799 3.79062 5.90472C3.79062 5.6148 3.65693 5.41803 3.19352 5.32489L1.90545 5.03423C0.978636 4.81717 0.165234 4.32973 0.165234 3.14906C0.165234 2.09231 0.904391 1.3743 2.04 1.17151V0.488251C2.04 0.211304 2.21767 0 2.53934 0C2.65046 0 2.93157 0 3.08197 0C3.36027 0 3.53826 0.208832 3.54 0.488251V1.19855C4.38945 1.4081 5.03363 1.9376 5.28374 2.69317L3.79062 3.08747C3.58483 2.579 3.13119 2.40325 2.70909 2.40325C2.18409 2.40325 1.84386 2.6834 1.84386 3.05593C1.84386 3.31505 1.95727 3.51183 2.34858 3.60496L3.64642 3.89487C4.75874 4.1645 5.40766 4.75484 5.40766 5.79055C5.40766 6.90739 4.60703 7.59611 3.53826 7.80866V8.47271C3.53826 8.74631 3.42191 9 3.08197 9C2.92925 9 2.68284 9 2.53934 9C2.12325 9 2.04 8.66299 2.04 8.47271V7.81843Z"
    fill="inherit" />
</svg>
