<svg width="20" height="20" viewBox="0 0 20 20" overflow="visible" xmlns="http://www.w3.org/2000/svg">
  <path fill-rule="evenodd" clip-rule="evenodd" d="M1 11C0.448 11 0 10.553 0 10C0 9.447 0.448 9 1 9H6C6.552 9 7 9.447 7 10C7 10.553 6.552 11 6 11H1Z"
    fill="inherit" />
  <path fill-rule="evenodd" clip-rule="evenodd" d="M14 11C13.448 11 13 10.553 13 10C13 9.447 13.448 9 14 9H19C19.552 9 20 9.447 20 10C20 10.553 19.552 11 19 11H14Z"
    fill="inherit" />
  <path fill-rule="evenodd" clip-rule="evenodd" d="M11 6C11 6.552 10.553 7 10 7C9.447 7 9 6.552 9 6V1C9 0.448 9.447 0 10 0C10.553 0 11 0.448 11 1V6Z"
    fill="inherit" />
  <path fill-rule="evenodd" clip-rule="evenodd" d="M11 19C11 19.552 10.553 20 10 20C9.447 20 9 19.552 9 19V14C9 13.448 9.447 13 10 13C10.553 13 11 13.448 11 14V19Z"
    fill="inherit" />
  <path fill-rule="evenodd" clip-rule="evenodd" d="M4.34312 17.0711C3.9528 17.4614 3.31994 17.4621 2.92891 17.0711C2.53788 16.68 2.53859 16.0472 2.92891 15.6568L6.46444 12.1213C6.85477 11.731 7.48763 11.7303 7.87866 12.1213C8.26969 12.5123 8.26898 13.1452 7.87866 13.5355L4.34312 17.0711Z"
    fill="inherit" />
  <path fill-rule="evenodd" clip-rule="evenodd" d="M13.5355 7.87868C13.1452 8.269 12.5123 8.26971 12.1213 7.87868C11.7303 7.48765 11.731 6.85479 12.1213 6.46447L15.6568 2.92893C16.0472 2.53861 16.68 2.5379 17.0711 2.92893C17.4621 3.31996 17.4614 3.95282 17.0711 4.34315L13.5355 7.87868Z"
    fill="inherit" />
  <path fill-rule="evenodd" clip-rule="evenodd" d="M7.87868 6.46447C8.269 6.85479 8.26971 7.48765 7.87868 7.87868C7.48765 8.26971 6.85479 8.269 6.46447 7.87868L2.92893 4.34315C2.53861 3.95282 2.5379 3.31996 2.92893 2.92893C3.31996 2.5379 3.95282 2.53861 4.34315 2.92893L7.87868 6.46447Z"
    fill="inherit" />
  <path fill-rule="evenodd" clip-rule="evenodd" d="M17.0711 15.6568C17.4614 16.0472 17.4621 16.68 17.0711 17.0711C16.68 17.4621 16.0472 17.4614 15.6568 17.0711L12.1213 13.5355C11.731 13.1452 11.7303 12.5123 12.1213 12.1213C12.5123 11.7303 13.1452 11.731 13.5355 12.1213L17.0711 15.6568Z"
    fill="inherit" />
</svg>
