<?xml version="1.0" encoding="UTF-8"?>
<svg width="16px" height="12px" viewBox="0 0 16 12" version="1.1" xmlns="http://www.w3.org/2000/svg" xmlns:xlink="http://www.w3.org/1999/xlink">
    <!-- Generator: Sketch 63.1 (92452) - https://sketch.com -->
    <title>Group 2</title>
    <desc>Created with Sketch.</desc>
    <g id="-----⌙-Icons" stroke="none" stroke-width="1" fill="none" fill-rule="evenodd">
        <g id="Icons" transform="translate(-162.000000, -958.000000)">
            <g id="Functional-Icons" transform="translate(120.000000, 564.000000)">
                <g id="Row-3" transform="translate(0.000000, 150.000000)">
                    <g id="Icon-/-Youtube-play">
                        <g id="Colour-/-Primary" transform="translate(0.000000, 0.150000)">
                            <g id="Group" transform="translate(42.000000, 243.850000)">
                                <g id="Group-2" transform="translate(-0.000000, 0.000000)">
                                    <path d="M14.9535273,1.6395 C14.7778909,0.9945 14.2601455,0.486 13.6034182,0.3135 C12.4121455,0 7.63636364,0 7.63636364,0 C7.63636364,0 2.86058182,0 1.66930909,0.3135 C1.01258182,0.486 0.494836364,0.9945 0.3192,1.6395 C-1.15463195e-14,2.8095 -1.15463195e-14,6 -1.15463195e-14,6 C-1.15463195e-14,6 -1.15463195e-14,9.1905 0.3192,10.3605 C0.494836364,11.0055 1.01258182,11.514 1.66930909,11.6865 C2.86058182,12 7.63636364,12 7.63636364,12 C7.63636364,12 12.4121455,12 13.6034182,11.6865 C14.2609091,11.514 14.7778909,11.0055 14.9535273,10.3605 C15.2727273,9.1905 15.2727273,6 15.2727273,6 C15.2727273,6 15.2727273,2.8095 14.9535273,1.6395 Z" id="Shape-Copy" fill="#0052C2"></path>
                                    <polygon id="Path-Copy" fill="#FFFFFF" points="6.54545455 8.72727273 6.54545455 3.27272727 10.9090909 6"></polygon>
                                </g>
                            </g>
                        </g>
                    </g>
                </g>
            </g>
        </g>
    </g>
</svg>