<svg width="58" height="40" viewBox="0 0 58 40" fill="none" xmlns="http://www.w3.org/2000/svg">
  <g>
    <path d="M57.5714 0H0.142822V6.93329H57.5714V0Z" fill="#009966"/>
    <path d="M57.5714 33.0667H0.142822V40H57.5714V33.0667Z" fill="#009966"/>
    <path d="M57.5714 8.93332H0.142822V31.0667H57.5714V8.93332Z" fill="#000099"/>
    <path d="M57.5714 6.93329H0.142822V8.93331H57.5714V6.93329Z" fill="black"/>
    <path d="M0.142864 33.0669L57.5714 33.0669V31.0669L0.142864 31.0669V33.0669Z" fill="black"/>
    <path
      d="M28.8574 22.6009L26.4941 24.3987L27.3914 21.4824L25.0337 19.6766L27.9513 19.6724L28.8574 16.7589L29.763 19.6724L32.6806 19.6766L30.3229 21.4824L31.2202 24.3987L28.8574 22.6009Z"
      fill="white"/>
    <path
      d="M36.1016 26.9072C36.1272 26.8413 36.1492 26.7788 36.1762 26.7181C36.5089 25.9777 36.8168 25.2275 37.0842 24.4598C37.4953 23.2787 37.8139 22.0741 37.9973 20.8351C38.0799 20.2763 38.1247 19.7128 38.1298 19.1489C38.141 17.8883 37.96 16.6601 37.4911 15.4828C36.9769 14.1925 36.2714 13.2052 35.2342 12.2969C34.4167 11.581 33.5036 11.0152 32.5294 10.5457C31.7437 10.1671 30.7391 9.73153 29.8423 9.49963L28.8578 13.7523L27.8733 9.49963C26.9766 9.73153 25.972 10.1671 25.1863 10.5457C24.212 11.0152 23.2989 11.581 22.4815 12.2969C21.4443 13.2052 20.7383 14.1921 20.2246 15.4828C19.7557 16.6601 19.5742 17.8887 19.5859 19.1489C19.591 19.7128 19.6358 20.2763 19.7184 20.8351C19.9013 22.0746 20.2199 23.2792 20.6315 24.4598C20.8988 25.227 21.2068 25.9772 21.5394 26.7181C21.5665 26.7783 21.5884 26.8413 21.6141 26.9072C21.5614 26.9622 17.8278 30.5107 17.8278 30.5107L24.6852 27.9754L24.6875 18.8248C24.6875 18.8248 24.7183 18.7481 24.7864 18.6521C25.1751 18.1023 25.6281 17.6159 26.1778 17.2269C26.8809 16.7293 27.6386 16.4277 28.4617 16.3605C28.5923 16.3497 28.7249 16.345 28.8588 16.3464C28.9927 16.345 29.1252 16.3501 29.2558 16.3605C30.0789 16.4277 30.8366 16.7293 31.5398 17.2269C32.0889 17.6159 32.542 18.1023 32.9311 18.6521C32.9992 18.7481 33.03 18.8248 33.03 18.8248L33.0324 27.9754L39.8898 30.5107C39.8898 30.5107 36.1543 26.9627 36.1016 26.9072Z"
      fill="white"/>
  </g>
  <rect x="0.642822" y="0.5" width="56.4286" height="39" stroke="white"/>
</svg>
