<svg width="200" height="140" viewBox="0 0 200 140" fill="none" xmlns="http://www.w3.org/2000/svg">
  <path d="M201 0H0V24.2665H201V0Z" fill="#009966"/>
  <path d="M201 115.733H-1.52588e-05V140H201V115.733Z" fill="#009966"/>
  <path d="M201 31.2666H-1.52588e-05V108.733H201V31.2666Z" fill="#000099"/>
  <path d="M201 24.2665H-1.52588e-05V31.2666H201V24.2665Z" fill="black"/>
  <path d="M7.62939e-05 115.734L201 115.734V108.734L7.62939e-05 108.734V115.734Z" fill="black"/>
  <path d="M100.501 79.1032L92.2294 85.3954L95.3698 75.1883L87.118 68.8682L97.3294 68.8533L100.501 58.6561L103.671 68.8533L113.882 68.8682L105.63 75.1883L108.771 85.3954L100.501 79.1032Z" fill="white"/>
  <path d="M125.855 94.1751C125.945 93.9447 126.022 93.7257 126.117 93.5133C127.281 90.922 128.359 88.2962 129.295 85.6094C130.733 81.4756 131.849 77.2594 132.491 72.923C132.78 70.9672 132.936 68.9949 132.954 67.021C132.994 62.6089 132.36 58.3104 130.719 54.1897C128.919 49.6739 126.45 46.2183 122.82 43.0393C119.959 40.5336 116.763 38.5531 113.353 36.9101C110.603 35.5848 107.087 34.0604 103.948 33.2487L100.502 48.133L97.0567 33.2487C93.918 34.0604 90.402 35.5848 87.6519 36.9101C84.2421 38.5531 81.0463 40.5336 78.1852 43.0393C74.5549 46.2183 72.0841 49.6723 70.2861 54.1897C68.6449 58.3104 68.0097 62.6106 68.0505 67.021C68.0684 68.9949 68.2252 70.9672 68.5143 72.923C69.1544 77.261 70.2698 81.4772 71.7101 85.6094C72.6459 88.2945 73.7237 90.9204 74.888 93.5133C74.9828 93.7241 75.0595 93.9447 75.1493 94.1751C74.9648 94.3678 61.8971 106.787 61.8971 106.787L85.8981 97.9139L85.9062 65.8867C85.9062 65.8867 86.014 65.6184 86.2524 65.2825C87.6127 63.358 89.1984 61.6557 91.1222 60.2942C93.5832 58.5524 96.2352 57.4971 99.1159 57.2617C99.5732 57.2239 100.037 57.2074 100.506 57.2123C100.974 57.2074 101.438 57.2255 101.895 57.2617C104.776 57.4971 107.428 58.5524 109.889 60.2942C111.811 61.6557 113.397 63.358 114.759 65.2825C114.997 65.6184 115.105 65.8867 115.105 65.8867L115.113 97.9139L139.114 106.787C139.114 106.787 126.04 94.3694 125.855 94.1751Z" fill="white"/>
</svg>
