<svg id="Layer_1" data-name="Layer 1" xmlns="http://www.w3.org/2000/svg" viewBox="0 0 96.38 11.97"><defs><style>.cls-1{fill:#fff;fill-rule:evenodd;}</style></defs><title>Vic.gov.au Logo-White</title><path class="cls-1" d="M447.39,266.37v7.12c0,3-1.87,4.6-4.88,4.6s-4.84-1.6-4.84-4.6v-7.12h3.15v7.26a1.7,1.7,0,1,0,3.4,0v-7.26ZM430.26,274h2l-.91-2.48h-.15Zm1.63-7.63,5.25,11.46h-3.36l-.57-1.31h-3.94l-.57,1.31h-3.36l5.25-11.46ZM422.38,278a1.48,1.48,0,0,1,0-2.95,1.48,1.48,0,1,1,0,2.95Zm-6.72-.12-5.18-11.46h3.45l2.88,6.25,2.87-6.25h3.45L418,277.83Zm-14.1-5.73a3,3,0,1,0,3-3A3,3,0,0,0,401.56,272.1Zm9.29,0a6.3,6.3,0,1,1-6.29-6A6.14,6.14,0,0,1,410.85,272.1Zm-19.18,1.38v-2.66h5.15v4.57a6.27,6.27,0,0,1-5.3,2.7,6,6,0,1,1,0-12,6.38,6.38,0,0,1,4.76,2L394,270.07a3,3,0,0,0-2.29-1,3,3,0,0,0,0,6.05,3.19,3.19,0,0,0,2.15-.69v-1ZM383.22,278a1.48,1.48,0,0,1,0-2.95,1.48,1.48,0,1,1,0,2.95Zm-8.09-11.84a6.28,6.28,0,0,1,5.29,2.71l-2.57,1.59a3,3,0,0,0-2.57-1.33,3,3,0,0,0,0,6.05,3,3,0,0,0,2.57-1.33l2.57,1.59a6.27,6.27,0,0,1-5.29,2.7,6,6,0,1,1,0-12Zm-10.62,11.72V266.37h3.09v11.46Zm-8.33,0L351,266.37h3.45l2.87,6.25,2.88-6.25h3.45l-5.17,11.46Z" transform="translate(-351.01 -266.11)"/></svg>