<?xml version="1.0" encoding="UTF-8"?>
<svg xmlns="http://www.w3.org/2000/svg" xmlns:xlink="http://www.w3.org/1999/xlink" width="14px" height="14ptx" viewBox="0 0 14 14" version="1.1">
<g id="surface1">
<path d="M 14 1.539062 L 14 12.601562 C 14 13.300781 13.300781 14 12.460938 14 L 1.539062 14 C 0.699219 14 0 13.300781 0 12.460938 L 0 1.539062 C 0 0.699219 0.699219 0 1.539062 0 L 12.601562 0 C 13.300781 0 14 0.699219 14 1.539062 Z M 11.199219 1.960938 L 7.699219 1.960938 C 7.140625 1.960938 6.71875 2.800781 7.28125 3.21875 L 8.261719 4.199219 L 2.101562 10.359375 C 1.960938 10.5 1.960938 10.78125 2.101562 10.921875 L 3.078125 11.898438 C 3.21875 12.039062 3.5 12.039062 3.640625 11.898438 L 9.800781 5.738281 L 10.78125 6.71875 C 11.199219 7.28125 12.039062 6.859375 12.039062 6.300781 L 12.039062 2.800781 C 12.039062 2.378906 11.621094 1.960938 11.199219 1.960938 Z M 11.199219 1.960938 "/>
</g>
</svg>
