<?xml version="1.0" encoding="UTF-8"?>
<svg width="16px" height="17px" viewBox="0 0 16 17" version="1.1" xmlns="http://www.w3.org/2000/svg" xmlns:xlink="http://www.w3.org/1999/xlink">
    <!-- Generator: Sketch 50.2 (55047) - http://www.bohemiancoding.com/sketch -->
    <title>Instagram Icon</title>
    <desc>Created with Sketch.</desc>
    <defs>
        <polygon id="path-1" points="0 0.0273643868 15.9804608 0.0273643868 15.9804608 16.8396226 0 16.8396226"></polygon>
    </defs>
    <g id="Symbols" stroke="none" stroke-width="1" fill="none" fill-rule="evenodd">
        <g id="Share-this-page" transform="translate(0.000000, -100.000000)">
            <g id="Instagram-Icon" transform="translate(0.000000, 100.000000)">
                <g id="Group-3">
                    <mask id="mask-2" fill="white">
                        <use xlink:href="#path-1"></use>
                    </mask>
                    <g id="Clip-2"></g>
                    <path d="M11.3314844,16.8396297 L4.64903469,16.8396297 C2.09204968,16.8396297 -1.02783726e-05,14.6973841 -1.02783726e-05,12.0791736 L-1.02783726e-05,4.78782748 C-1.02783726e-05,2.16954682 2.09204968,0.0273363208 4.64903469,0.0273363208 L11.3314844,0.0273363208 C13.8884351,0.0273363208 15.9804608,2.16954682 15.9804608,4.78782748 L15.9804608,12.0791736 C15.9804608,14.6973841 13.8884351,16.8396297 11.3314844,16.8396297 L6,12.0791736 L11.3314844,16.8396297 Z M13.5,3.5 C13.5,2.94773617 13.0522894,2.5 12.5000164,2.5 C11.9477106,2.5 11.5,2.94773617 11.5,3.5 C11.5,4.05226383 11.9477106,4.5 12.5000164,4.5 C13.0522894,4.5 13.5,4.05226383 13.5,3.5 Z" id="Combined-Shape" fill="#0052C2" mask="url(#mask-2)"></path>
                </g>
                <path d="M7.9759227,5.72990607 C6.16769243,5.72990607 4.70187752,7.1957599 4.70187752,9.00395125 C4.70187752,10.8121815 6.16769243,12.2780354 7.9759227,12.2780354 C9.78411405,12.2780354 11.2499679,10.8121815 11.2499679,9.00395125 C11.2499679,7.1957599 9.78411405,5.72990607 7.9759227,5.72990607 M13,8.99998054 C13,11.7614148 10.7614148,14 7.99998054,14 C5.23854625,14 3,11.7614148 3,8.99998054 C3,6.23858518 5.23854625,4 7.99998054,4 C10.7614148,4 13,6.23858518 13,8.99998054" id="Fill-4" fill="#FEFEFE"></path>
            </g>
        </g>
    </g>
</svg>