<svg width="20" height="20" viewBox="0 0 20 20" xmlns="http://www.w3.org/2000/svg">
  <path d="M10 3.746C9.88046 3.74587 9.76207 3.76932 9.6516 3.815C9.54114 3.86069 9.44077 3.92771 9.35624 4.01224C9.27171 4.09677 9.20469 4.19714 9.159 4.3076C9.11332 4.41807 9.08987 4.53646 9.09 4.656V7.383C9.09 7.62435 9.18587 7.85581 9.35653 8.02647C9.52719 8.19713 9.75865 8.293 10 8.293C10.2413 8.293 10.4728 8.19713 10.6435 8.02647C10.8141 7.85581 10.91 7.62435 10.91 7.383V4.655C10.91 4.53554 10.8865 4.41726 10.8407 4.30691C10.795 4.19656 10.7279 4.09631 10.6434 4.01189C10.5589 3.92746 10.4586 3.86053 10.3482 3.81491C10.2378 3.76928 10.1195 3.74587 10 3.746V3.746ZM10 11.928C9.88042 11.9277 9.76197 11.9511 9.65145 11.9967C9.54092 12.0424 9.4405 12.1094 9.35594 12.1939C9.27139 12.2785 9.20437 12.3789 9.15873 12.4894C9.11309 12.6 9.08974 12.7184 9.09 12.838V16.474C9.09 16.7153 9.18587 16.9468 9.35653 17.1175C9.52719 17.2881 9.75865 17.384 10 17.384C10.2413 17.384 10.4728 17.2881 10.6435 17.1175C10.8141 16.9468 10.91 16.7153 10.91 16.474V12.837C10.9101 12.7175 10.8867 12.5992 10.841 12.4888C10.7953 12.3783 10.7282 12.278 10.6437 12.1936C10.5592 12.1091 10.4588 12.0422 10.3483 11.9966C10.2379 11.9511 10.1195 11.9277 10 11.928ZM4.57 19.12C4.604 19.144 4.606 19.138 4.57 19.115V19.12ZM0 10.675C0 14.211 1.796 17.377 4.545 19.182C4.55 19.168 7.273 1 7.273 1C3.129 2.262 0 6.12 0 10.675ZM12.727 1C12.727 1 15.451 19.168 15.455 19.182C18.204 17.377 20 14.21 20 10.675C20 6.12 16.87 2.262 12.727 1Z"
    fill="inherit" />
</svg>
