<svg width="22" height="20" viewBox="0 0 22 20"  xmlns="http://www.w3.org/2000/svg">
  <path fill-rule="evenodd" clip-rule="evenodd" d="M11 3.021C10.447 3.021 10 3.469 10 4.021V7.021C10 7.574 10.447 8.021 11 8.021C11.553 8.021 12 7.574 12 7.021V4.021C12 3.469 11.553 3.021 11 3.021ZM11 12.021C10.447 12.021 10 12.468 10 13.021V17.021C10 17.574 10.447 18.021 11 18.021C11.553 18.021 12 17.574 12 17.021V13.021C12 12.468 11.553 12.021 11 12.021ZM5.026 19.932C5.064 19.958 5.067 19.952 5.028 19.926C5.027 19.928 5.027 19.93 5.026 19.932ZM0 10.643C0 14.532 1.976 18.015 5 20C5.004 19.985 8 0 8 0C3.442 1.388 0 5.63101 0 10.643ZM14 0C14 0 16.996 19.985 17 20C20.024 18.015 22 14.532 22 10.643C22 5.63101 18.558 1.388 14 0Z"
    fill="inherit" />
</svg>
