<svg width="13" height="17" viewBox="0 0 13 17"  xmlns="http://www.w3.org/2000/svg">
  <path fill-rule="evenodd" clip-rule="evenodd" d="M6.673 11.74L11.673 7.194C12.08 6.822 12.11 6.191 11.74 5.781C11.368 5.373 10.736 5.344 10.327 5.715L7 8.739V1C7 0.447 6.553 0 6 0C5.447 0 5 0.447 5 1V8.739L1.673 5.715C1.264 5.344 0.632 5.373 0.26 5.781C0.0860002 5.973 0 6.215 0 6.454C0 6.726 0.111 6.997 0.327 7.194L5.327 11.74C5.709 12.087 6.291 12.087 6.673 11.74Z"
    fill="inherit" />
  <path fill-rule="evenodd" clip-rule="evenodd" d="M1.00017 16.0004C0.448169 16.0004 0.0001688 15.5534 0.0001688 15.0004C0.0001688 14.4474 0.448169 14.0004 1.00017 14.0004H11.0002C11.5522 14.0004 12.0002 14.4474 12.0002 15.0004C12.0002 15.5534 11.5522 16.0004 11.0002 16.0004H1.00017Z"
    fill="inherit" />
</svg>
