<svg width="12" height="12" viewBox="0 0 12 12" xmlns="http://www.w3.org/2000/svg">
  <path d="M12 1.28571V10.7143C12 11.4244 11.4244 12 10.7143 12H1.28571C0.575625 12 0 11.4244 0 10.7143V1.28571C0 0.575625 0.575625 0 1.28571 0H10.7143C11.4244 0 12 0.575625 12 1.28571ZM6.00953 2.68334C6.01079 2.84975 6.14929 2.98481 6.31565 2.98259L8.36516 2.95922L6.60031 4.72408C6.48591 4.83847 6.4883 5.02493 6.60567 5.1423L6.88806 5.42469C7.00543 5.54205 7.19188 5.54445 7.30628 5.43005L9.07113 3.6652L9.04777 5.7147C9.04641 5.8802 9.18147 6.01871 9.34702 6.02083L9.73387 6.02579C9.89681 6.02875 10.0275 5.89802 10.0254 5.73421L9.98199 2.34664C9.98077 2.18372 9.84664 2.04959 9.68283 2.04748L6.29614 2.00491C6.1332 2.00195 6.00246 2.13269 6.00457 2.29649L6.00953 2.68334ZM6.01083 9.34702C6.00957 9.18061 5.87106 9.04555 5.7047 9.04777L3.6552 9.07113L5.42005 7.30628C5.53445 7.19188 5.53205 7.00543 5.41469 6.88806L5.1323 6.60567C5.01493 6.4883 4.82847 6.48591 4.71408 6.60031L2.94922 8.36516L2.97259 6.31565C2.97395 6.15015 2.83889 6.01165 2.67334 6.00953L2.28649 6.00457C2.12355 6.0016 1.99281 6.13234 1.99491 6.29614L2.03837 9.68372C2.03959 9.84664 2.17372 9.98077 2.33752 9.98287L5.72421 10.0254C5.88716 10.0284 6.01789 9.89767 6.01579 9.73387L6.01083 9.34702Z"
    fill="inherit" />
</svg>
