<svg width="17" height="16" viewBox="0 0 17 16"  xmlns="http://www.w3.org/2000/svg">
  <path fill-rule="evenodd" clip-rule="evenodd" d="M9.296 7.893C8.959 8.478 8.477 8.959 7.892 9.297C7.332 9.62 6.692 9.819 6 9.819C3.895 9.819 2.182 8.106 2.182 6C2.182 3.895 3.895 2.182 6 2.182C8.105 2.182 9.818 3.895 9.818 6C9.818 6.692 9.619 7.333 9.296 7.893ZM15.707 14.293L10.885 9.472C11.584 8.491 12 7.294 12 6C12 2.693 9.308 0 6 0C2.692 0 0 2.693 0 6C0 9.308 2.692 12 6 12C7.294 12 8.489 11.584 9.47 10.885L14.293 15.707C14.488 15.903 14.744 16 15 16C15.256 16 15.512 15.903 15.707 15.707C16.098 15.317 16.098 14.684 15.707 14.293Z"
    fill="inherit" />
  <path fill-rule="evenodd" clip-rule="evenodd" d="M8.00009 5.0004H7.00009V4.0004C7.00009 3.4474 6.55309 3.0004 6.00009 3.0004C5.44709 3.0004 5.00009 3.4474 5.00009 4.0004V5.0004H4.00009C3.44709 5.0004 3.00009 5.4474 3.00009 6.0004C3.00009 6.5534 3.44709 7.0004 4.00009 7.0004H5.00009V8.0004C5.00009 8.5534 5.44709 9.0004 6.00009 9.0004C6.55309 9.0004 7.00009 8.5534 7.00009 8.0004V7.0004H8.00009C8.55309 7.0004 9.00009 6.5534 9.00009 6.0004C9.00009 5.4474 8.55309 5.0004 8.00009 5.0004Z"
    fill="inherit" />
</svg>
