<svg width="11" height="12" viewBox="0 0 11 12" xmlns="http://www.w3.org/2000/svg">
  <path
    d="M9.64286 12H0.642857C0.286607 12 0 11.7134 0 11.3571V10.7143C0 10.358 0.286607 10.0714 0.642857 10.0714H9.64286C9.99911 10.0714 10.2857 10.358 10.2857 10.7143V11.3571C10.2857 11.7134 9.99911 12 9.64286 12ZM3.42857 0.642857V4.28571H1.07946C0.602679 4.28571 0.364286 4.86161 0.701786 5.19911L4.77857 9.27589C4.97946 9.47679 5.30893 9.47679 5.50982 9.27589L9.58661 5.19911C9.92411 4.86161 9.68571 4.28571 9.20893 4.28571H6.85714V0.642857C6.85714 0.286607 6.57054 0 6.21429 0H4.07143C3.71518 0 3.42857 0.286607 3.42857 0.642857Z"
    fill="inherit" />
</svg>
