<svg width="22" height="22" viewBox="0 0 22 22"  xmlns="http://www.w3.org/2000/svg">
  <path fill-rule="evenodd" clip-rule="evenodd" d="M11 12C9.896 12 9 12.896 9 14C9 15.104 9.896 16 11 16C12.105 16 13 15.104 13 14C13 12.896 12.105 12 11 12ZM11 19C8.239 19 6 16.762 6 14C6 11.938 7.249 10.171 9.03 9.40601C9.016 9.31101 9 9.216 9 9.117V3.56599C9 2.46199 9.896 1.56599 11 1.56599C12.105 1.56599 13 2.46199 13 3.56599V9.117C13 9.216 12.985 9.31101 12.971 9.40601C14.752 10.171 16 11.939 16 14C16 16.762 13.762 19 11 19ZM11 0C4.925 0 0 4.925 0 11C0 17.075 4.925 22 11 22C17.076 22 22 17.075 22 11C22 4.925 17.076 0 11 0Z"
    fill="inherit" />
</svg>
