<svg width="22" height="22" viewBox="0 0 22 22"  xmlns="http://www.w3.org/2000/svg">
  <path fill-rule="evenodd" clip-rule="evenodd" d="M6.36032 9.57378C3.88142 10.1018 2.23681 12.4447 2.4899 14.9447C1.9307 15.1687 1.47654 15.4666 1.12842 15.8206C0.413158 14.3627 0 12.7307 0 10.9998C0 4.93489 4.93579 0 11.004 0C17.0222 0 21.922 4.85689 22 10.8548C21.4898 10.3238 20.8776 9.89278 20.1803 9.60779C19.381 6.12187 15.9508 3.89191 12.4865 4.62689C10.0417 5.14788 8.12896 7.06984 7.54575 9.46979C7.1506 9.45679 6.75446 9.49078 6.36032 9.57378ZM19.0338 11.3262C20.2523 11.6592 21.1876 12.5992 21.4547 13.8542C21.4727 13.9432 21.5097 14.0122 21.5457 14.1392C20.1893 18.6791 15.9797 22 11.0039 22C7.47963 22 4.34448 20.329 2.32974 17.7451C2.32974 17.7421 2.33176 17.7401 2.33176 17.7371C2.33176 17.0921 3.16804 16.7651 3.86929 16.6051C4.14139 16.5441 4.37651 16.3701 4.51456 16.1281C4.65361 15.8851 4.68461 15.5961 4.59958 15.3291C4.57257 15.2421 4.54956 15.1532 4.53055 15.0652C4.19043 13.4522 5.19879 11.8662 6.77637 11.5302C7.22153 11.4342 7.6747 11.4482 8.11786 11.5662C8.40396 11.6442 8.71206 11.5892 8.95615 11.4162C9.19923 11.2432 9.35229 10.9722 9.3743 10.6743C9.52135 8.6763 10.9729 6.99334 12.9016 6.58235C15.3255 6.07236 17.7173 7.65932 18.2465 10.1223C18.2715 10.2433 18.2906 10.3633 18.3046 10.4803C18.3526 10.8842 18.6407 11.2193 19.0338 11.3262Z"
    fill="inherit" />
</svg>
