<svg width="20" height="20" viewBox="0 0 20 20" xmlns="http://www.w3.org/2000/svg">
  <path d="M11.667 10C11.667 10.4421 11.4914 10.8661 11.1787 11.1787C10.8661 11.4914 10.4421 11.667 10 11.667C9.55788 11.667 9.13388 11.4914 8.82125 11.1787C8.50863 10.8661 8.333 10.4421 8.333 10V5C8.333 4.55788 8.50863 4.13388 8.82125 3.82125C9.13388 3.50863 9.55788 3.333 10 3.333C10.4421 3.333 10.8661 3.50863 11.1787 3.82125C11.4914 4.13388 11.667 4.55788 11.667 5V10ZM10 16.667C9.78102 16.6669 9.5642 16.6237 9.36191 16.5399C9.15963 16.456 8.97584 16.3331 8.82105 16.1782C8.66625 16.0234 8.54348 15.8395 8.45974 15.6372C8.376 15.4348 8.33293 15.218 8.333 14.999C8.33307 14.78 8.37626 14.5632 8.46012 14.3609C8.54398 14.1586 8.66686 13.9748 8.82175 13.82C8.97664 13.6653 9.1605 13.5425 9.36284 13.4587C9.56517 13.375 9.78202 13.3319 10.001 13.332C10.4432 13.3321 10.8673 13.5079 11.18 13.8208C11.4926 14.1336 11.6681 14.5578 11.668 15C11.6679 15.4422 11.4921 15.8663 11.1792 16.179C10.8664 16.4916 10.4422 16.6671 10 16.667V16.667ZM0 10C0 15.514 4.486 20 10 20C15.514 20 20 15.514 20 10C20 4.486 15.514 0 10 0C4.486 0 0 4.486 0 10Z"
    fill="inherit" />
</svg>
