<svg width="22" height="22" viewBox="0 0 22 22"  xmlns="http://www.w3.org/2000/svg">
  <path fill-rule="evenodd" clip-rule="evenodd" d="M15.371 12.374L9.34 19.086C9.169 19.276 8.938 19.375 8.707 19.375C8.544 19.375 8.38099 19.327 8.23599 19.228C7.88299 18.988 7.73599 18.515 7.88499 18.096L9.737 12.848L6.996 10.808C6.784 10.65 6.647 10.4 6.621 10.124C6.596 9.84899 6.68401 9.57501 6.86301 9.37601L12.893 2.66499C13.183 2.34099 13.643 2.282 13.997 2.522C14.35 2.762 14.496 3.235 14.349 3.655L12.497 8.903L15.238 10.942C15.45 11.1 15.587 11.35 15.613 11.625C15.639 11.901 15.55 12.175 15.371 12.374ZM11 0C4.934 0 0 4.935 0 11C0 17.065 4.934 22 11 22C17.065 22 22 17.065 22 11C22 4.935 17.065 0 11 0Z"
    fill="inherit" />
</svg>
