<svg width="24" height="24" viewBox="0 0 24 24" xmlns="http://www.w3.org/2000/svg">
  <path fill-rule="evenodd" clip-rule="evenodd" d="M12 24C5.37258 24 0 18.6274 0 12C0 5.37258 5.37258 0 12 0C18.6274 0 24 5.37258 24 12C24 18.6274 18.6274 24 12 24ZM14.5999 7.23767L10.107 14.4262L8.17881 12.4981C7.56599 11.8853 6.57242 11.8853 5.95961 12.4981C5.3468 13.1109 5.3468 14.1044 5.95961 14.7172L9.28263 18.0402C9.99619 18.7538 11.1881 18.618 11.7229 17.7623L17.2613 8.90101C17.7206 8.1661 17.4972 7.19798 16.7623 6.73866C16.0273 6.27934 15.0592 6.50276 14.5999 7.23767Z"
    fill="inherit" />
</svg>
