<?xml version="1.0" encoding="utf-8"?>
<!-- Generator: Adobe Illustrator 26.2.1, SVG Export Plug-In . SVG Version: 6.00 Build 0)  -->
<svg version="1.1" id="Layer_1" xmlns="http://www.w3.org/2000/svg" xmlns:xlink="http://www.w3.org/1999/xlink" x="0px" y="0px"
	 viewBox="0 0 24 24" style="enable-background:new 0 0 24 24;" xml:space="preserve">
<style type="text/css">
	.st0{fill-rule:evenodd;clip-rule:evenodd;fill:#0052C2;}
	.st1{fill:none;}
</style>
<path class="st0" d="M12,0C5.4,0,0,5.3,0,11.7c0,4.9,3.1,9.1,7.4,10.8c-0.7-0.7-1.3-1.9-1.3-3.5c0-2.4,1-4.1,1.8-5.6
	c0.7-1.3,1.5-2.5,1.5-4.1c0-1-1-2.1-1.4-2.4C7.8,6.8,7.8,6.5,7.9,6.3S8.1,6,8.4,6h0c1.3,0,4,0.7,4.8,3.4c0.2,0.8,0.2,1.8,0.2,2.8
	c0,1-0.1,2.3,0.3,2.6c0,0,0.1,0.1,0.3,0.1c0.1,0,0.4-0.2,0.6-0.8c0.5-1.4,0.5-3.2,0.1-3.6c-0.2-0.2-0.2-0.5-0.1-0.7s0.4-0.3,0.7-0.2
	c0.1,0.1,3.5,1.3,3.3,6.7c-0.1,3.2-1.3,5.4-2.9,6.6C20.5,21.4,24,17,24,11.7C24,5.3,18.6,0,12,0z"/>
<rect class="st1" width="24" height="24"/>
</svg>
