<?xml version="1.0" encoding="utf-8"?>
<!-- Generator: Adobe Illustrator 26.2.1, SVG Export Plug-In . SVG Version: 6.00 Build 0)  -->
<svg version="1.1" id="Layer_1" xmlns="http://www.w3.org/2000/svg" xmlns:xlink="http://www.w3.org/1999/xlink" x="0px" y="0px"
	 viewBox="0 0 24 24" style="enable-background:new 0 0 24 24;" xml:space="preserve">
<style type="text/css">
	.st0{fill-rule:evenodd;clip-rule:evenodd;fill:#0052C2;}
	.st1{fill:none;}
</style>
<path class="st0" d="M21.8,1.5H2.2C1,1.5,0,2.5,0,3.8v16.5c0,1.2,1,2.2,2.2,2.2h19.5c1.2,0,2.2-1,2.2-2.2V3.8
	C24,2.5,23,1.5,21.8,1.5z M6,6.9c0,0.3-0.3,0.6-0.6,0.6H3.6C3.3,7.5,3,7.2,3,6.9V5.1c0-0.3,0.3-0.6,0.6-0.6h1.9C5.7,4.5,6,4.8,6,5.1
	V6.9z M8.2,6.9V5.1c0-0.3,0.3-0.6,0.6-0.6h11.6c0.3,0,0.6,0.3,0.6,0.6v1.9c0,0.3-0.3,0.6-0.6,0.6H8.8C8.5,7.5,8.2,7.2,8.2,6.9z
	 M21.4,17.1h-3.2l1.3,3c0,0.1,0,0.2-0.1,0.2l-1,0.4c-0.1,0-0.2,0-0.2-0.1l-1.3-3L14.7,20c-0.1,0.1-0.3,0-0.3-0.1v-9.8
	c0-0.1,0.2-0.2,0.3-0.1l6.9,6.8C21.7,16.9,21.6,17.1,21.4,17.1z"/>
<rect class="st1" width="24" height="24"/>
</svg>
