<?xml version="1.0" encoding="utf-8"?>
<!-- Generator: Adobe Illustrator 26.2.1, SVG Export Plug-In . SVG Version: 6.00 Build 0)  -->
<svg version="1.1" id="Layer_1" xmlns="http://www.w3.org/2000/svg" xmlns:xlink="http://www.w3.org/1999/xlink" x="0px" y="0px"
	 viewBox="0 0 24 24" style="enable-background:new 0 0 24 24;" xml:space="preserve">
<style type="text/css">
	.st0{fill-rule:evenodd;clip-rule:evenodd;fill:#0052C2;}
	.st1{fill:none;}
</style>
<g>
	<path class="st0" d="M12,18H4V6h8c1.1,0,2-0.9,2-2s-0.9-2-2-2H2C0.9,2,0,2.9,0,4v16c0,1.1,0.9,2,2,2h10c1.1,0,2-0.9,2-2
		C14,18.9,13.1,18,12,18z"/>
	<path class="st0" d="M23.3,10.4l-4.9-4c-0.9-0.7-2.1-0.6-2.8,0.3c-0.7,0.9-0.6,2.1,0.3,2.8l0.6,0.4H8c-1.1,0-2,0.9-2,2
		c0,1.1,0.9,2,2,2h8.4l-0.6,0.4c-0.9,0.7-1,2-0.3,2.8c0.4,0.5,1,0.7,1.6,0.7c0.4,0,0.9-0.1,1.3-0.4l4.9-4c0.5-0.4,0.7-1,0.7-1.6
		C24,11.4,23.7,10.8,23.3,10.4z"/>
</g>
<rect class="st1" width="24" height="24"/>
</svg>
