<?xml version="1.0" encoding="utf-8"?>
<!-- Generator: Adobe Illustrator 26.2.1, SVG Export Plug-In . SVG Version: 6.00 Build 0)  -->
<svg version="1.1" id="Layer_1" xmlns="http://www.w3.org/2000/svg" xmlns:xlink="http://www.w3.org/1999/xlink" x="0px" y="0px"
	 viewBox="0 0 24 24" style="enable-background:new 0 0 24 24;" xml:space="preserve">
<style type="text/css">
	.st0{fill-rule:evenodd;clip-rule:evenodd;fill:#0052C2;}
	.st1{fill:none;}
</style>
<path class="st0" d="M18.6,4.6C18.5,2,16.3,0,13.7,0C11,0,8.8,2,8.7,4.6c0,0,0,0.1,0,0.1v12.5c0,0,0,0.1,0,0.1
	c0.1,1.7,1.5,3.1,3.3,3.1s3.2-1.4,3.3-3.1c0,0,0-0.1,0-0.1V7.3c0-0.7-0.5-1.2-1.1-1.2c-0.6,0-1.1,0.5-1.1,1.2v9.9
	c0,0.4-0.5,0.8-1.1,0.8s-1.1-0.4-1.1-0.8V4.8c0-1.3,1.2-2.4,2.8-2.4c1.5,0,2.8,1.1,2.8,2.4v12c0,2.6-2,4.8-4.4,4.8s-4.4-2.2-4.4-4.8
	V12c0-0.7-0.5-1.2-1.1-1.2c-0.6,0-1.1,0.5-1.1,1.2v4.8c0,4,3,7.2,6.6,7.2s6.6-3.2,6.6-7.2L18.6,4.6C18.6,4.6,18.6,4.6,18.6,4.6z"/>
<rect class="st1" width="24" height="24"/>
</svg>
