<?xml version="1.0" encoding="utf-8"?>
<!-- Generator: Adobe Illustrator 26.2.1, SVG Export Plug-In . SVG Version: 6.00 Build 0)  -->
<svg version="1.1" id="Layer_1" xmlns="http://www.w3.org/2000/svg" xmlns:xlink="http://www.w3.org/1999/xlink" x="0px" y="0px"
	 viewBox="0 0 24 24" style="enable-background:new 0 0 24 24;" xml:space="preserve">
<style type="text/css">
	.st0{fill:#0052C2;}
	.st1{fill:none;}
</style>
<path class="st0" d="M22.7,9.8H7.3l6.5-6.3c0.5-0.5,0.5-1.4,0-1.9l-1.2-1.2c-0.5-0.5-1.3-0.5-1.8,0L0.4,11.1c-0.5,0.5-0.5,1.3,0,1.9
	l10.4,10.7c0.5,0.5,1.3,0.5,1.8,0l1.2-1.2c0.5-0.5,0.5-1.4,0-1.9l-6.5-6.3h15.4c0.7,0,1.3-0.6,1.3-1.3v-1.8
	C24,10.4,23.4,9.8,22.7,9.8z"/>
<rect class="st1" width="24" height="24"/>
</svg>
