<?xml version="1.0" encoding="utf-8"?>
<!-- Generator: Adobe Illustrator 26.2.1, SVG Export Plug-In . SVG Version: 6.00 Build 0)  -->
<svg version="1.1" id="Layer_1" xmlns="http://www.w3.org/2000/svg" xmlns:xlink="http://www.w3.org/1999/xlink" x="0px" y="0px"
	 viewBox="0 0 24 24" style="enable-background:new 0 0 24 24;" xml:space="preserve">
<style type="text/css">
	.st0{clip-path:url(#SVGID_00000060734049691970523680000005330983150559586956_);}
	.st1{fill:#0052C2;}
</style>
<g>
	<defs>
		<rect id="SVGID_1_" width="24" height="24"/>
	</defs>
	<clipPath id="SVGID_00000131331742285954035600000004121183781760172984_">
		<use xlink:href="#SVGID_1_"  style="overflow:visible;"/>
	</clipPath>
	<g style="clip-path:url(#SVGID_00000131331742285954035600000004121183781760172984_);">
		<path class="st1" d="M5.4,24h-5V8h5V24z"/>
		<path class="st1" d="M2.9,5.8C1.3,5.8,0,4.5,0,2.9S1.3,0,2.9,0s2.9,1.3,2.9,2.9S4.5,5.8,2.9,5.8z"/>
		<path class="st1" d="M19,24v-7.8c0-1.9,0-4.2-2.6-4.2c-2.6,0-3,2-3,4.1V24h-5V8h4.8v2.2h0.1C14,8.9,15.6,7.6,18,7.6
			c5,0,6,3.3,6,7.6V24H19z"/>
	</g>
</g>
</svg>
