<?xml version="1.0" encoding="utf-8"?>
<!-- Generator: Adobe Illustrator 26.2.1, SVG Export Plug-In . SVG Version: 6.00 Build 0)  -->
<svg version="1.1" id="Layer_1" xmlns="http://www.w3.org/2000/svg" xmlns:xlink="http://www.w3.org/1999/xlink" x="0px" y="0px"
	 viewBox="0 0 24 24" style="enable-background:new 0 0 24 24;" xml:space="preserve">
<style type="text/css">
	.st0{fill:#0052C2;}
	.st1{fill:none;}
</style>
<g>
	<path class="st0" d="M1.3,5.3H12c0.7,0,1.3-0.6,1.3-1.3S12.7,2.7,12,2.7H1.3C0.6,2.7,0,3.3,0,4S0.6,5.3,1.3,5.3z"/>
	<path class="st0" d="M1.3,10.7h21.3c0.7,0,1.3-0.6,1.3-1.3S23.4,8,22.7,8H1.3C0.6,8,0,8.6,0,9.3S0.6,10.7,1.3,10.7z"/>
	<path class="st0" d="M1.3,16h16c0.7,0,1.3-0.6,1.3-1.3s-0.6-1.3-1.3-1.3h-16c-0.7,0-1.3,0.6-1.3,1.3S0.6,16,1.3,16z"/>
	<path class="st0" d="M22.7,18.7H1.3C0.6,18.7,0,19.3,0,20c0,0.7,0.6,1.3,1.3,1.3h21.3c0.7,0,1.3-0.6,1.3-1.3
		C24,19.3,23.4,18.7,22.7,18.7z"/>
</g>
<rect class="st1" width="24" height="24"/>
</svg>
