<svg viewBox="0 0 24 24" xmlns="http://www.w3.org/2000/svg">
<path d="M14.8,19.5c-1.6,1-3.9,1-5.5,0c0,0-0.1,0-0.1,0c-0.1,0.1-0.2,0.1-0.3,0.2c-0.1,0.1-0.3,0.1-0.4,0.2
  C8.3,20,8.2,20,8.1,20c-0.2,0.1-0.4,0.1-0.6,0.1c-0.1,0-0.1,0-0.2,0c-0.3,0-0.6,0.1-0.8,0.1c0,0,0,0,0,0c0,0,0,0,0,0
  c-1,0-2-0.3-2.8-0.8c-0.2,0.1-0.5,0.3-0.7,0.4c2.2,2.5,5.4,4.1,9,4.1c3.6,0,6.8-1.6,9-4.1c-0.2-0.1-0.5-0.2-0.7-0.4
  C18.7,20.5,16.4,20.5,14.8,19.5z"/>
<path d="M12,0C5.4,0,0,5.4,0,12c0,2.2,0.6,4.2,1.6,6c0.5-0.1,1-0.3,1.3-0.7c0.4-0.4,1.1-0.4,1.5,0
  c0.8,0.8,2.3,0.9,3.4,0.5c0.1,0,0.1-0.1,0.2-0.1c0.1,0,0.1-0.1,0.2-0.1c0.1-0.1,0.2-0.2,0.3-0.2c0.4-0.4,1.1-0.4,1.5,0c1,1,3,1,4,0
  c0.4-0.4,1.1-0.4,1.5,0c1,1,3,1,4,0c0.4-0.4,1.1-0.4,1.5,0c0.3,0.3,0.8,0.5,1.3,0.7c1-1.8,1.6-3.8,1.6-6C24,5.4,18.6,0,12,0z
    M20,12.6l-1.5-1.2v4c-0.9,0.2-1.9,0.1-2.8-0.2c-0.1,0-0.1,0-0.2-0.1c-0.3-0.1-0.5-0.2-0.7-0.4c-0.2,0.1-0.5,0.3-0.7,0.4
  c-0.1,0-0.2,0.1-0.3,0.1c-1.1,0.4-2.4,0.4-3.5,0c-0.1,0-0.2-0.1-0.3-0.1c-0.3-0.1-0.5-0.2-0.7-0.4c0,0-0.1,0-0.1,0
  c-0.1,0.1-0.2,0.1-0.3,0.2c-0.1,0-0.2,0.1-0.3,0.1c0,0-0.1,0-0.1,0c-0.1,0-0.2,0.1-0.3,0.1c-0.2,0.1-0.4,0.1-0.6,0.2
  c-0.1,0-0.1,0-0.2,0c-0.3,0-0.6,0.1-0.8,0.1c-0.4,0-0.7,0-1-0.1v-4L4,12.6L2.6,11l3.9-3.3V5.5h2.2l2.6-1.8c0.4-0.3,1-0.3,1.4,0
  l8.7,7.3L20,12.6z"/>
</svg>
