<svg viewBox="0 0 24 24" xmlns="http://www.w3.org/2000/svg">
<path d="M20.8,4.7c-1.1-1.1-2.6-1.2-3.8-0.7C16.5,1.8,14.5,0,12,0C9.5,0,7.5,1.8,7,4.1C5.8,3.5,4.3,3.7,3.2,4.7
	c-1.3,1.3-1.3,3.5,0,4.8L6,12.3v8.4C6,22.5,7.5,24,9.4,24h0.4c0.9,0,1.7-0.3,2.2-0.9c0.6,0.5,1.4,0.9,2.2,0.9h0.4
	c1.9,0,3.4-1.5,3.4-3.4v-8.4l2.8-2.8C22.1,8.2,22.1,6.1,20.8,4.7z M12,2.2c1.6,0,2.8,1.3,2.8,2.8S13.6,7.9,12,7.9
	c-1.6,0-2.8-1.3-2.8-2.8S10.4,2.2,12,2.2z M19.2,7.9l-3.4,3.4v9.3c0,0.6-0.5,1.1-1.1,1.1h-0.4c-0.6,0-1.1-0.5-1.1-1.1v-4.5h-2.2v4.5
	c0,0.6-0.5,1.1-1.1,1.1H9.4c-0.6,0-1.1-0.5-1.1-1.1v-9.3L4.8,7.9c-0.4-0.4-0.4-1.2,0-1.6s1.2-0.4,1.6,0l3.4,3.4h4.3l3.4-3.4
	c0.4-0.4,1.2-0.4,1.6,0C19.6,6.8,19.6,7.5,19.2,7.9z"/>
</svg>
