<?xml version="1.0" encoding="utf-8"?>
<!-- Generator: Adobe Illustrator 26.2.1, SVG Export Plug-In . SVG Version: 6.00 Build 0)  -->
<svg version="1.1" id="Layer_1" xmlns="http://www.w3.org/2000/svg" xmlns:xlink="http://www.w3.org/1999/xlink" x="0px" y="0px"
	 viewBox="0 0 24 24" style="enable-background:new 0 0 24 24;" xml:space="preserve">
<style type="text/css">
	.st0{fill-rule:evenodd;clip-rule:evenodd;fill:#0052C2;}
	.st1{fill:none;}
</style>
<g>
	<circle class="st0" cx="11.6" cy="12.8" r="4.7"/>
	<path class="st0" d="M17.4,0H6.6C3,0,0,3.1,0,6.8v10.4C0,20.9,3,24,6.6,24h10.7c3.7,0,6.6-3.1,6.6-6.8V6.8C24,3.1,21,0,17.4,0z
		 M11.6,19.9c-3.9,0-7.1-3.2-7.1-7.1c0-3.9,3.2-7.1,7.1-7.1c3.9,0,7.1,3.2,7.1,7.1C18.8,16.8,15.6,19.9,11.6,19.9z M18.8,6.4
		c-0.8,0-1.5-0.7-1.5-1.5s0.7-1.5,1.5-1.5c0.8,0,1.5,0.7,1.5,1.5S19.6,6.4,18.8,6.4z"/>
</g>
<rect class="st1" width="24" height="24"/>
</svg>
