<?xml version="1.0" encoding="utf-8"?>
<!-- Generator: Adobe Illustrator 26.2.1, SVG Export Plug-In . SVG Version: 6.00 Build 0)  -->
<svg version="1.1" id="Layer_1" xmlns="http://www.w3.org/2000/svg" xmlns:xlink="http://www.w3.org/1999/xlink" x="0px" y="0px"
	 viewBox="0 0 24 24" style="enable-background:new 0 0 24 24;" xml:space="preserve">
<style type="text/css">
	.st0{fill:#0052C2;}
	.st1{fill:none;}
</style>
<path class="st0" d="M23.6,11.1L13.2,0.4c-0.5-0.5-1.3-0.5-1.8,0l-1.2,1.2c-0.5,0.5-0.5,1.4,0,1.9l6.5,6.3H1.3
	C0.6,9.8,0,10.4,0,11.1v1.8c0,0.7,0.6,1.3,1.3,1.3h15.4l-6.5,6.3c-0.5,0.5-0.5,1.4,0,1.9l1.2,1.2c0.5,0.5,1.3,0.5,1.8,0l10.4-10.7
	C24.1,12.4,24.1,11.6,23.6,11.1z"/>
<rect class="st1" width="24" height="24"/>
</svg>
