<?xml version="1.0" encoding="utf-8"?>
<!-- Generator: Adobe Illustrator 26.2.1, SVG Export Plug-In . SVG Version: 6.00 Build 0)  -->
<svg version="1.1" id="Layer_1" xmlns="http://www.w3.org/2000/svg" xmlns:xlink="http://www.w3.org/1999/xlink" x="0px" y="0px"
	 viewBox="0 0 24 24" style="enable-background:new 0 0 24 24;" xml:space="preserve">
<style type="text/css">
	.st0{fill-rule:evenodd;clip-rule:evenodd;fill:#0052C2;}
	.st1{fill:none;}
</style>
<path class="st0" d="M12,0C5.4,0,0,5.4,0,12c0,6.6,5.4,12,12,12c6.6,0,12-5.4,12-12C24,5.4,18.6,0,12,0z M12,4
	c1.9,0,3.5,1.6,3.5,3.5S13.9,11,12,11c-1.9,0-3.5-1.6-3.5-3.5S10.1,4,12,4z M18,16.7c0,0.7-0.6,1.3-1.3,1.3H7.3
	C6.6,18,6,17.4,6,16.7v-1.1c0-2,1.6-3.6,3.6-3.6H10c0.6,0.3,1.3,0.4,2,0.4c0.7,0,1.4-0.2,2-0.4h0.4c2,0,3.6,1.6,3.6,3.6V16.7z"/>
<rect class="st1" width="24" height="24"/>
</svg>
