<?xml version="1.0" encoding="utf-8"?>
<!-- Generator: Adobe Illustrator 26.2.1, SVG Export Plug-In . SVG Version: 6.00 Build 0)  -->
<svg version="1.1" id="Layer_1" xmlns="http://www.w3.org/2000/svg" xmlns:xlink="http://www.w3.org/1999/xlink" x="0px" y="0px"
	 viewBox="0 0 24 24" style="enable-background:new 0 0 24 24;" xml:space="preserve">
<style type="text/css">
	.st0{fill:#0052C2;}
	.st1{fill:none;}
</style>
<g>
	<path class="st0" d="M12,0C5.4,0,0,5.4,0,12c0,6.6,5.4,12,12,12c6.6,0,12-5.4,12-12C24,5.4,18.6,0,12,0z M12,20.7
		c-3,0-5.5-2.4-5.5-5.5c0-2.2,1.4-4.2,3.3-5c0-0.1,0-0.2,0-0.3V3.9c0-1.2,1-2.2,2.2-2.2c1.2,0,2.2,1,2.2,2.2v6.1c0,0.1,0,0.2,0,0.3
		c1.9,0.8,3.3,2.8,3.3,5C17.5,18.3,15,20.7,12,20.7z"/>
	<circle class="st0" cx="12" cy="15.3" r="2.2"/>
</g>
<rect class="st1" width="24" height="24"/>
</svg>
