<?xml version="1.0" encoding="utf-8"?>
<!-- Generator: Adobe Illustrator 26.2.1, SVG Export Plug-In . SVG Version: 6.00 Build 0)  -->
<svg version="1.1" id="Layer_1" xmlns="http://www.w3.org/2000/svg" xmlns:xlink="http://www.w3.org/1999/xlink" x="0px" y="0px"
	 viewBox="0 0 24 24" style="enable-background:new 0 0 24 24;" xml:space="preserve">
<style type="text/css">
	.st0{fill:#0052C2;}
	.st1{fill:none;}
</style>
<path class="st0" d="M23.6,11.4l-1.2-1.2c-0.5-0.5-1.4-0.5-1.9,0l-6.3,6.5V1.3c0-0.7-0.6-1.3-1.3-1.3h-1.8c-0.7,0-1.3,0.6-1.3,1.3
	v15.4l-6.3-6.5c-0.5-0.5-1.4-0.5-1.9,0l-1.2,1.2c-0.5,0.5-0.5,1.3,0,1.8l10.7,10.4c0.5,0.5,1.3,0.5,1.9,0l10.7-10.4
	C24.1,12.7,24.1,11.9,23.6,11.4z"/>
<rect class="st1" width="24" height="24"/>
</svg>
