<svg viewBox="0 0 24 24" xmlns="http://www.w3.org/2000/svg">
<path d="M21.5,7.2c0,0.2,0,0.4,0,0.6c0,6.4-4.9,13.8-14,13.8c-2.8,0-5.4-0.8-7.6-2.2c0.4,0,0.8,0.1,1.2,0.1
  c2.3,0,4.4-0.8,6.1-2.1c-2.2,0-4-1.4-4.6-3.4c0.3,0,0.6,0.1,0.9,0.1c0.4,0,0.9-0.1,1.3-0.2C2.7,13.5,1,11.6,1,9.2V9.2
  c0.7,0.4,1.4,0.6,2.2,0.6C1.9,8.9,1,7.4,1,5.7C1,4.8,1.2,4,1.7,3.3c2.4,2.9,6.1,4.9,10.1,5.1c-0.1-0.4-0.1-0.7-0.1-1.1
  c0-2.7,2.2-4.8,4.9-4.8c1.4,0,2.7,0.6,3.6,1.5c1.1-0.2,2.2-0.6,3.1-1.2c-0.4,1.1-1.1,2.1-2.2,2.7c1-0.1,1.9-0.4,2.8-0.7
  C23.3,5.6,22.5,6.5,21.5,7.2z"/>
</svg>
