<?xml version="1.0" encoding="utf-8"?>
<!-- Generator: Adobe Illustrator 26.2.1, SVG Export Plug-In . SVG Version: 6.00 Build 0)  -->
<svg version="1.1" id="Layer_1" xmlns="http://www.w3.org/2000/svg" xmlns:xlink="http://www.w3.org/1999/xlink" x="0px" y="0px"
	 viewBox="0 0 24 24" style="enable-background:new 0 0 24 24;" xml:space="preserve">
<style type="text/css">
	.st0{fill-rule:evenodd;clip-rule:evenodd;fill:#0052C2;}
	.st1{fill:none;}
</style>
<g>
	<path class="st0" d="M18.7,6.7H5.3C4.5,6.7,3.9,7.3,4,8.1l1.5,14.7C5.6,23.5,6.1,24,6.8,24h10.4c0.7,0,1.3-0.5,1.3-1.2L20,8.1
		C20.1,7.3,19.5,6.7,18.7,6.7z M16,21.3H8l-1.2-12h10.4L16,21.3z"/>
	<path class="st0" d="M5.3,5.3h13.3C19.4,5.3,20,4.7,20,4s-0.6-1.3-1.3-1.3h-5.3V1.3C13.3,0.6,12.7,0,12,0c-0.7,0-1.3,0.6-1.3,1.3
		v1.3H5.3C4.6,2.7,4,3.3,4,4S4.6,5.3,5.3,5.3z"/>
</g>
<rect class="st1" width="24" height="24"/>
</svg>
