<?xml version="1.0" encoding="utf-8"?>
<!-- Generator: Adobe Illustrator 26.2.1, SVG Export Plug-In . SVG Version: 6.00 Build 0)  -->
<svg version="1.1" id="Layer_1" xmlns="http://www.w3.org/2000/svg" xmlns:xlink="http://www.w3.org/1999/xlink" x="0px" y="0px"
	 viewBox="0 0 24 24" style="enable-background:new 0 0 24 24;" xml:space="preserve">
<style type="text/css">
	.st0{fill:#0052C2;}
	.st1{fill:none;}
</style>
<g>
	<path class="st0" d="M22.7,2.7H20V1.3C20,0.6,19.4,0,18.7,0c-0.7,0-1.3,0.6-1.3,1.3v1.3H6.7V1.3C6.7,0.6,6.1,0,5.3,0
		C4.6,0,4,0.6,4,1.3v1.3H1.3C0.6,2.7,0,3.3,0,4v18.7C0,23.4,0.6,24,1.3,24h21.3c0.7,0,1.3-0.6,1.3-1.3V4C24,3.3,23.4,2.7,22.7,2.7z
		 M21.3,21.3H2.7V6.7h18.7V21.3z"/>
	<rect x="13.3" y="13.4" class="st0" width="5.3" height="5.3"/>
</g>
<rect class="st1" width="24" height="24"/>
</svg>
