<?xml version="1.0" encoding="utf-8"?>
<!-- Generator: Adobe Illustrator 26.2.1, SVG Export Plug-In . SVG Version: 6.00 Build 0)  -->
<svg version="1.1" id="Layer_1" xmlns="http://www.w3.org/2000/svg" xmlns:xlink="http://www.w3.org/1999/xlink" x="0px" y="0px"
	 viewBox="0 0 24 24" style="enable-background:new 0 0 24 24;" xml:space="preserve">
<style type="text/css">
	.st0{fill:#0052C2;}
	.st1{fill:none;}
</style>
<g>
	<path class="st0" d="M17.5,9.5l-2-0.3c-0.1,0-0.2-0.1-0.3-0.2c-1.7-2.4-2-2.6-2.5-2.6l-1.6-0.1c-0.3,0-0.6,0-3,1.4
		C7.6,8,7.2,8.4,6.9,8.9l-1,2c-0.2,0.5-0.1,1.1,0.4,1.3c0.2,0.1,0.3,0.1,0.5,0.1c0.3,0,0.7-0.2,0.9-0.5l1-2c0.1-0.2,0.3-0.4,0.5-0.5
		c0.1,0,0.2-0.1,0.2-0.1l-0.7,3.1c-0.1,0.6,0,1.2,0.5,1.7l3.2,3.2c0,0,0,0.1,0.1,0.1l1.4,4c0.2,0.5,0.6,0.8,1.1,0.8
		c0.1,0,0.2,0,0.4-0.1c0.6-0.2,0.9-0.8,0.7-1.4l-1.4-4c-0.1-0.3-0.3-0.7-0.6-0.9l-1.3-1.9l0.8-3.9c0.1,0.1,0.2,0.2,0.2,0.3
		c0.4,0.5,0.9,0.9,1.6,1l2,0.3c0.5,0.1,1-0.3,1.1-0.8C18.4,10.1,18,9.6,17.5,9.5z"/>
	<path class="st0" d="M12.3,5.8c1.1,0,1.9-0.9,1.9-1.9c0-1.1-0.9-1.9-1.9-1.9c-1.1,0-1.9,0.9-1.9,1.9C10.3,5,11.2,5.8,12.3,5.8z"/>
	<path class="st0" d="M8.7,15.9C8.7,15.9,8.7,16,8.7,15.9l-3.3,2.8C5,19,4.9,19.5,5.1,19.9c0,0.1,0.1,0.2,0.2,0.3
		c0.4,0.5,1.1,0.6,1.6,0.1l3.2-2.7c0.3-0.2,0.5-0.6,0.7-0.9l0.1-0.5l-1.6-1.6L8.7,15.9z"/>
</g>
<rect class="st1" width="24" height="24"/>
</svg>
