<svg viewBox="0 0 24 24" xmlns="http://www.w3.org/2000/svg">
<path d="M18.6,4.6C18.5,2,16.3,0,13.7,0C11,0,8.8,2,8.7,4.6c0,0,0,0.1,0,0.1v12.5c0,0,0,0.1,0,0.1
	c0.1,1.7,1.5,3.1,3.3,3.1s3.2-1.4,3.3-3.1c0,0,0-0.1,0-0.1V7.3c0-0.7-0.5-1.2-1.1-1.2c-0.6,0-1.1,0.5-1.1,1.2v9.9
	c0,0.4-0.5,0.8-1.1,0.8s-1.1-0.4-1.1-0.8V4.8c0-1.3,1.2-2.4,2.8-2.4c1.5,0,2.8,1.1,2.8,2.4v12c0,2.6-2,4.8-4.4,4.8s-4.4-2.2-4.4-4.8
	V12c0-0.7-0.5-1.2-1.1-1.2c-0.6,0-1.1,0.5-1.1,1.2v4.8c0,4,3,7.2,6.6,7.2s6.6-3.2,6.6-7.2L18.6,4.6C18.6,4.6,18.6,4.6,18.6,4.6z"/>
</svg>
