<?xml version="1.0" encoding="utf-8"?>
<!-- Generator: Adobe Illustrator 26.2.1, SVG Export Plug-In . SVG Version: 6.00 Build 0)  -->
<svg version="1.1" id="Layer_1" xmlns="http://www.w3.org/2000/svg" xmlns:xlink="http://www.w3.org/1999/xlink" x="0px" y="0px"
	 viewBox="0 0 24 24" style="enable-background:new 0 0 24 24;" xml:space="preserve">
<style type="text/css">
	.st0{fill-rule:evenodd;clip-rule:evenodd;fill:#0052C2;}
	.st1{fill:none;}
</style>
<g>
	<path class="st0" d="M22.5,7.5H18V6c0-1.2-0.4-2.4-1-3.4C15.9,1,14,0,12,0C8.7,0,6,2.7,6,6v1.5H1.5C0.7,7.5,0,8.2,0,9v13.5
		C0,23.3,0.7,24,1.5,24h21c0.8,0,1.5-0.7,1.5-1.5V9C24,8.2,23.3,7.5,22.5,7.5z M9,6c0-1.7,1.3-3,3-3c1,0,1.9,0.5,2.5,1.3
		C14.8,4.8,15,5.4,15,6v1.5H9V6z M21,21H3V10.5h18V21z"/>
	<circle class="st0" cx="12" cy="15" r="1.5"/>
</g>
<rect class="st1" width="24" height="24"/>
</svg>
