<?xml version="1.0" encoding="utf-8"?>
<!-- Generator: Adobe Illustrator 26.2.1, SVG Export Plug-In . SVG Version: 6.00 Build 0)  -->
<svg version="1.1" id="Layer_1" xmlns="http://www.w3.org/2000/svg" xmlns:xlink="http://www.w3.org/1999/xlink" x="0px" y="0px"
	 viewBox="0 0 24 24" style="enable-background:new 0 0 24 24;" xml:space="preserve">
<style type="text/css">
	.st0{fill:#0052C2;}
	.st1{fill:none;}
</style>
<g>
	<path class="st0" d="M22.9,9.4c-0.7-0.7-1.6-1.1-2.6-1.1V4.7c0-0.6-0.2-1.2-0.7-1.6l-2.4-2.4c-0.4-0.4-1-0.7-1.6-0.7H5.2
		c-0.4,0-0.7,0.1-1,0.4S3.8,1.1,3.8,1.5v6.8c-1,0-1.9,0.4-2.6,1.1C0.4,10.1,0,11,0,12v6c0,0.2,0.1,0.4,0.2,0.5
		c0.1,0.1,0.3,0.2,0.5,0.2h3v4.5c0,0.2,0.1,0.4,0.2,0.5C4.1,23.9,4.3,24,4.5,24h15c0.2,0,0.4-0.1,0.5-0.2c0.1-0.1,0.2-0.3,0.2-0.5
		v-4.5h3c0.2,0,0.4-0.1,0.5-0.2c0.1-0.1,0.2-0.3,0.2-0.5v-6C24,11,23.6,10.1,22.9,9.4z M6,2.2h9v2.2c0,0.2,0.1,0.4,0.2,0.5
		c0.1,0.1,0.3,0.2,0.5,0.2H18v3H6V2.2z M18,21.8H6v-3h12V21.8z M21.8,16.5H2.2V12c0-0.4,0.1-0.8,0.4-1.1c0.3-0.3,0.6-0.4,1.1-0.4
		h16.5c0.4,0,0.8,0.1,1.1,0.4c0.3,0.3,0.4,0.6,0.4,1.1V16.5z"/>
	<path class="st0" d="M18.8,12.4c-0.3,0-0.6,0.1-0.8,0.3s-0.3,0.5-0.3,0.8s0.1,0.6,0.3,0.8s0.5,0.3,0.8,0.3s0.6-0.1,0.8-0.3
		s0.3-0.5,0.3-0.8s-0.1-0.6-0.3-0.8S19.1,12.4,18.8,12.4z"/>
</g>
<rect class="st1" width="24" height="24"/>
</svg>
