<?xml version="1.0" encoding="utf-8"?>
<!-- Generator: Adobe Illustrator 26.2.1, SVG Export Plug-In . SVG Version: 6.00 Build 0)  -->
<svg version="1.1" id="Layer_1" xmlns="http://www.w3.org/2000/svg" xmlns:xlink="http://www.w3.org/1999/xlink" x="0px" y="0px"
	 viewBox="0 0 24 24" style="enable-background:new 0 0 24 24;" xml:space="preserve">
<style type="text/css">
	.st0{fill-rule:evenodd;clip-rule:evenodd;fill:#0052C2;}
	.st1{fill:none;}
</style>
<path class="st0" d="M12,0C5.4,0,0,5.4,0,12c0,6.6,5.4,12,12,12c6.6,0,12-5.4,12-12C24,5.4,18.6,0,12,0z M13.3,17.9v1.2
	c0,0.5-0.2,0.9-0.8,0.9c-0.3,0-0.7,0-1,0c-0.7,0-0.9-0.6-0.9-0.9v-1.2C8.9,17.6,7.4,16.5,7,15l2.8-0.9c0.3,1.1,1.2,1.5,2.2,1.5
	c1.1,0,1.7-0.5,1.7-1.2c0-0.5-0.2-0.9-1.1-1l-2.3-0.5c-1.6-0.4-3.1-1.3-3.1-3.4c0-1.9,1.3-3.2,3.3-3.5V4.9c0-0.5,0.3-0.9,0.9-0.9
	c0.2,0,0.7,0,1,0c0.5,0,0.8,0.4,0.8,0.9v1.3c1.5,0.4,2.7,1.3,3.1,2.7l-2.7,0.7c-0.4-0.9-1.2-1.2-1.9-1.2c-0.9,0-1.5,0.5-1.5,1.2
	c0,0.5,0.2,0.8,0.9,1l2.3,0.5c2,0.5,3.1,1.5,3.1,3.4C16.6,16.3,15.2,17.5,13.3,17.9z"/>
<rect class="st1" width="24" height="24"/>
</svg>
