<?xml version="1.0" encoding="utf-8"?>
<!-- Generator: Adobe Illustrator 26.2.1, SVG Export Plug-In . SVG Version: 6.00 Build 0)  -->
<svg version="1.1" id="Layer_1" xmlns="http://www.w3.org/2000/svg" xmlns:xlink="http://www.w3.org/1999/xlink" x="0px" y="0px"
	 viewBox="0 0 24 24" style="enable-background:new 0 0 24 24;" xml:space="preserve">
<style type="text/css">
	.st0{fill:#0052C2;}
	.st1{fill:none;}
</style>
<path class="st0" d="M20.9,9h-1.3l-0.8-2.2C18.3,5.7,17.1,5,15.7,5H8.3C6.9,5,5.6,5.7,5.2,6.8L4.3,9H3C2.5,9,2,9.4,2,9.8v0.5
	c0,0.5,0.5,0.8,1,0.8h0.4c-0.2,0.8-0.3,1.6-0.3,2.4v4.1c0,0.5,0.5,0.8,1,0.8h1.7c0.6,0,1-0.4,1-0.8v-1.3h10.3v1.3
	c0,0.5,0.5,0.8,1,0.8h1.7c0.6,0,1-0.4,1-0.8v-4.1c0-0.8-0.1-1.6-0.3-2.4H21c0.6,0,1-0.4,1-0.8V9.8C22,9.4,21.5,9,20.9,9z M7.1,7.3
	c0.2-0.4,0.6-0.7,1.1-0.7h7.4c0.5,0,1,0.3,1.1,0.7l1,2.5c0,0.1-0.1,0.2-0.2,0.2H6.3c-0.1,0-0.3-0.1-0.2-0.2L7.1,7.3z M8.3,14H6.2
	c-0.4,0-0.6-0.2-0.6-0.5v-0.8c0-0.3,0.4-0.6,0.7-0.5l1.9,0.3c0.3,0,0.5,0.2,0.5,0.4l0.1,0.6C9,13.7,8.7,14,8.3,14z M18.4,13.5
	L18.4,13.5c0,0.3-0.3,0.5-0.7,0.5h-2.1c-0.4,0-0.7-0.3-0.6-0.6l0.1-0.6c0.1-0.2,0.3-0.4,0.5-0.4l1.9-0.3c0.4-0.1,0.7,0.2,0.7,0.5
	V13.5z"/>
<rect class="st1" width="24" height="24"/>
</svg>
