<?xml version="1.0" encoding="utf-8"?>
<!-- Generator: Adobe Illustrator 26.2.1, SVG Export Plug-In . SVG Version: 6.00 Build 0)  -->
<svg version="1.1" id="Layer_1" xmlns="http://www.w3.org/2000/svg" xmlns:xlink="http://www.w3.org/1999/xlink" x="0px" y="0px"
	 viewBox="0 0 24 24" style="enable-background:new 0 0 24 24;" xml:space="preserve">
<style type="text/css">
	.st0{fill:#0052C2;}
	.st1{fill:none;}
</style>
<g>
	<circle class="st0" cx="2.2" cy="3" r="2.2"/>
	<path class="st0" d="M9.8,5.2h12C23,5.2,24,4.2,24,3s-1-2.2-2.2-2.2h-12c-1.2,0-2.2,1-2.2,2.2S8.5,5.2,9.8,5.2z"/>
	<circle class="st0" cx="2.2" cy="12" r="2.2"/>
	<path class="st0" d="M21.8,9.8h-12c-1.2,0-2.2,1-2.2,2.2s1,2.2,2.2,2.2h12c1.2,0,2.2-1,2.2-2.2S23,9.8,21.8,9.8z"/>
	<circle class="st0" cx="2.2" cy="21" r="2.2"/>
	<path class="st0" d="M21.8,18.8h-12c-1.2,0-2.2,1-2.2,2.2s1,2.2,2.2,2.2h12c1.2,0,2.2-1,2.2-2.2S23,18.8,21.8,18.8z"/>
</g>
<rect class="st1" width="24" height="24"/>
</svg>
