<?xml version="1.0" encoding="utf-8"?>
<!-- Generator: Adobe Illustrator 26.2.1, SVG Export Plug-In . SVG Version: 6.00 Build 0)  -->
<svg version="1.1" id="Layer_1" xmlns="http://www.w3.org/2000/svg" xmlns:xlink="http://www.w3.org/1999/xlink" x="0px" y="0px"
	 viewBox="0 0 24 24" style="enable-background:new 0 0 24 24;" xml:space="preserve">
<style type="text/css">
	.st0{fill:#0052C2;}
	.st1{fill:none;}
</style>
<g>
	<path class="st0" d="M20.3,13l3.4-3.4c0.4-0.4,0.4-1.1,0-1.5l-0.8-0.8c-0.4-0.4-1.1-0.4-1.5,0L18,10.7l-3.4-3.4
		c-0.4-0.4-1.1-0.4-1.5,0l-0.8,0.8c-0.4,0.4-0.4,1.1,0,1.5l3.4,3.4l-3.4,3.4c-0.4,0.4-0.4,1.1,0,1.5l0.8,0.8c0.4,0.4,1.1,0.4,1.5,0
		l3.4-3.4l3.4,3.4c0.4,0.4,1.1,0.4,1.5,0l0.8-0.8c0.4-0.4,0.4-1.1,0-1.5L20.3,13z"/>
	<path class="st0" d="M7.3,10.8l-2.6-0.6c-0.8-0.2-1-0.6-1-1.1c0-0.7,0.7-1.3,1.7-1.3c0.8,0,1.8,0.4,2.2,1.4l3-0.8
		c-0.5-1.5-1.8-2.6-3.5-3V4c0-0.6-0.4-1-0.9-1C5.9,3,5.3,3,5.1,3c-0.6,0-1,0.4-1,1v1.4c-2.3,0.4-3.7,1.8-3.7,4
		c0,2.4,1.6,3.3,3.5,3.8l2.6,0.6c0.9,0.2,1.2,0.6,1.2,1.2c0,0.7-0.7,1.3-1.9,1.3c-1.2,0-2.1-0.5-2.5-1.7l-3.2,1
		c0.5,1.7,2.1,2.9,4.1,3.3v1.3c0,0.4,0.2,1.1,1,1.1c0.3,0,0.8,0,1.1,0c0.7,0,0.9-0.5,0.9-1.1v-1.3c2.1-0.4,3.7-1.8,3.7-4
		C10.8,12.5,9.5,11.3,7.3,10.8z"/>
</g>
<rect class="st1" width="24" height="24"/>
</svg>
