<svg viewBox="0 0 24 24" xmlns="http://www.w3.org/2000/svg">
<circle cx="9" cy="3" r="3"/>
<path d="m23.9 19.4-.7-1.3c-.2-.4-.6-.5-1-.3l-1.7.9-2.7-5.7c-.2-.5-.8-.9-1.4-.9h-6.2l-.2-1.5h5.7c.4 0 .8-.3.8-.7V8.3c0-.4-.3-.8-.8-.8H6.6l.9 6.2c.1.8.8 1.3 1.5 1.3h6.5l2.9 6.3c.4.8 1.3 1.1 2 .7l3.1-1.5c.5-.3.6-.7.4-1.1z"/>
<path d="M13.4 16.5C13.1 19 10.9 21 8.2 21 5.4 21 3 18.6 3 15.8c0-1.9 1.1-3.6 2.6-4.6-.1-1.2-.3-2.2-.4-3.1-3 1.2-5.2 4.2-5.2 7.7C0 20.3 3.7 24 8.2 24c3.4 0 6.3-2 7.6-4.9l-1.2-2.6h-1.2z"/>
</svg>
