<?xml version="1.0" encoding="utf-8"?>
<!-- Generator: Adobe Illustrator 26.2.1, SVG Export Plug-In . SVG Version: 6.00 Build 0)  -->
<svg version="1.1" id="Layer_1" xmlns="http://www.w3.org/2000/svg" xmlns:xlink="http://www.w3.org/1999/xlink" x="0px" y="0px"
	 viewBox="0 0 24 24" style="enable-background:new 0 0 24 24;" xml:space="preserve">
<style type="text/css">
	.st0{fill-rule:evenodd;clip-rule:evenodd;fill:#0052C2;}
	.st1{fill:none;}
</style>
<g>
	<path class="st0" d="M12,4C6.5,4,1.9,7.4,0,12c1.9,4.7,6.5,8,12,8s10.1-3.3,12-8C22.1,7.4,17.5,4,12,4z M12,17.7
		c-3,0-5.5-2.5-5.5-5.6C6.5,8.9,9,6.4,12,6.4c3,0,5.5,2.5,5.5,5.6C17.5,15.1,15,17.7,12,17.7z"/>
	<path class="st0" d="M12,8.6c-1.8,0-3.3,1.5-3.3,3.4c0,1.9,1.5,3.4,3.3,3.4s3.3-1.5,3.3-3.4C15.3,10.1,13.8,8.6,12,8.6z"/>
</g>
<rect class="st1" width="24" height="24"/>
</svg>
