<?xml version="1.0" encoding="utf-8"?>
<!-- Generator: Adobe Illustrator 26.2.1, SVG Export Plug-In . SVG Version: 6.00 Build 0)  -->
<svg version="1.1" id="Layer_1" xmlns="http://www.w3.org/2000/svg" xmlns:xlink="http://www.w3.org/1999/xlink" x="0px" y="0px"
	 viewBox="0 0 24 24" style="enable-background:new 0 0 24 24;" xml:space="preserve">
<style type="text/css">
	.st0{fill-rule:evenodd;clip-rule:evenodd;fill:#0052C2;}
	.st1{fill:none;}
</style>
<g>
	<path class="st0" d="M12,4.4c-0.6,0-1.1,0.5-1.1,1.1v3.3c0,0.6,0.5,1.1,1.1,1.1s1.1-0.5,1.1-1.1V5.5C13.1,4.9,12.6,4.4,12,4.4z"/>
	<path class="st0" d="M12,14.2c-0.6,0-1.1,0.5-1.1,1.1v4.4c0,0.6,0.5,1.1,1.1,1.1s1.1-0.5,1.1-1.1v-4.4C13.1,14.7,12.6,14.2,12,14.2
		z"/>
	<path class="st0" d="M0,12.7c0,4.2,2.2,8,5.5,10.2L8.8,1.1C3.8,2.6,0,7.2,0,12.7z"/>
	<path class="st0" d="M15.3,1.1l3.3,21.8c3.3-2.2,5.5-6,5.5-10.2C24,7.2,20.2,2.6,15.3,1.1z"/>
</g>
<rect class="st1" width="24" height="24"/>
</svg>
