<?xml version="1.0" encoding="utf-8"?>
<!-- Generator: Adobe Illustrator 26.2.1, SVG Export Plug-In . SVG Version: 6.00 Build 0)  -->
<svg version="1.1" id="Layer_1" xmlns="http://www.w3.org/2000/svg" xmlns:xlink="http://www.w3.org/1999/xlink" x="0px" y="0px"
	 viewBox="0 0 24 24" style="enable-background:new 0 0 24 24;" xml:space="preserve">
<style type="text/css">
	.st0{fill:#0052C2;}
	.st1{fill:none;}
</style>
<path class="st0" d="M20,15.2c-1.1,0-2.1,0.5-2.8,1.2L8,11.7c0-0.2,0-0.3,0-0.5c0-0.1,0-0.2,0-0.3l8.9-3.6c0.7,0.9,1.9,1.5,3.1,1.5
	c2.2,0,4-1.8,4-4s-1.8-4-4-4c-2,0-3.6,1.4-3.9,3.3L6.5,8C5.8,7.5,4.9,7.2,4,7.2c-2.2,0-4,1.8-4,4s1.8,4,4,4c0.8,0,1.6-0.3,2.3-0.7
	l9.8,5c0.1,2.1,1.9,3.7,4,3.7c2.2,0,4-1.8,4-4C24,17,22.2,15.2,20,15.2z"/>
<rect class="st1" width="24" height="24"/>
</svg>
