<svg viewBox="0 0 24 24" xmlns="http://www.w3.org/2000/svg">
<path d="M12,0C5.4,0,0,5.4,0,12s5.4,12,12,12s12-5.4,12-12S18.6,0,12,0z M12,21.6c-5.3,0-9.6-4.3-9.6-9.6
  S6.7,2.4,12,2.4s9.6,4.3,9.6,9.6S17.3,21.6,12,21.6z"/>
<polygon points="10.8,16.8 13.2,16.8 13.2,14.4 10.8,14.4 	"/>
<path d="M11.8,6C10,6,8.4,7.6,8.4,9.6h2.4c-0.1-0.7,0.3-1.4,1-1.4c0.6,0,0.9,0.4,0.9,0.9c0,0.2-0.2,0.6-0.4,0.8
  l-1.1,1.2c-0.3,0.4-0.4,0.6-0.4,0.8v1.2l2.4,0l0-0.3c0-0.3,0-0.4,0.2-0.6l1-1.2c0.4-0.5,0.8-1.1,0.8-1.9C15.1,7.1,13.5,6,11.8,6z"
  />
</svg>
