<?xml version="1.0" encoding="utf-8"?>
<!-- Generator: Adobe Illustrator 26.2.1, SVG Export Plug-In . SVG Version: 6.00 Build 0)  -->
<svg version="1.1" id="Layer_1" xmlns="http://www.w3.org/2000/svg" xmlns:xlink="http://www.w3.org/1999/xlink" x="0px" y="0px"
	 viewBox="0 0 24 24" style="enable-background:new 0 0 24 24;" xml:space="preserve">
<style type="text/css">
	.st0{fill-rule:evenodd;clip-rule:evenodd;}
	.st1{fill:none;}
</style>
<path class="st0" d="M23.6,21.4l-7.2-7.2c1-1.5,1.7-3.3,1.7-5.2c0-5-4-9-9-9S0,4,0,9c0,5,4,9,9,9c1.9,0,3.7-0.6,5.2-1.7l7.2,7.2
	c0.3,0.3,0.7,0.4,1.1,0.4s0.8-0.1,1.1-0.4C24.1,23,24.1,22,23.6,21.4z M13.9,11.8c-0.5,0.9-1.2,1.6-2.1,2.1C11,14.4,10,14.7,9,14.7
	c-3.2,0-5.7-2.6-5.7-5.7c0-3.2,2.6-5.7,5.7-5.7s5.7,2.6,5.7,5.7C14.7,10,14.4,11,13.9,11.8z"/>
<rect class="st1" width="24" height="24"/>
</svg>
