<?xml version="1.0" encoding="utf-8"?>
<!-- Generator: Adobe Illustrator 26.2.1, SVG Export Plug-In . SVG Version: 6.00 Build 0)  -->
<svg version="1.1" id="Layer_1" xmlns="http://www.w3.org/2000/svg" xmlns:xlink="http://www.w3.org/1999/xlink" x="0px" y="0px"
	 viewBox="0 0 24 24" style="enable-background:new 0 0 24 24;" xml:space="preserve">
<style type="text/css">
	.st1{fill:none;}
</style>
<g>
	<path class="st0" d="M12,0C5.4,0,0,5.4,0,12c0,6.6,5.4,12,12,12c6.6,0,12-5.4,12-12C24,5.4,18.6,0,12,0z M17.7,15.4
		c0.4,0.4,0.4,1.1,0,1.5l-0.8,0.8c-0.4,0.4-1.1,0.4-1.5,0L12,14.3l-3.4,3.4c-0.4,0.4-1.1,0.4-1.5,0l-0.8-0.8c-0.4-0.4-0.4-1.1,0-1.5
		L9.7,12L6.3,8.6c-0.4-0.4-0.4-1.1,0-1.5l0.8-0.8c0.4-0.4,1.1-0.4,1.5,0L12,9.7l3.4-3.4c0.4-0.4,1.1-0.4,1.5,0l0.8,0.8
		c0.4,0.4,0.4,1.1,0,1.5L14.3,12L17.7,15.4z"/>
</g>
<rect class="st1" width="24" height="24"/>
</svg>
