<svg viewBox="0 0 24 24" xmlns="http://www.w3.org/2000/svg">
<path d="M6.9,10.4c0.4-0.1,0.9-0.1,1.3-0.1C8.9,7.7,11,5.6,13.6,5c3.8-0.8,7.5,1.6,8.4,5.4c0.8,0.3,1.4,0.8,2,1.4
  C23.9,5.3,18.6,0,12,0C5.4,0,0,5.4,0,12c0,1.9,0.5,3.7,1.2,5.3c0.4-0.4,0.9-0.7,1.5-1C2.4,13.6,4.2,11,6.9,10.4z"/>
<path d="M20.8,12.4c-0.4-0.1-0.7-0.5-0.8-0.9c0-0.1,0-0.3-0.1-0.4c-0.6-2.7-3.2-4.4-5.8-3.9c-2.1,0.4-3.7,2.3-3.8,4.5
  c0,0.3-0.2,0.6-0.5,0.8c-0.3,0.2-0.6,0.2-0.9,0.2c-0.5-0.1-1-0.1-1.5,0c-1.7,0.4-2.8,2.1-2.4,3.9c0,0.1,0,0.2,0.1,0.3
  c0.1,0.3,0.1,0.6-0.1,0.9c-0.2,0.3-0.4,0.5-0.7,0.5c-0.8,0.2-1.7,0.5-1.7,1.2c0,0,0,0,0,0C4.7,22.2,8.2,24,12,24
  c5.4,0,10-3.6,11.5-8.6c0-0.1-0.1-0.2-0.1-0.3C23.1,13.7,22.1,12.7,20.8,12.4z"/>
</svg>
