<?xml version="1.0" encoding="utf-8"?>
<!-- Generator: Adobe Illustrator 26.2.1, SVG Export Plug-In . SVG Version: 6.00 Build 0)  -->
<svg version="1.1" id="Layer_1" xmlns="http://www.w3.org/2000/svg" xmlns:xlink="http://www.w3.org/1999/xlink" x="0px" y="0px"
	 viewBox="0 0 24 24" style="enable-background:new 0 0 24 24;" xml:space="preserve">
<style type="text/css">
	.st0{fill-rule:evenodd;clip-rule:evenodd;fill:#0052C2;}
	.st1{fill:none;}
</style>
<path class="st0" d="M12,0C5.4,0,0,5.4,0,12c0,6.6,5.4,12,12,12c6.6,0,12-5.4,12-12C24,5.4,18.6,0,12,0z M16.8,13.5l-6.6,7.3
	C10,21,9.8,21.1,9.5,21.1c-0.2,0-0.4-0.1-0.5-0.2c-0.4-0.3-0.5-0.8-0.4-1.2l2-5.7l-3-2.2c-0.2-0.2-0.4-0.4-0.4-0.7
	c0-0.3,0.1-0.6,0.3-0.8l6.6-7.3c0.3-0.4,0.8-0.4,1.2-0.2C15.7,3,15.8,3.5,15.7,4l-2,5.7l3,2.2c0.2,0.2,0.4,0.4,0.4,0.7
	C17.1,13,17,13.3,16.8,13.5z"/>
<rect class="st1" width="24" height="24"/>
</svg>
