<svg viewBox="0 0 24 24" xmlns="http://www.w3.org/2000/svg">
<path d="M23.4,15.6h-0.6v-4.1c0-0.5-0.2-0.9-0.5-1.3l-3.7-3.7c-0.2-0.2-0.4-0.3-0.6-0.4C17.7,6,17.5,6,17.3,6h-1.7V4.2
	c0-0.5-0.2-0.9-0.5-1.3c-0.3-0.3-0.8-0.5-1.3-0.5h-12c-0.5,0-0.9,0.2-1.3,0.5C0.2,3.3,0,3.7,0,4.2v12c0,0.5,0.2,0.9,0.5,1.3
	C0.9,17.8,1.3,18,1.8,18h0.6c0,1,0.4,1.9,1.1,2.5C4.1,21.2,5,21.6,6,21.6s1.9-0.4,2.5-1.1C9.2,19.9,9.6,19,9.6,18h4.8
	c0,1,0.4,1.9,1.1,2.5c0.7,0.7,1.6,1.1,2.5,1.1s1.9-0.4,2.5-1.1c0.7-0.7,1.1-1.6,1.1-2.5h1.8c0.3,0,0.6-0.3,0.6-0.6v-1.2
	C24,15.9,23.7,15.6,23.4,15.6z M7.3,19.3c-0.3,0.3-0.8,0.5-1.3,0.5s-0.9-0.2-1.3-0.5c-0.3-0.3-0.5-0.8-0.5-1.3
	c0-0.5,0.2-0.9,0.5-1.3c0.3-0.3,0.8-0.5,1.3-0.5s0.9,0.2,1.3,0.5c0.3,0.3,0.5,0.8,0.5,1.3C7.8,18.5,7.6,18.9,7.3,19.3z M11.4,10.5
	c0,0.1,0,0.2-0.1,0.2c-0.1,0.1-0.1,0.1-0.2,0.1H9v2.1c0,0.1,0,0.2-0.1,0.2c-0.1,0.1-0.1,0.1-0.2,0.1H6.9c-0.1,0-0.2,0-0.2-0.1
	c-0.1-0.1-0.1-0.1-0.1-0.2v-2.1H4.5c-0.1,0-0.2,0-0.2-0.1c-0.1-0.1-0.1-0.1-0.1-0.2V8.7c0-0.1,0-0.2,0.1-0.2
	c0.1-0.1,0.1-0.1,0.2-0.1h2.1V6.3c0-0.1,0-0.2,0.1-0.2S6.8,6,6.9,6h1.8c0.1,0,0.2,0,0.2,0.1C9,6.1,9,6.2,9,6.3v2.1h2.1
	c0.1,0,0.2,0,0.2,0.1c0.1,0.1,0.1,0.1,0.1,0.2V10.5z M19.3,19.3c-0.3,0.3-0.8,0.5-1.3,0.5s-0.9-0.2-1.3-0.5
	c-0.3-0.3-0.5-0.8-0.5-1.3c0-0.5,0.2-0.9,0.5-1.3c0.3-0.3,0.8-0.5,1.3-0.5s0.9,0.2,1.3,0.5c0.3,0.3,0.5,0.8,0.5,1.3
	C19.8,18.5,19.6,18.9,19.3,19.3z M21,12h-5.4V7.8h1.7l3.7,3.7V12z"/>
</svg>
