<?xml version="1.0" encoding="utf-8"?>
<!-- Generator: Adobe Illustrator 26.2.1, SVG Export Plug-In . SVG Version: 6.00 Build 0)  -->
<svg version="1.1" id="Layer_1" xmlns="http://www.w3.org/2000/svg" xmlns:xlink="http://www.w3.org/1999/xlink" x="0px" y="0px"
	 viewBox="0 0 24 24" style="enable-background:new 0 0 24 24;" xml:space="preserve">
<style type="text/css">
	.st0{fill-rule:evenodd;clip-rule:evenodd;fill:#0052C2;}
	.st1{fill:none;}
</style>
<g>
	<path class="st0" d="M17,9.4c-0.7,0-1.3,0.6-1.3,1.3v2.6c0,2.2-1.8,4-4,4c-2.2,0-4-1.8-4-4v-2.6c0-0.7-0.6-1.3-1.3-1.3
		C5.6,9.4,5,10,5,10.7v2.8c0,0,0,0.1,0,0.1c0.1,3.6,3.1,6.5,6.7,6.5c3.6,0,6.6-2.9,6.7-6.5c0,0,0-0.1,0-0.1v-2.8
		C18.3,10,17.8,9.4,17,9.4z"/>
	<path class="st0" d="M11.7,16c1.5,0,2.7-1.2,2.7-2.7V2.7c0-1.5-1.2-2.7-2.7-2.7C10.2,0,9,1.2,9,2.7v10.7C9,14.8,10.2,16,11.7,16z"
		/>
	<path class="st0" d="M11.7,21.3c-0.7,0-1.3,0.6-1.3,1.3c0,0.7,0.6,1.3,1.3,1.3c0.7,0,1.3-0.6,1.3-1.3C13,21.9,12.4,21.3,11.7,21.3z
		"/>
</g>
<rect class="st1" width="24" height="24"/>
</svg>
