<?xml version="1.0" encoding="utf-8"?>
<!-- Generator: Adobe Illustrator 26.2.1, SVG Export Plug-In . SVG Version: 6.00 Build 0)  -->
<svg version="1.1" id="Layer_1" xmlns="http://www.w3.org/2000/svg" xmlns:xlink="http://www.w3.org/1999/xlink" x="0px" y="0px"
	 viewBox="0 0 24 24" style="enable-background:new 0 0 24 24;" xml:space="preserve">
<style type="text/css">
	.st0{fill-rule:evenodd;clip-rule:evenodd;fill:#0052C2;}
	.st1{fill:none;}
</style>
<g>
	<g>
		<path class="st0" d="M11,0.4L3.5,7.2C2.9,7.8,2.8,8.7,3.4,9.3C3.9,9.9,4.9,10,5.5,9.4l5-4.5v11.6c0,0.8,0.7,1.5,1.5,1.5
			s1.5-0.7,1.5-1.5V4.9l5,4.5c0.6,0.6,1.6,0.5,2.1-0.1C20.9,9,21,8.7,21,8.3c0-0.4-0.2-0.8-0.5-1.1L13,0.4C12.4-0.1,11.6-0.1,11,0.4
			z"/>
		<path class="st0" d="M4.5,24C3.7,24,3,23.3,3,22.5C3,21.7,3.7,21,4.5,21h15c0.8,0,1.5,0.7,1.5,1.5c0,0.8-0.7,1.5-1.5,1.5H4.5z"/>
	</g>
	<rect class="st1" width="24" height="24"/>
</g>
</svg>
