<?xml version="1.0" encoding="utf-8"?>
<!-- Generator: Adobe Illustrator 26.2.1, SVG Export Plug-In . SVG Version: 6.00 Build 0)  -->
<svg version="1.1" id="Layer_1" xmlns="http://www.w3.org/2000/svg" xmlns:xlink="http://www.w3.org/1999/xlink" x="0px" y="0px"
	 viewBox="0 0 24 24" style="enable-background:new 0 0 24 24;" xml:space="preserve">
<style type="text/css">
	.st0{fill-rule:evenodd;clip-rule:evenodd;fill:#0052C2;}
	.st1{fill:none;}
</style>
<path class="st0" d="M23.4,12.5l-4.1-3.8l1.1-6.4c0.1-0.7-0.2-1.5-0.8-1.9c-0.6-0.4-1.4-0.5-2.1-0.1L12,3.1L6.5,0.2
	C5.8-0.1,5-0.1,4.4,0.4C3.8,0.8,3.5,1.6,3.6,2.3l1,6.4l-4.1,3.8c-0.5,0.5-0.7,1.3-0.5,2c0.2,0.7,0.9,1.2,1.6,1.3l5.8,1.4l2.8,5.6
	c0.3,0.7,1,1.1,1.8,1.1c0.8,0,1.4-0.4,1.8-1.1l2.8-5.6l5.8-1.4c0.7-0.1,1.4-0.6,1.6-1.3C24.1,13.8,23.9,13,23.4,12.5z"/>
<rect class="st1" width="24" height="24"/>
</svg>
