<svg width="24" height="24" viewBox="0 0 24 24" fill="none" xmlns="http://www.w3.org/2000/svg">
<path d="M5.06859 10.7114L6.31197 8.3282C6.64872 7.70651 7.14089 7.18843 7.73668 6.82578C10.612 5.11613 10.9747 5.14204 11.3373 5.16794L13.2801 5.29746C13.8759 5.32336 14.2903 5.47878 16.2849 8.40591C16.3626 8.50953 16.4663 8.58724 16.6217 8.61314L19.0048 8.9758C19.6524 9.07941 20.0928 9.6752 19.9892 10.3228C19.8856 10.9704 19.2898 11.4108 18.6422 11.3071L16.259 10.9445C15.4819 10.815 14.7825 10.4005 14.3421 9.75291C14.2385 9.59749 14.1608 9.46797 14.0572 9.33845L13.1105 13.996L14.653 16.3066C14.9638 16.6174 15.2229 17.0319 15.3783 17.4463L17.0102 22.2126C17.2693 22.912 16.8807 23.6892 16.1813 23.9223C16.0259 23.9741 15.8964 24 15.7409 24C15.1711 24 14.653 23.6373 14.4458 23.0934L12.8138 18.3271C12.7879 18.2753 12.762 18.2494 12.7361 18.1975L8.95416 14.3897C8.41018 13.8457 8.20295 13.0945 8.35837 12.3692L9.18729 8.69085C9.10958 8.74266 9.03187 8.79447 8.92825 8.84628C8.69512 8.9758 8.51379 9.18303 8.38427 9.41616L7.14089 11.7993C6.93366 12.1879 6.5192 12.421 6.10474 12.421C5.92341 12.421 5.74209 12.3692 5.56076 12.2915C4.99088 11.9806 4.78365 11.2812 5.06859 10.7114Z" fill="#0052C2"/>
<path d="M12.7074 4.58497C13.9735 4.58497 14.9999 3.55859 14.9999 2.29249C14.9999 1.02638 13.9735 0 12.7074 0C11.4413 0 10.4149 1.02638 10.4149 2.29249C10.4149 3.55859 11.4413 4.58497 12.7074 4.58497Z" fill="#0052C2"/>
<path d="M8.37527 16.7989L4.48193 19.9954C4.04416 20.3788 3.88615 20.9927 4.0856 21.5263C4.14 21.6714 4.20994 21.7854 4.31356 21.9123C4.77724 22.4848 5.63983 22.578 6.20454 22.0911L10.0979 18.8945C10.432 18.6044 10.7299 18.2159 10.9113 17.8169L11.0077 17.2272L9.03989 15.2548L8.46853 16.6823C8.42967 16.7238 8.41672 16.7575 8.37527 16.7989Z" fill="#0052C2"/>
</svg>
