<svg viewBox="0 0 106 60" fill="none" xmlns="http://www.w3.org/2000/svg">
<path d="M63.9383 18.6079C59.8678 18.6079 56.6167 21.6476 56.6167 25.6652C56.6167 29.6828 59.8678 32.7225 63.9383 32.7225C68.0088 32.7225 71.2599 29.6828 71.2599 25.6652C71.2599 21.6476 68.0088 18.6079 63.9383 18.6079ZM63.9383 29.0485C63.2715 29.038 62.6227 28.8308 62.0733 28.4528C61.5239 28.0747 61.0985 27.5428 60.8505 26.9237C60.6026 26.3047 60.5431 25.6261 60.6795 24.9733C60.816 24.3206 61.1423 23.7227 61.6175 23.2548C62.0927 22.7869 62.6955 22.4699 63.3503 22.3436C64.0052 22.2173 64.6827 22.2873 65.2978 22.5448C65.913 22.8024 66.4383 23.236 66.8077 23.7912C67.1772 24.3463 67.3744 24.9983 67.3745 25.6652C67.3606 26.5673 66.9924 27.4278 66.3495 28.0608C65.7066 28.6938 64.8406 29.0486 63.9383 29.0485Z" fill="currentColor"/>
<path d="M84.4493 23.815C84.4493 20.9868 82.1762 18.8987 79.2952 18.8987H73.1101V32.4317H76.8106V28.7577H78.5551L80.2467 32.4317H84.4229L82.0969 27.8855C83.4185 26.9868 84.4493 25.6388 84.4493 23.815ZM79.2952 25.4009H76.8106V22.2026H79.2952C80.141 22.2026 80.6696 23.1278 80.6696 23.815C80.6696 24.5022 80.141 25.4009 79.2952 25.4009Z" fill="currentColor"/>
<path d="M90.4493 18.8987H86.7225V32.4317H90.4493V18.8987Z" fill="currentColor"/>
<path d="M99.5419 18.8987H98.141L91.8767 32.4317H95.8678L96.5286 30.8987H101.181L101.841 32.4317H105.833L99.5419 18.8987ZM97.6652 27.674L98.8282 25.0308H98.9075L100.07 27.674H97.6652Z" fill="currentColor"/>
<path d="M55.5595 0H0L8.80176 18.978H12.8987L16.2555 26.2467L19.6123 18.978H23.7093L17.5771 32.2996H14.9604L27.7797 60L40.9163 31.6652C39.8622 32.2694 38.6687 32.5883 37.4537 32.5903C33.489 32.5903 30.3436 29.6035 30.3436 25.6388C30.3436 21.674 33.489 18.6872 37.4537 18.6872C38.6533 18.6871 39.8323 18.9989 40.8749 19.592C41.9176 20.1852 42.788 21.0393 43.4009 22.0705L40.3084 23.9207C40.0118 23.4268 39.5938 23.0169 39.0942 22.7301C38.5945 22.4433 38.0298 22.289 37.4537 22.2819C36.8698 22.2795 36.2956 22.4305 35.7885 22.72C35.2814 23.0095 34.8593 23.4272 34.5646 23.9313C34.2698 24.4354 34.1128 25.0081 34.1093 25.592C34.1057 26.1759 34.2557 26.7504 34.5443 27.2581C34.8328 27.7657 35.2498 28.1886 35.7533 28.4842C36.2568 28.7799 36.8292 28.9379 37.4131 28.9426C37.997 28.9472 38.5718 28.7983 39.08 28.5107C39.5882 28.2231 40.0118 27.8069 40.3084 27.304L42.3436 28.5198L45.2511 22.2291H48.37V32.4317H52.0969V22.2291H55.8238V18.8987H46.8026L55.5595 0ZM28.652 32.2996H24.8458V19.0308H28.652V32.2996Z" fill="currentColor"/>
</svg>
