<svg version="1.1" fill="none" viewBox="0 0 533 302" xmlns:svg="http://www.w3.org/2000/svg">
  <g transform="matrix(1.333,0,0,-1.333,0,302)">
    <g transform="scale(0.1)">
      <path
        d="m 2418.79,1427.02 c 70.96,0 129.52,-57.98 129.52,-128.23 0,-70.24 -58.56,-128.23 -129.52,-128.23 -70.99,0 -129.58,57.99 -129.58,128.23 0,70.25 58.59,128.23 129.58,128.23 z m 0,-395.6 c 153.65,0 276.97,115.28 276.97,267.37 0,152.1 -123.32,267.36 -276.97,267.36 -153.7,0 -277.03,-115.26 -277.03,-267.36 0,-152.09 123.33,-267.37 277.03,-267.37"
        fill="currentColor" />
      <path
        d="m 3000.09,1308.34 h -94.41 v 120.73 h 94.41 c 31.68,0 52.36,-35.48 52.36,-60.71 0,-25.24 -20.68,-60.02 -52.36,-60.02 z m 106.08,-93.45 c 49.65,34.1 88.94,84.58 88.94,153.47 0,107.09 -86.18,186.21 -195.02,186.21 H 2765.11 V 1043 h 140.57 v 139.16 h 66.17 L 3035.94,1043 h 157.76 l -87.53,171.89"
        fill="currentColor" />
      <path d="M 3420.92,1554.56 H 3280.4 V 1043 h 140.52 v 511.56" fill="currentColor" />
      <path
        d="m 3694.35,1222.44 43.61,99.58 h 2.92 l 43.6,-99.58 z m 18.7,332.19 -236.96,-511.6 h 150.69 l 24.74,57.97 h 175.79 l 24.75,-57.97 h 150.68 l -236.96,511.6 h -52.73"
        fill="currentColor" />
      <path
        d="M 1083.29,1047.52 H 939.762 v 502.43 h 143.528 z m 746.33,-4.52 h 140.55 v 386.06 h 141.23 v 125.5 h -340.21 l 330.48,713.16 H -0.00390625 L 332.605,1549.94 h 155.071 l 127.246,-274.59 127.246,274.59 H 897.535 L 664.719,1047.52 H 565.422 L 1050.82,0.0117188 1547.42,1071.67 c -38.51,-22.28 -83.21,-35.09 -130.91,-35.09 -150.05,0 -269.28,113.2 -269.28,262.6 0,149.41 119.23,262.62 269.28,262.62 95.8,0 179.53,-51.6 225.07,-127.98 l -117.22,-70.33 c -22.12,36.15 -62.3,61.65 -107.85,61.65 -69.66,0 -125.93,-56.98 -125.93,-125.96 0,-68.98 56.27,-125.95 125.93,-125.95 45.55,0 85.73,24.8 107.85,61.64 l 77.22,-46.33 111.46,240.52 h 116.58 V 1043"
        fill="currentColor" />
      <path
        d="m 1912.9,620.672 c -32.89,0 -63.04,12.789 -81.5,27.59 l -26.5,-41.114 c 27.41,-22.117 69.08,-33.449 107.82,-33.449 55.02,0 104.73,26.86 104.73,83.34 0,44.602 -35.81,64.141 -81.52,71.641 l -14.42,2.371 c -30.71,5.129 -52.83,10.777 -52.83,29.621 0,19.359 20.28,30.68 48.98,30.68 27.96,0 52.45,-9.293 72.56,-21.723 l 24.12,41.652 c -32.16,19.199 -61.96,27.25 -97.78,27.25 -54.46,0 -101.98,-27.761 -101.98,-81.14 0,-46.243 32.89,-66.172 78.04,-73.313 l 16.27,-2.547 c 35.64,-5.66 54.28,-12.25 54.28,-29.961 0,-19.75 -21.93,-30.898 -50.27,-30.898"
        fill="currentColor" />
      <path
        d="m 2190.68,592.352 -17.56,37.277 c -9.68,-5.859 -21.93,-11.508 -33.26,-11.508 -14.82,0 -26.49,8.051 -26.49,30.141 v 64.699 h 64.13 v 42.398 h -64.13 V 808 h -47.71 v -52.641 h -34.19 v -42.398 h 34.19 V 644.43 c 0,-45.879 22.46,-70.731 66.33,-70.731 25.24,0 43.14,8.071 58.69,18.653"
        fill="currentColor" />
      <path
        d="m 2293.53,618.141 c -27.96,0 -45.69,21.73 -45.69,48.769 0,27.039 17.73,48.801 45.69,48.801 27.25,0 45.73,-20.852 45.73,-48.801 0,-27.98 -18.48,-48.769 -45.73,-48.769 z m 90.87,-39.879 v 177.097 h -46.63 v -19.507 c -11.7,14.418 -28.68,24.269 -53.02,24.269 -48.79,0 -85.7,-40.043 -85.7,-93.211 0,-53.191 36.91,-93.18 85.7,-93.18 24.34,0 41.53,9.84 53.02,24.098 v -19.566 h 46.63"
        fill="currentColor" />
      <path
        d="m 2510.07,573.699 c 25.27,0 43.14,8.071 58.72,18.653 l -17.56,37.277 c -9.69,-5.859 -21.94,-11.508 -33.29,-11.508 -14.8,0 -26.47,8.051 -26.47,30.141 v 64.699 h 64.13 v 42.398 h -64.13 V 808 h -47.72 v -52.641 h -34.18 v -42.398 h 34.18 V 644.43 c 0,-45.879 22.45,-70.731 66.32,-70.731"
        fill="currentColor" />
      <path
        d="m 2666.33,718.988 c 20.47,0 34.18,-12.789 38.55,-35.457 h -78.42 c 4.22,21.93 17.41,35.457 39.87,35.457 z m 50.27,-87.707 c -12.81,-10.801 -29.43,-16.992 -44.81,-16.992 -22.45,0 -40.38,11.121 -45.48,36.731 h 125.56 c 0.53,4.011 0.89,10.609 0.89,16.082 -0.15,55.187 -35.07,93.019 -86.07,93.019 -52.99,0 -89.56,-38.012 -89.56,-93.73 0,-55.782 37.66,-92.692 91.95,-92.692 29.76,0 55.39,8.442 75.45,26.86 l -27.93,30.722"
        fill="currentColor" />
      <path
        d="m 1944.71,391.34 v -42.559 h 65.06 c -6.75,-36.371 -31.06,-56.48 -72.73,-56.48 -44.24,0 -79.87,32.719 -79.87,84.969 0,49.89 33.99,84.25 80.79,84.25 26.13,0 47.32,-10.211 61.75,-26.86 l 36.75,36.012 c -22.66,24.699 -56.48,39.308 -97.05,39.308 -78.58,0 -135.06,-55.378 -135.06,-132.71 0,-82.61 62.88,-132.489 133.78,-132.489 72.55,0 125.01,54.649 125.01,132.129 0,4.77 -0.18,9.512 -0.73,14.43 h -117.7"
        fill="currentColor" />
      <path
        d="m 2182.79,289.199 c -26.85,0 -46.97,20.082 -46.97,48.781 0,28.7 20.12,48.829 46.97,48.829 26.89,0 47.15,-20.129 47.15,-48.829 0,-28.699 -20.26,-48.781 -47.15,-48.781 z m 0,142 c -55.02,0 -95.59,-39.859 -95.59,-93.219 0,-53.371 40.57,-93.199 95.59,-93.199 55.21,0 95.95,39.828 95.95,93.199 0,53.36 -40.74,93.219 -95.95,93.219"
        fill="currentColor" />
      <path d="m 2381.28,299.609 -45.91,126.821 h -51.9 l 70,-177.09 h 55.02 l 69.27,177.09 h -50.27 l -46.21,-126.821"
        fill="currentColor" />
      <path
        d="m 2532,354.609 c 4.22,21.942 17.35,35.45 39.86,35.45 20.48,0 34.13,-12.789 38.56,-35.45 z m 40.22,76.59 c -53.03,0 -89.56,-38.008 -89.56,-93.758 0,-55.742 37.67,-92.66 91.91,-92.66 29.8,0 55.39,8.41 75.5,26.86 l -27.98,30.711 c -12.77,-10.782 -29.44,-17.012 -44.76,-17.012 -22.45,0 -40.38,11.148 -45.49,36.742 h 125.52 c 0.58,4.027 0.94,10.59 0.94,16.09 -0.21,55.199 -35.12,93.027 -86.08,93.027"
        fill="currentColor" />
      <path
        d="m 2736.14,407.082 v 19.348 h -46.27 V 249.34 h 47.73 v 96.5 c 0,26.332 15.16,39.851 37.25,39.851 9.69,0 21.05,-2.191 28.92,-5.679 l 7.09,47.328 c -6.57,2.398 -14.59,3.859 -24.86,3.859 -21.72,0 -38.71,-7.5 -49.86,-24.117"
        fill="currentColor" />
      <path
        d="m 2934.6,431.199 c -20.12,0 -39.49,-6.769 -52.1,-25.578 v 20.809 h -46.43 V 249.34 h 47.68 v 97.058 c 0,26.68 17.03,40.024 37.51,40.024 21.73,0 34.54,-14.07 34.54,-39.66 V 249.34 h 47.67 v 112.769 c 0,41.11 -28.71,69.09 -68.87,69.09"
        fill="currentColor" />
      <path
        d="m 3261.85,431.199 c -23.18,0 -46.42,-7.859 -60.12,-30.34 -11.89,18.821 -32.88,30.34 -58.46,30.34 -20.12,0 -39.5,-6.769 -52.11,-25.578 v 20.809 h -46.43 V 249.34 h 47.69 v 97.058 c 0,26.68 17.03,40.024 37.51,40.024 21.73,0 34.54,-14.07 34.54,-39.66 V 249.34 h 47.68 v 97.058 c 0,26.68 16.98,40.024 37.46,40.024 21.57,0 34.54,-14.07 34.54,-39.66 V 249.34 h 47.52 v 112.769 c 0,41.11 -28.14,69.09 -69.82,69.09"
        fill="currentColor" />
      <path
        d="m 3411.33,354.609 c 4.17,21.942 17.35,35.45 39.81,35.45 20.47,0 34.18,-12.789 38.56,-35.45 z m 40.17,76.59 c -52.99,0 -89.56,-38.008 -89.56,-93.758 0,-55.742 37.67,-92.66 91.95,-92.66 29.81,0 55.39,8.41 75.5,26.86 l -27.98,30.711 c -12.81,-10.782 -29.43,-17.012 -44.75,-17.012 -22.51,0 -40.43,11.148 -45.54,36.742 h 125.57 c 0.52,4.027 0.89,10.59 0.89,16.09 -0.16,55.199 -35.07,93.027 -86.08,93.027"
        fill="currentColor" />
      <path
        d="m 3667.67,431.199 c -20.05,0 -39.44,-6.769 -52.05,-25.578 V 426.43 H 3569.2 V 249.34 h 47.67 v 97.058 c 0,26.68 16.99,40.024 37.46,40.024 21.78,0 34.54,-14.07 34.54,-39.66 V 249.34 h 47.73 v 112.769 c 0,41.11 -28.7,69.09 -68.93,69.09"
        fill="currentColor" />
      <path
        d="m 3866.86,289.199 c -14.8,0 -26.52,8.02 -26.52,30.141 v 64.711 h 64.19 v 42.379 h -64.19 v 52.66 h -47.68 v -52.66 h -34.18 v -42.379 h 34.18 v -68.539 c 0,-45.883 22.46,-70.731 66.33,-70.731 25.22,0 43.15,8.047 58.66,18.649 l -17.5,37.281 c -9.68,-5.859 -21.93,-11.512 -33.29,-11.512"
        fill="currentColor" />
    </g>
  </g>
</svg>