<svg viewBox="0 0 105 14" fill="none" xmlns="http://www.w3.org/2000/svg">
    <path d="M5.712 13H8.144L13.616 0.999999H9.968L6.928 7.544L3.888 0.999999H0.24L5.712 13ZM14.5069 13H17.7709V0.999999H14.5069V13ZM25.7264 0.728C22.3344 0.728 19.2944 3.432 19.2944 7C19.2944 10.568 22.3344 13.272 25.7264 13.272C28.0144 13.272 30.0784 12.264 31.3264 10.44L28.6064 8.776C27.9984 9.608 27.1344 10.168 25.8864 10.168C24.2224 10.168 22.7824 8.648 22.7824 7C22.7824 5.352 24.2224 3.832 25.8864 3.832C27.1344 3.832 27.9984 4.392 28.6064 5.224L31.3264 3.56C30.0784 1.736 28.0144 0.728 25.7264 0.728ZM33.346 13.128C34.21 13.128 34.914 12.44 34.914 11.592C34.914 10.728 34.21 10.04 33.346 10.04C32.514 10.04 31.81 10.728 31.81 11.592C31.81 12.44 32.514 13.128 33.346 13.128ZM43.4333 8.44H45.7053V9.448C45.1293 9.928 44.3773 10.168 43.4333 10.168C41.7693 10.168 40.3293 8.648 40.3293 7C40.3293 5.352 41.7693 3.832 43.4333 3.832C44.4893 3.832 45.2733 4.248 45.8493 4.872L48.2973 2.84C47.0333 1.48 45.2413 0.728 43.2733 0.728C39.8813 0.728 36.8413 3.432 36.8413 7C36.8413 10.568 39.8813 13.272 43.2733 13.272C45.5613 13.272 47.6253 12.264 48.8733 10.44V5.656H43.4333V8.44ZM63.7001 7C63.7001 3.432 60.6121 0.728 57.0441 0.728C53.4761 0.728 50.3881 3.432 50.3881 7C50.3881 10.568 53.4761 13.272 57.0441 13.272C60.6121 13.272 63.7001 10.568 63.7001 7ZM53.8761 7C53.8761 5.256 55.3001 3.832 57.0441 3.832C58.7881 3.832 60.2121 5.256 60.2121 7C60.2121 8.744 58.7881 10.168 57.0441 10.168C55.3001 10.168 53.8761 8.744 53.8761 7ZM69.212 13H71.644L77.116 0.999999H73.468L70.428 7.544L67.388 0.999999H63.74L69.212 13ZM78.1741 13.128C79.0381 13.128 79.7421 12.44 79.7421 11.592C79.7421 10.728 79.0381 10.04 78.1741 10.04C77.3421 10.04 76.6381 10.728 76.6381 11.592C76.6381 12.44 77.3421 13.128 78.1741 13.128ZM88.2294 0.999999H86.8534L81.3014 13H84.8534L85.4614 11.624H89.6214L90.2294 13H93.7814L88.2294 0.999999ZM86.5014 8.984L87.4614 6.392H87.6214L88.5814 8.984H86.5014ZM104.888 0.999999H101.544V8.6C101.544 9.704 100.84 10.408 99.7363 10.408C98.6323 10.408 97.9443 9.704 97.9443 8.6V0.999999H94.6163V8.456C94.6163 11.592 96.5843 13.272 99.7363 13.272C102.92 13.272 104.888 11.592 104.888 8.456V0.999999Z" fill="white"/>
</svg>
